<?xml version="1.0"?>
<svg version="1.1" xmlns="http://www.w3.org/2000/svg" xmlns:xlink="http://www.w3.org/1999/xlink" width="638" height="643">
    <desc iVinci="yes" version="4.6" gridStep="20" showGrid="no" snapToGrid="no" codePlatform="0"/>
    <g id="Layer1" name="Layer 1" opacity="1">
        <g id="Shape1">
            <desc shapeID="1" type="0" basicInfo-basicType="0" basicInfo-roundedRectRadius="12" basicInfo-polygonSides="6" basicInfo-starPoints="5" bounding="rect(-193.798,-136.823,387.597,273.646)" text="" font-familyName="" font-pixelSize="20" font-bold="0" font-underline="0" font-alignment="1" strokeStyle="0" markerStart="0" markerEnd="0" shadowEnabled="0" shadowOffsetX="0" shadowOffsetY="2" shadowBlur="4" shadowOpacity="160" blurEnabled="0" blurRadius="4" transform="matrix(1.0547,0,0,1.0541,405.75,144.225)" pers-center="0,0" pers-size="0,0" pers-start="0,0" pers-end="0,0" locked="0" mesh="" flag=""/>
            <path id="shapePath1" d="M318.986,0 C303.534,0 254.268,23.3493 201.351,52.6005 L610.15,288.45 C608.976,228.124 604.555,174.015 596.848,160.753 C590.348,149.552 557.598,125.808 516.596,99.9348 L407.272,36.8639 C366.324,15.4025 331.528,0 318.986,0 Z" style="stroke:none;fill-rule:evenodd;fill:url(#linearGradientFill1);fill-opacity:1;"/><defs><linearGradient id="linearGradientFill1" gradientUnits="userSpaceOnUse" x1="405.75" y1="288.45" x2="405.75" y2="-3.05176e-05"><stop offset="0" stop-color="#25a559" stop-opacity="1"/><stop offset="1" stop-color="#30ce68" stop-opacity="1"/></linearGradient></defs>
        </g>
        <g id="Shape2">
            <desc shapeID="2" type="0" basicInfo-basicType="0" basicInfo-roundedRectRadius="12" basicInfo-polygonSides="6" basicInfo-starPoints="5" bounding="rect(-247.723,-174.882,495.447,349.762)" text="" font-familyName="" font-pixelSize="20" font-bold="0" font-underline="0" font-alignment="1" strokeStyle="0" markerStart="0" markerEnd="0" shadowEnabled="0" shadowOffsetX="0" shadowOffsetY="2" shadowBlur="4" shadowOpacity="160" blurEnabled="0" blurRadius="4" transform="matrix(1.0547,0,0,1.0541,349.197,236.944)" pers-center="0,0" pers-size="0,0" pers-start="0,0" pers-end="0,0" locked="0" mesh="" flag=""/>
            <path id="shapePath2" d="M87.923,121.699 L607.207,421.285 C610.063,383.436 611.049,334.182 610.15,288.45 L201.351,52.6006 C161.262,74.7598 119.106,100.283 87.923,121.699 Z" style="stroke:none;fill-rule:evenodd;fill:url(#linearGradientFill2);fill-opacity:1;"/><defs><linearGradient id="linearGradientFill2" gradientUnits="userSpaceOnUse" x1="349.197" y1="421.286" x2="349.197" y2="52.6022"><stop offset="0" stop-color="#25a559" stop-opacity="1"/><stop offset="1" stop-color="#30ce68" stop-opacity="1"/></linearGradient></defs>
        </g>
        <g id="Shape3">
            <desc shapeID="3" type="0" basicInfo-basicType="0" basicInfo-roundedRectRadius="12" basicInfo-polygonSides="6" basicInfo-starPoints="5" bounding="rect(-273.302,-189.923,546.605,379.845)" text="" font-familyName="" font-pixelSize="20" font-bold="0" font-underline="0" font-alignment="1" strokeStyle="0" markerStart="0" markerEnd="0" shadowEnabled="0" shadowOffsetX="0" shadowOffsetY="2" shadowBlur="4" shadowOpacity="160" blurEnabled="0" blurRadius="4" transform="matrix(1.0547,0,0,1.0541,318.955,321.897)" pers-center="0,0" pers-size="0,0" pers-start="0,0" pers-end="0,0" locked="0" mesh="" flag=""/>
            <path id="shapePath3" d="M87.9231,121.699 C63.4371,138.499 45.7055,152.743 41.1249,160.754 C36.4348,168.954 32.9668,192.446 30.7034,223.205 L548.752,522.094 C573.885,504.931 592.175,490.354 596.849,482.246 C601.486,474.22 604.927,451.346 607.208,421.285 L87.9231,121.699 Z" style="stroke:none;fill-rule:evenodd;fill:url(#linearGradientFill3);fill-opacity:1;"/><defs><linearGradient id="linearGradientFill3" gradientUnits="userSpaceOnUse" x1="318.954" y1="522.095" x2="318.954" y2="121.7"><stop offset="0" stop-color="#25a559" stop-opacity="1"/><stop offset="1" stop-color="#30ce68" stop-opacity="1"/></linearGradient></defs>
        </g>
        <g id="Shape4">
            <desc shapeID="4" type="0" basicInfo-basicType="0" basicInfo-roundedRectRadius="12" basicInfo-polygonSides="6" basicInfo-starPoints="5" bounding="rect(-247.185,-175.204,494.371,350.409)" text="" font-familyName="" font-pixelSize="20" font-bold="0" font-underline="0" font-alignment="1" strokeStyle="0" markerStart="0" markerEnd="0" shadowEnabled="0" shadowOffsetX="0" shadowOffsetY="2" shadowBlur="4" shadowOpacity="160" blurEnabled="0" blurRadius="4" transform="matrix(1.0547,0,0,1.0541,288.235,407.666)" pers-center="0,0" pers-size="0,0" pers-start="0,0" pers-end="0,0" locked="0" mesh="" flag=""/>
            <path id="shapePath4" d="M548.942,521.967 L30.7192,222.983 C27.8451,261.817 26.9096,312.291 27.9253,358.658 L432.971,592.349 C473.672,569.968 516.906,543.856 548.942,521.967 Z" style="stroke:none;fill-rule:evenodd;fill:url(#linearGradientFill4);fill-opacity:1;"/><defs><linearGradient id="linearGradientFill4" gradientUnits="userSpaceOnUse" x1="288.235" y1="592.349" x2="288.235" y2="222.983"><stop offset="0" stop-color="#25a559" stop-opacity="1"/><stop offset="1" stop-color="#30ce68" stop-opacity="1"/></linearGradient></defs>
        </g>
        <g id="Shape5">
            <desc shapeID="5" type="0" basicInfo-basicType="0" basicInfo-roundedRectRadius="12" basicInfo-polygonSides="6" basicInfo-starPoints="5" bounding="rect(-192.019,-134.874,384.038,269.749)" text="" font-familyName="" font-pixelSize="20" font-bold="0" font-underline="0" font-alignment="1" strokeStyle="0" markerStart="0" markerEnd="0" shadowEnabled="0" shadowOffsetX="0" shadowOffsetY="2" shadowBlur="4" shadowOpacity="160" blurEnabled="0" blurRadius="4" transform="matrix(1.0547,0,0,1.0541,230.448,500.828)" pers-center="0,0" pers-size="0,0" pers-start="0,0" pers-end="0,0" locked="0" mesh="" flag=""/>
            <path id="shapePath5" d="M27.9254,358.658 C29.2121,417.241 33.6007,469.16 41.1249,482.246 C59.3174,513.907 282.642,643 318.986,643 C334.083,643 381.451,620.68 432.971,592.349 L27.9254,358.658 Z" style="stroke:none;fill-rule:evenodd;fill:url(#linearGradientFill5);fill-opacity:1;"/><defs><linearGradient id="linearGradientFill5" gradientUnits="userSpaceOnUse" x1="230.448" y1="643" x2="230.448" y2="358.657"><stop offset="0" stop-color="#25a559" stop-opacity="1"/><stop offset="1" stop-color="#30ce68" stop-opacity="1"/></linearGradient></defs>
        </g>
        <g id="Shape6">
            <desc shapeID="6" type="0" basicInfo-basicType="0" basicInfo-roundedRectRadius="12" basicInfo-polygonSides="6" basicInfo-starPoints="5" bounding="rect(-127.359,-182.722,254.716,365.444)" text="" font-familyName="" font-pixelSize="20" font-bold="0" font-underline="0" font-alignment="1" strokeStyle="0" markerStart="0" markerEnd="0" shadowEnabled="0" shadowOffsetX="0" shadowOffsetY="2" shadowBlur="4" shadowOpacity="160" blurEnabled="0" blurRadius="4" transform="matrix(1.0547,0,0,1.0541,318.999,321.5)" pers-center="0,0" pers-size="0,0" pers-start="0,0" pers-end="0,0" locked="0" mesh="" flag=""/>
            <path id="shapePath6" d="M373.606,346.659 L373.606,457.945 L354.812,457.945 C350.993,457.945 347.903,461.038 347.903,464.844 C347.903,467.342 349.228,469.524 351.213,470.737 L393.453,511.205 C394.716,512.854 397.223,514.107 399.462,514.107 C401.749,514.107 403.772,512.918 405.026,511.205 L450.029,470.731 C452.004,469.518 453.323,467.336 453.323,464.845 C453.323,461.039 450.227,457.946 446.414,457.946 L427.555,457.946 L427.394,189.046 C427.394,185.238 424.369,182.145 420.556,182.145 L380.553,182.145 C376.735,182.145 373.608,185.238 373.608,189.046 L373.608,292.852 L264.39,292.837 L264.39,185.055 L283.186,185.055 C287.002,185.055 290.094,181.962 290.094,178.154 C290.094,175.656 288.769,173.476 286.785,172.262 L244.544,131.796 C243.281,130.146 240.774,128.892 238.535,128.892 C236.249,128.892 234.225,130.083 232.972,131.796 L187.967,172.269 C185.992,173.481 184.674,175.662 184.674,178.153 C184.674,181.961 187.77,185.054 191.584,185.054 L210.443,185.054 L210.605,453.954 C210.605,457.762 213.63,460.855 217.443,460.855 L257.446,460.855 C261.264,460.855 264.391,457.762 264.391,453.954 L264.391,346.659 L373.606,346.659 Z" style="stroke:none;fill-rule:evenodd;fill:#ffffff;fill-opacity:1;"/>
        </g>
    </g>
</svg>
