<?xml version="1.0" encoding="utf-8"?>
<!-- Generator: Adobe Illustrator 16.0.0, SVG Export Plug-In . SVG Version: 6.00 Build 0)  -->
<!DOCTYPE svg PUBLIC "-//W3C//DTD SVG 1.1//EN" "http://www.w3.org/Graphics/SVG/1.1/DTD/svg11.dtd">
<svg version="1.1" xmlns="http://www.w3.org/2000/svg" xmlns:xlink="http://www.w3.org/1999/xlink" x="0px" y="0px"
	 width="116.75px" height="113.737px" viewBox="0 0 116.75 113.737" enable-background="new 0 0 116.75 113.737"
	 xml:space="preserve">
<g id="Layer_2">
</g>
<g id="Layer_1">
	<g>
		<g>
			<g>
				<g>
					<path fill-rule="evenodd" clip-rule="evenodd" fill="#FFFFFF" d="M108.258,17.503c0,2.953,0,5.906,0,8.86
						c-0.229,7.436-1.773,14.143-3.076,21.412c-0.41,2.284-1.052,4.425-1.601,6.646C99.211,72.102,89.985,85.386,79.338,97
						c-3.212,3.504-20.059,16.736-20.059,16.736s-16.652-12.715-20.182-16.244c-1.176-1.176-2.376-2.461-3.446-3.691
						c-4.44-5.111-8.45-10.755-11.937-16.613c-0.139-0.232-0.156-0.145-0.247-0.369c-0.272-0.677-0.683-1.172-0.984-1.723
						c-4.689-8.571-8.123-18.001-9.968-28.919c-1.092-4.703-2.284-10.801-2.584-16.244c-0.34-6.166-0.389-12.67,0.615-18.213
						c10.154-2.479,20.32-6.077,29.781-9.968c1.345-0.554,3.603-1.66,4.061-1.723c0.457-0.063,4.888,0,7.26,0
						c5.097,0,9.584,0,14.645,0c2.461,0,7.384,0,7.384,0s2.586,1.179,3.938,1.723c1.423,0.572,2.856,1.211,4.062,1.723
						c7.831,3.324,25.843,8.368,25.843,8.368S108.054,15.573,108.258,17.503z M52.019,96.385c0.041,0,0.082,0,0.123,0
						c0.805-2.148,2.708-6.152,2.708-6.152l8.491,0.122c0,0,2.298,5.114,2.707,5.908c0.409,0.792,11.938-11.322,11.938-11.322
						l-1.969-4.923l4.553-5.414c0,0,3.609,2.409,4.184,2.707c12.556-12.666,15.384-48.979,15.384-48.979l-5.168,1.107l-4.185-7.752
						l3.322-4.554L71.708,9.997h-25.35l-22.521,7.261l3.323,4.676l-4.307,7.506c0,0-3.968-0.998-5.045-1.107
						c0.252,6.354,1.059,12.678,2.338,18.335c0.558,2.467,1.477,7.261,1.477,7.261l1.723,4.8c0,0,3.04,8.496,5.415,12.306
						c1.364,2.188,2.765,4.301,4.308,6.276c2.332-0.896,5.415-2.338,5.415-2.338l3.322,5.045c0,0-1.713,3.592-1.846,5.169
						C43.223,89.596,52.031,96.534,52.019,96.385z M65.925,96.508C66.005,96.588,65.872,96.458,65.925,96.508L65.925,96.508z"/>
					<linearGradient id="SVGID_1_" gradientUnits="userSpaceOnUse" x1="99.9961" y1="56.7153" x2="101.7389" y2="57.7625">
						<stop  offset="0" style="stop-color:#717171"/>
						<stop  offset="0.0492" style="stop-color:#7B7A7A"/>
						<stop  offset="0.1405" style="stop-color:#969494"/>
						<stop  offset="0.2629" style="stop-color:#CAC8C8"/>
						<stop  offset="0.3455" style="stop-color:#FFFFFF"/>
						<stop  offset="0.4992" style="stop-color:#D7D5D5"/>
						<stop  offset="0.8313" style="stop-color:#908E8E"/>
						<stop  offset="1" style="stop-color:#717171"/>
					</linearGradient>
					
						<path fill-rule="evenodd" clip-rule="evenodd" fill="url(#SVGID_1_)" stroke="#FFFFFF" stroke-width="5" stroke-miterlimit="10" d="
						M103.943,54.083c-0.789,0-1.577,0-2.366,0c-0.06,0.237-0.119,0.473-0.182,0.709c0.063,0.032,0.301-0.236,0.444-0.242
						c0.875-0.031-0.316,1.456-0.586,1.871c-0.186,0.286-0.382,0.588-0.584,0.896c-0.416,1.347-0.871,2.68-1.358,3.988
						c0.188-0.272,0.382-0.543,0.54-0.792C101.293,58.247,102.701,56.222,103.943,54.083z"/>
					<linearGradient id="SVGID_2_" gradientUnits="userSpaceOnUse" x1="13.292" y1="55.3008" x2="20.1987" y2="59.4508">
						<stop  offset="0" style="stop-color:#717171"/>
						<stop  offset="0.0492" style="stop-color:#7B7A7A"/>
						<stop  offset="0.1405" style="stop-color:#969494"/>
						<stop  offset="0.2629" style="stop-color:#CAC8C8"/>
						<stop  offset="0.3455" style="stop-color:#FFFFFF"/>
						<stop  offset="0.4992" style="stop-color:#D7D5D5"/>
						<stop  offset="0.8313" style="stop-color:#908E8E"/>
						<stop  offset="1" style="stop-color:#717171"/>
					</linearGradient>
					
						<path fill-rule="evenodd" clip-rule="evenodd" fill="url(#SVGID_2_)" stroke="#FFFFFF" stroke-width="5" stroke-miterlimit="10" d="
						M17.246,56.938c-0.38-0.724-0.725-1.445-1-2.153c0.121,0,0.242,0,0.364,0c-0.069-0.242-0.136-0.479-0.197-0.702
						c-0.796,0-1.592,0-2.388,0c1.529,2.621,3.197,5.102,4.809,7.639C18.211,59.979,17.683,58.363,17.246,56.938z"/>
					<linearGradient id="SVGID_3_" gradientUnits="userSpaceOnUse" x1="93.8711" y1="71.0425" x2="112.5178" y2="82.2466">
						<stop  offset="0" style="stop-color:#717171"/>
						<stop  offset="0.0492" style="stop-color:#7B7A7A"/>
						<stop  offset="0.1405" style="stop-color:#969494"/>
						<stop  offset="0.2629" style="stop-color:#CAC8C8"/>
						<stop  offset="0.3455" style="stop-color:#FFFFFF"/>
						<stop  offset="0.4992" style="stop-color:#D7D5D5"/>
						<stop  offset="0.8313" style="stop-color:#908E8E"/>
						<stop  offset="1" style="stop-color:#717171"/>
					</linearGradient>
					
						<path fill-rule="evenodd" clip-rule="evenodd" fill="url(#SVGID_3_)" stroke="#FFFFFF" stroke-width="5" stroke-miterlimit="10" d="
						M105.348,78.989c-1.186-1.446-2.645-3.426-3.859-4.911c-0.506-0.617-1.174-1.064-1.402-1.637
						c-0.256-0.633-0.23-1.612-0.352-2.455c-0.273-1.895-0.541-3.046-0.818-4.794c-0.094-0.594-0.293-1.375-0.348-1.969
						c-0.242,0.606-0.49,1.207-0.742,1.8c0.282,1.728,0.56,3.416,0.855,5.196c0.143,0.859,0.084,1.823,0.352,2.573
						c0.322,0.91,1.379,1.684,2.104,2.572c1.494,1.826,2.725,3.391,4.211,5.145c0.738,0.872,1.424,1.771,1.986,2.689
						c-5.189-1.682-10.485-3.256-16.124-4.487c-0.223,0.313-0.452,0.637-0.681,0.964c7.082,1.526,13.574,3.643,20.08,5.745
						C109.271,83.406,107.23,81.287,105.348,78.989z"/>
					<linearGradient id="SVGID_4_" gradientUnits="userSpaceOnUse" x1="12.8062" y1="73.9253" x2="24.912" y2="81.1992">
						<stop  offset="0" style="stop-color:#717171"/>
						<stop  offset="0.0492" style="stop-color:#7B7A7A"/>
						<stop  offset="0.1405" style="stop-color:#969494"/>
						<stop  offset="0.2629" style="stop-color:#CAC8C8"/>
						<stop  offset="0.3455" style="stop-color:#FFFFFF"/>
						<stop  offset="0.4992" style="stop-color:#D7D5D5"/>
						<stop  offset="0.8313" style="stop-color:#908E8E"/>
						<stop  offset="1" style="stop-color:#717171"/>
					</linearGradient>
					
						<path fill-rule="evenodd" clip-rule="evenodd" fill="url(#SVGID_4_)" stroke="#FFFFFF" stroke-width="5" stroke-miterlimit="10" d="
						M25.102,79.097c-5.024,1.166-9.799,2.58-14.468,4.102c0.532-0.983,1.272-1.83,1.988-2.689c2.045-2.457,4.232-5.021,6.314-7.601
						c0.371-2.62,0.731-5.252,1.164-7.811c-0.271-0.688-0.529-1.362-0.774-2.024c-0.227,1.45-0.53,2.848-0.74,4.223
						c-0.257,1.672-0.2,3.428-0.702,4.911c-0.386,1.143-1.661,2.182-2.572,3.273c-2.808,3.365-5.467,6.735-7.952,9.939
						c5.889-1.951,11.873-3.843,18.187-5.277L25.102,79.097z"/>
				</g>
				<path fill-rule="evenodd" clip-rule="evenodd" fill="#0F0F0F" d="M105.763,19.464c0,2.806,0,5.612,0,8.419
					c-0.217,7.066-1.685,13.438-2.923,20.346c-0.39,2.17-0.999,4.204-1.521,6.314c-4.152,16.8-12.918,29.422-23.035,40.458
					c-3.052,3.329-19.06,15.902-19.06,15.902S43.402,98.823,40.048,95.469c-1.117-1.117-2.258-2.339-3.274-3.508
					c-4.219-4.856-8.029-10.219-11.342-15.786c-0.132-0.221-0.148-0.137-0.234-0.351c-0.259-0.643-0.649-1.113-0.936-1.637
					c-4.456-8.145-7.718-17.104-9.471-27.479c-1.038-4.468-2.17-10.262-2.456-15.435c-0.324-5.859-0.37-12.039,0.584-17.306
					c9.648-2.355,19.308-5.774,28.297-9.471c1.278-0.526,3.424-1.577,3.859-1.637c0.434-0.06,4.644,0,6.898,0
					c4.843,0,9.106,0,13.915,0c2.339,0,7.016,0,7.016,0s2.458,1.121,3.742,1.637c1.352,0.543,2.714,1.151,3.858,1.637
					c7.441,3.158,24.556,7.951,24.556,7.951S105.569,17.63,105.763,19.464z M52.326,94.417c0.039,0,0.078,0,0.117,0
					c0.765-2.041,2.573-5.846,2.573-5.846l8.068,0.116c0,0,2.184,4.859,2.572,5.613c0.389,0.753,11.343-10.758,11.343-10.758
					l-1.871-4.678l4.326-5.145c0,0,3.43,2.289,3.976,2.572c11.93-12.035,14.617-46.539,14.617-46.539l-4.911,1.052l-3.976-7.366
					l3.156-4.327l-21.281-6.782H46.947L25.548,19.23l3.157,4.443l-4.093,7.132c0,0-3.771-0.948-4.794-1.052
					c0.24,6.037,1.006,12.046,2.222,17.423c0.53,2.344,1.403,6.899,1.403,6.899l1.637,4.561c0,0,2.889,8.073,5.145,11.692
					c1.296,2.079,2.627,4.087,4.093,5.964c2.216-0.852,5.145-2.222,5.145-2.222l3.157,4.794c0,0-1.628,3.413-1.754,4.911
					C43.968,87.965,52.337,94.558,52.326,94.417z M65.539,94.534C65.615,94.61,65.489,94.485,65.539,94.534L65.539,94.534z"/>
			</g>
			<g>
				<linearGradient id="SVGID_5_" gradientUnits="userSpaceOnUse" x1="27.0273" y1="4.8218" x2="93.517" y2="78.666">
					<stop  offset="0" style="stop-color:#1D582C"/>
					<stop  offset="0.0909" style="stop-color:#215D2E"/>
					<stop  offset="0.2052" style="stop-color:#2D6A32"/>
					<stop  offset="0.3319" style="stop-color:#408239"/>
					<stop  offset="0.4668" style="stop-color:#5CA641"/>
					<stop  offset="0.5212" style="stop-color:#6ABD45"/>
					<stop  offset="0.5232" style="stop-color:#69BB45"/>
					<stop  offset="0.6163" style="stop-color:#4D923D"/>
					<stop  offset="0.7107" style="stop-color:#377736"/>
					<stop  offset="0.8056" style="stop-color:#296531"/>
					<stop  offset="0.9016" style="stop-color:#205B2D"/>
					<stop  offset="1" style="stop-color:#1D582C"/>
				</linearGradient>
				<path fill-rule="evenodd" clip-rule="evenodd" fill="url(#SVGID_5_)" d="M103.66,20.911c0,2.68,0,5.36,0,8.041
					c-0.208,6.749-1.609,12.835-2.792,19.432c-0.372,2.073-0.954,4.016-1.452,6.031c-3.966,16.045-12.338,28.1-22.001,38.641
					c-2.914,3.179-18.203,15.188-18.203,15.188S44.1,96.705,40.896,93.501c-1.067-1.067-2.157-2.234-3.127-3.351
					c-4.03-4.638-7.668-9.76-10.833-15.076c-0.125-0.212-0.141-0.132-0.223-0.335c-0.248-0.613-0.619-1.063-0.893-1.564
					c-4.256-7.778-7.371-16.336-9.046-26.244c-0.991-4.268-2.072-9.801-2.345-14.742c-0.309-5.596-0.353-11.498,0.559-16.528
					c9.215-2.25,18.441-5.515,27.026-9.046c1.221-0.502,3.27-1.506,3.685-1.563c0.415-0.058,4.436,0,6.589,0
					c4.625,0,8.698,0,13.29,0c2.234,0,6.701,0,6.701,0s2.347,1.07,3.573,1.563c1.291,0.519,2.593,1.1,3.686,1.563
					c7.107,3.016,23.452,7.594,23.452,7.594S103.476,19.159,103.66,20.911z M52.623,92.496c0.037,0,0.074,0,0.111,0
					c0.73-1.949,2.457-5.583,2.457-5.583l7.706,0.111c0,0,2.085,4.642,2.457,5.36c0.371,0.72,10.832-10.274,10.832-10.274
					L74.4,77.643l4.132-4.914c0,0,3.274,2.187,3.797,2.457c11.395-11.494,13.96-44.448,13.96-44.448l-4.69,1.005l-3.797-7.036
					l3.015-4.132l-20.325-6.477H47.486l-20.438,6.589l3.016,4.244l-3.909,6.813c0,0-3.602-0.905-4.579-1.005
					c0.229,5.766,0.96,11.505,2.122,16.64c0.506,2.238,1.34,6.589,1.34,6.589l1.564,4.355c0,0,2.758,7.711,4.914,11.168
					c1.238,1.984,2.51,3.902,3.909,5.695c2.116-0.813,4.914-2.122,4.914-2.122l3.015,4.579c0,0-1.555,3.26-1.675,4.69
					C44.641,86.334,52.634,92.631,52.623,92.496z M65.242,92.608C65.315,92.681,65.195,92.561,65.242,92.608L65.242,92.608z"/>
			</g>
			<g>
				<linearGradient id="SVGID_6_" gradientUnits="userSpaceOnUse" x1="25.7422" y1="9.0132" x2="92.1315" y2="75.4025">
					<stop  offset="0" style="stop-color:#9D6627"/>
					<stop  offset="0.1975" style="stop-color:#BF7B26"/>
					<stop  offset="0.3949" style="stop-color:#DB8D22"/>
					<stop  offset="0.5748" style="stop-color:#EF9A1E"/>
					<stop  offset="0.7212" style="stop-color:#F9A01B"/>
					<stop  offset="0.8531" style="stop-color:#F59E1C"/>
					<stop  offset="0.9006" style="stop-color:#EA971F"/>
					<stop  offset="0.9345" style="stop-color:#DB8D22"/>
					<stop  offset="0.9619" style="stop-color:#C88125"/>
					<stop  offset="0.985" style="stop-color:#B07227"/>
					<stop  offset="1" style="stop-color:#9D6627"/>
				</linearGradient>
				<path fill-rule="evenodd" clip-rule="evenodd" fill="url(#SVGID_6_)" d="M101.403,22.534c0,2.545,0,5.09,0,7.635
					c-0.197,6.408-1.528,12.188-2.651,18.451c-0.354,1.968-0.905,3.813-1.379,5.727c-3.766,15.235-11.715,26.682-20.89,36.69
					c-2.768,3.019-17.285,14.422-17.285,14.422S44.849,94.502,41.808,91.461c-1.013-1.014-2.048-2.121-2.969-3.183
					c-3.826-4.403-7.282-9.267-10.286-14.315c-0.12-0.2-0.134-0.124-0.212-0.317c-0.235-0.582-0.588-1.009-0.849-1.484
					c-4.041-7.387-6.999-15.512-8.589-24.92c-0.941-4.052-1.968-9.307-2.227-13.997c-0.293-5.313-0.335-10.918,0.53-15.694
					c8.75-2.136,17.51-5.236,25.663-8.59c1.159-0.477,3.105-1.43,3.5-1.484c0.394-0.054,4.211,0,6.256,0c4.392,0,8.258,0,12.62,0
					c2.121,0,6.362,0,6.362,0s2.229,1.016,3.394,1.484c1.226,0.493,2.461,1.044,3.499,1.485c6.748,2.864,22.269,7.211,22.269,7.211
					S101.229,20.871,101.403,22.534z M52.942,90.506c0.035,0,0.071,0,0.106,0c0.693-1.852,2.333-5.303,2.333-5.303l7.316,0.106
					c0,0,1.98,4.407,2.333,5.091c0.353,0.683,10.286-9.757,10.286-9.757l-1.696-4.241l3.924-4.666c0,0,3.109,2.076,3.605,2.333
					c10.818-10.914,13.255-42.205,13.255-42.205L89.95,32.82l-3.605-6.681l2.863-3.924l-19.299-6.15H48.064l-19.406,6.256
					l2.863,4.03L27.81,32.82c0,0-3.42-0.86-4.348-0.955c0.217,5.475,0.912,10.924,2.015,15.8c0.481,2.125,1.272,6.256,1.272,6.256
					l1.484,4.135c0,0,2.62,7.322,4.666,10.604c1.175,1.886,2.383,3.706,3.711,5.408c2.01-0.772,4.666-2.015,4.666-2.015l2.863,4.348
					c0,0-1.477,3.095-1.591,4.454C45.363,84.656,52.953,90.634,52.942,90.506z M64.925,90.612
					C64.994,90.682,64.88,90.568,64.925,90.612L64.925,90.612z"/>
			</g>
			<g>
				<g>
					<linearGradient id="SVGID_7_" gradientUnits="userSpaceOnUse" x1="58.8271" y1="89.3384" x2="58.8271" y2="17.104">
						<stop  offset="0.4909" style="stop-color:#111111"/>
						<stop  offset="0.552" style="stop-color:#181919"/>
						<stop  offset="0.6606" style="stop-color:#292929"/>
						<stop  offset="0.7879" style="stop-color:#3D3D3D"/>
						<stop  offset="0.8048" style="stop-color:#393939"/>
						<stop  offset="0.9364" style="stop-color:#1F1F1F"/>
						<stop  offset="1" style="stop-color:#111111"/>
					</linearGradient>
					<path fill-rule="evenodd" clip-rule="evenodd" fill="url(#SVGID_7_)" d="M49.252,17.172c1.051,0,2.102,0,3.153,0
						c0,0.039,0,0.078,0,0.117c2.972,0,5.826,0,8.642,0c2.834,0,5.825-0.418,8.523,0c1.455,0.225,3.122,1.014,4.672,1.518
						c4.524,1.471,9.555,3.075,14.13,4.438c-0.271,1.12-2.852,2.562-2.804,3.97c0.017,0.471,1.439,2.438,1.752,3.036
						c0.614,1.176,1.031,2.086,1.519,3.153c1.541-0.288,2.95-0.708,4.554-0.934c0,0.272,0,0.545,0,0.817
						c-1.392,16.358-4.876,30.624-13.195,40.054c-1.199-0.747-2.18-1.713-3.503-2.336c-0.666,0.633-1.17,1.326-1.869,2.22
						c-0.393,0.503-1.614,1.724-1.635,2.452c-0.034,1.271,1.628,2.686,1.519,3.97c-0.058,0.671-1.529,2.286-2.102,2.92
						c-2.373,2.623-5.243,5.09-8.058,6.655c-0.805-1.646-1.31-3.594-2.219-5.138c-2.375,0-4.749,0-7.124,0
						c-0.863,1.628-1.474,3.509-2.219,5.255c-3.986-2.67-7.658-5.653-10.159-9.809c0.183-1.524,1.639-2.629,1.518-3.971
						c-0.073-0.809-1.274-1.704-1.751-2.335c-0.679-0.897-4.039-0.497-5.372,0.116c-7.981-9.42-11.671-23.482-12.962-39.236
						c0-0.545,0-1.09,0-1.635c1.51,0.17,3.126,0.836,4.438,0.817c0.875-2.356,1.838-4.623,3.503-6.189
						c-1.015-1.321-2.478-2.815-3.153-4.087c3.29-0.989,6.696-2.015,10.393-3.153C42.736,18.844,45.493,17.524,49.252,17.172z"/>
				</g>
			</g>
			<g>
				<linearGradient id="SVGID_8_" gradientUnits="userSpaceOnUse" x1="16.8047" y1="22.3228" x2="90.7985" y2="68.5592">
					<stop  offset="0" style="stop-color:#717171"/>
					<stop  offset="0.0751" style="stop-color:#7B7A7A"/>
					<stop  offset="0.2145" style="stop-color:#969494"/>
					<stop  offset="0.4013" style="stop-color:#CAC8C8"/>
					<stop  offset="0.5273" style="stop-color:#FFFFFF"/>
					<stop  offset="0.6383" style="stop-color:#D7D5D5"/>
					<stop  offset="0.8781" style="stop-color:#908E8E"/>
					<stop  offset="1" style="stop-color:#717171"/>
				</linearGradient>
				<path fill-rule="evenodd" clip-rule="evenodd" fill="url(#SVGID_8_)" d="M99.482,23.804c0,2.437,0,4.874,0,7.311
					c-0.188,6.136-1.463,11.67-2.538,17.667c-0.338,1.885-0.867,3.651-1.32,5.483c-3.605,14.588-11.218,25.549-20.003,35.132
					c-2.649,2.891-16.551,13.809-16.551,13.809s-13.739-10.49-16.652-13.402c-0.97-0.971-1.96-2.031-2.843-3.047
					c-3.664-4.217-6.972-8.873-9.849-13.707c-0.114-0.191-0.128-0.119-0.203-0.305c-0.225-0.558-0.563-0.966-0.813-1.421
					c-3.869-7.073-6.701-14.853-8.225-23.861c-0.901-3.88-1.884-8.912-2.132-13.403c-0.281-5.088-0.321-10.454,0.507-15.027
					c8.378-2.045,16.767-5.014,24.572-8.225c1.11-0.457,2.974-1.37,3.351-1.421c0.377-0.052,4.033,0,5.99,0
					c4.206,0,7.907,0,12.083,0c2.032,0,6.093,0,6.093,0s2.134,0.973,3.249,1.421c1.173,0.472,2.356,1,3.351,1.421
					c6.462,2.743,21.322,6.904,21.322,6.904S99.314,22.211,99.482,23.804z M53.08,88.889c0.034,0,0.068,0,0.102,0
					c0.664-1.773,2.234-5.077,2.234-5.077l7.006,0.102c0,0,1.896,4.22,2.233,4.874s9.849-9.342,9.849-9.342l-1.624-4.062
					l3.757-4.467c0,0,2.978,1.987,3.452,2.233C90.448,62.7,92.781,32.739,92.781,32.739l-4.265,0.914l-3.452-6.396l2.741-3.757
					L69.326,17.61H48.409l-18.581,5.991l2.741,3.859l-3.554,6.193c0,0-3.274-0.823-4.163-0.914c0.208,5.242,0.874,10.46,1.93,15.129
					C27.242,49.903,28,53.859,28,53.859l1.421,3.96c0,0,2.508,7.011,4.468,10.154c1.125,1.805,2.282,3.548,3.554,5.178
					c1.924-0.739,4.468-1.929,4.468-1.929l2.741,4.162c0,0-1.414,2.964-1.523,4.265C45.823,83.288,53.09,89.012,53.08,88.889z
					 M64.554,88.991C64.62,89.057,64.511,88.948,64.554,88.991L64.554,88.991z"/>
			</g>
		</g>
		<g>
			<g>
				<linearGradient id="SVGID_9_" gradientUnits="userSpaceOnUse" x1="58.9834" y1="84.2749" x2="58.9834" y2="54.2329">
					<stop  offset="0.5394" style="stop-color:#111111"/>
					<stop  offset="0.5799" style="stop-color:#161616"/>
					<stop  offset="0.6399" style="stop-color:#222222"/>
					<stop  offset="0.7119" style="stop-color:#323232"/>
					<stop  offset="0.7576" style="stop-color:#3D3D3D"/>
					<stop  offset="0.7709" style="stop-color:#383838"/>
					<stop  offset="0.8224" style="stop-color:#292A2A"/>
					<stop  offset="0.8719" style="stop-color:#1D1D1E"/>
					<stop  offset="0.918" style="stop-color:#141415"/>
					<stop  offset="0.9576" style="stop-color:#111111"/>
				</linearGradient>
				<path fill-rule="evenodd" clip-rule="evenodd" fill="url(#SVGID_9_)" d="M15.914,54.252c28.882,0.078,58.076-0.156,86.763,0.117
					c0.156,1.014,0.003,1.719-1.169,1.403c-1.251,2.296-2.738,4.356-4.093,6.548c0.374,1.796,0.546,3.563,0.818,5.262
					c0.275,1.721,0.289,3.618,0.818,5.145c0.308,0.886,1.367,1.766,2.104,2.689c1.469,1.841,2.767,3.359,4.21,5.146
					c0.714,0.884,1.617,1.617,1.987,2.689c-8.501-3.036-27.72-6.636-28.063-6.548c-0.343,0.086-3.222,3.56-5.027,5.145
					c-1.64,0.246-3.806-0.324-5.612,0c-1.242,0.223-2.446,1.211-3.859,1.637c-4.97,1.495-11.097,0.823-15.318-1.637
					c-2.119-0.313-4.004,0.429-5.613,0c-0.997-0.266-1.881-1.817-2.572-2.572c-0.929-1.016-1.816-1.826-2.573-2.572
					c-10.316,1.181-27.244,6.869-27.946,6.548c-1.307-0.205,6.036-7.94,8.185-10.407c0.465-3.55,0.989-7.04,1.637-10.407
					c-1.629-2.268-2.708-5.087-4.794-6.898c0.051-0.402-0.046-0.655-0.117-0.936C15.781,54.509,15.75,54.283,15.914,54.252z
					 M20.357,56.474c-0.411-0.798-1.658-0.759-2.923-0.702c0.317,1.032,1.084,1.96,1.754,3.041c0.615,0.991,1.736,2.285,1.871,3.273
					c0.223,1.632-0.592,3.826-0.818,5.379c-0.243,1.664-0.19,4.049-0.702,5.496c-0.243,0.686-1.22,1.557-1.871,2.339
					c-1.701,2.041-3.29,3.901-4.794,5.729c-0.22,0.268-0.833,0.608-0.585,1.053c12.662-4.912,28.966-7.016,46.655-7.016
					c8.862,0,17.469,0.146,25.257,1.521c7.855,1.387,14.969,3.136,21.398,5.495c0.302-0.434-0.385-0.806-0.584-1.053
					c-0.993-1.225-6.181-7.006-6.665-8.418c-0.494-1.44-0.584-3.549-0.819-5.146c-0.188-1.273-0.898-4.111-0.701-5.262
					c0.168-0.976,1.378-2.203,1.988-3.157c0.716-1.12,1.424-2.136,1.987-3.274c-26.934,0.078-54.177-0.156-80.916,0.117
					c1.166,0.99,2.904,0.585,4.327,0.585c24.683,0,50.111-0.243,74.719-0.117c-1.102,1.9-2.393,3.61-3.509,5.496
					c0.575,3.009,1.126,6.14,1.638,9.004c0.186,1.042,0.133,2.309,0.467,3.156c0.384,0.974,1.451,1.771,2.105,2.573
					c0.729,0.896,1.407,1.724,1.871,2.572c-0.419,0.224-32.93-9.464-85.126-0.117c0.106-0.228,2.261-3.3,3.976-5.379
					c0.615-1.775,0.607-4.008,0.936-5.963c0.341-2.034,0.701-3.967,1.052-5.964c-1.003-1.725-2.397-3.683-3.04-5.379
					C19.443,56.539,20.371,56.528,20.357,56.474z M16.382,79.042c0.838-1.916,2.67-3.499,3.976-5.379 M16.382,79.042
					c0.838-1.916,2.319-3.616,3.976-5.379"/>
			</g>
			<linearGradient id="SVGID_10_" gradientUnits="userSpaceOnUse" x1="39.2358" y1="79.0103" x2="78.5928" y2="79.0103">
				<stop  offset="0" style="stop-color:#6ABD45"/>
				<stop  offset="0.0666" style="stop-color:#5FAB42"/>
				<stop  offset="0.5333" style="stop-color:#1D582C"/>
				<stop  offset="0.6152" style="stop-color:#24602F"/>
				<stop  offset="0.7548" style="stop-color:#367837"/>
				<stop  offset="0.9339" style="stop-color:#55A442"/>
				<stop  offset="1" style="stop-color:#63BC46"/>
			</linearGradient>
			<path fill="url(#SVGID_10_)" d="M41.171,75.19c0.8,1.056,3.274,4.326,3.274,4.326l5.379-0.117c0,0,1.037,0.604,1.52,0.818
				c0.642,0.285,1.477,0.472,2.222,0.702c1.649,0.508,3.953,1.121,6.197,1.052c2.255-0.068,4.579-0.951,6.548-1.754
				c0.612-0.249,1.871-0.818,1.871-0.818l4.795,0.234l3.624-3.742l1.988,0.351l-4.443,4.794h-5.729c0,0-1.945,0.791-2.339,0.936
				c-1.527,0.563-6.584,3.003-14.967-0.233c-0.538-0.235-1.637-0.702-1.637-0.702h-5.379c0,0-1.973-1.855-2.456-2.339
				c-0.905-0.904-2.338-2.455-2.338-2.455S38.699,73.496,41.171,75.19z M72.977,79.633c0,0,1.443-1.435,3.624-3.742
				s1.988,0.351,1.988,0.351"/>
			<linearGradient id="SVGID_11_" gradientUnits="userSpaceOnUse" x1="18.1099" y1="47.2183" x2="102.9092" y2="98.1708">
				<stop  offset="0" style="stop-color:#717171"/>
				<stop  offset="0.0492" style="stop-color:#7B7A7A"/>
				<stop  offset="0.1405" style="stop-color:#969494"/>
				<stop  offset="0.2629" style="stop-color:#CAC8C8"/>
				<stop  offset="0.3455" style="stop-color:#FFFFFF"/>
				<stop  offset="0.4992" style="stop-color:#D7D5D5"/>
				<stop  offset="0.8313" style="stop-color:#908E8E"/>
				<stop  offset="1" style="stop-color:#717171"/>
			</linearGradient>
			<path fill-rule="evenodd" clip-rule="evenodd" fill="url(#SVGID_11_)" d="M13.984,54.083c29.974,0,59.946,0,89.92,0
				c-1.243,2.139-2.65,4.164-4.093,6.431c-0.455,0.717-1.201,1.607-1.286,2.222c-0.079,0.577,0.229,1.68,0.351,2.456
				c0.277,1.748,0.546,2.899,0.818,4.794c0.122,0.843,0.097,1.822,0.352,2.455c0.229,0.572,0.897,1.02,1.403,1.637
				c1.214,1.485,2.673,3.465,3.858,4.911c1.883,2.298,3.924,4.417,5.262,6.432c-9.662-3.122-19.261-6.309-30.87-7.483
				c-1.085,0.906-2.551,2.438-3.858,3.858c-0.513,0.558-0.753,1.137-1.286,1.286c-1.808,0.511-3.707-0.427-5.963,0
				c-0.795,0.15-1.536,0.761-2.339,1.053c-4.729,1.72-10.8,1.564-15.201-0.234c-0.603-0.246-1.242-0.705-1.871-0.818
				c-1.643-0.294-4.07,0.487-5.847,0c-0.612-0.168-2.164-1.998-2.689-2.572c-0.985-1.075-1.666-2.115-2.573-2.689
				c-2.809,0.503-5.54,0.914-8.185,1.403c-7.965,1.473-15.331,3.801-22.568,6.197c2.485-3.204,5.144-6.574,7.952-9.939
				c0.911-1.092,2.186-2.131,2.572-3.273c0.501-1.483,0.445-3.239,0.702-4.911c0.233-1.521,0.59-3.06,0.818-4.678
				C17.581,59.763,15.694,57.012,13.984,54.083z M101.215,56.421c0.269-0.415,1.46-1.902,0.585-1.871
				c-0.159,0.006-0.45,0.363-0.468,0.234c-28.376,0-56.75,0-85.126,0c0.994,2.554,2.835,5.272,4.327,7.717
				c-0.662,3.354-1.139,6.891-1.637,10.407c-2.082,2.58-4.269,5.144-6.314,7.601c-0.715,0.859-1.456,1.706-1.988,2.689
				c8.701-2.836,17.701-5.373,28.18-6.431c0.695,0.844,1.56,1.604,2.456,2.572c0.739,0.799,1.593,2.312,2.572,2.572
				c1.854,0.493,3.686-0.37,5.613,0c0.664,0.128,1.159,0.675,1.754,0.936c1.973,0.863,4.348,1.35,6.782,1.52
				c3.483,0.244,6.373-0.642,8.653-1.637c0.599-0.261,1.333-0.706,1.988-0.818c1.707-0.294,3.616,0.216,5.612,0
				c1.807-1.584,3.197-3.585,5.027-5.145c10.416,1.082,19.38,3.616,28.063,6.431c-0.563-0.919-1.249-1.817-1.987-2.689
				c-1.485-1.754-2.716-3.318-4.21-5.145c-0.726-0.889-1.781-1.662-2.104-2.572c-0.267-0.75-0.208-1.714-0.351-2.573
				c-0.444-2.67-0.846-5.126-1.286-7.834C98.292,60.853,99.982,58.324,101.215,56.421z"/>
			<g>
				<linearGradient id="SVGID_12_" gradientUnits="userSpaceOnUse" x1="17.0073" y1="54.29" x2="104.6951" y2="86.2058">
					<stop  offset="0" style="stop-color:#9D6627"/>
					<stop  offset="0.289" style="stop-color:#CF8F24"/>
					<stop  offset="0.5152" style="stop-color:#FDB515"/>
					<stop  offset="0.7593" style="stop-color:#C98A25"/>
					<stop  offset="1" style="stop-color:#9D6627"/>
				</linearGradient>
				<path fill-rule="evenodd" clip-rule="evenodd" fill="url(#SVGID_12_)" d="M16.732,55.044c24.789,0,49.579,0,74.368,0
					c3.196,0.273,6.898,0.04,10.29,0.117c-1.44,2.497-3.078,4.795-4.561,7.25c0.506,2.665,0.875,5.154,1.286,7.835
					c0.13,0.846,0.087,1.891,0.351,2.572c0.234,0.604,1.373,1.849,1.871,2.455c1.85,2.256,3.975,4.719,5.729,6.899
					c0.039,0.109,0.179,0.263-0.351,0.117c0-0.039-7.012-2.311-10.641-3.274c-3.556-0.944-7.303-1.581-11.226-2.222
					c-7.876-1.286-16.323-1.637-25.14-1.637c-17.485,0-33.811,2.315-46.539,7.133c-0.166,0.01-0.331,0.019-0.351-0.117
					c1.879-2.058,7.601-9.238,7.601-9.238s0.216-1.88,0.351-2.806c0.379-2.6,0.842-5.271,1.287-8.068
					C19.549,59.789,18.122,57.436,16.732,55.044z M72.977,56.564c-11.948,0-23.991,0-35.781,0c-5.997,0-11.909-0.189-17.773,0.233
					c0.424,0.75,0.984,1.547,1.52,2.456c0.399,0.677,1.316,1.974,1.403,2.689c0.095,0.78-0.295,1.863-0.468,2.924
					c-0.339,2.074-0.619,4.024-0.936,5.963c-0.172,1.054-0.468,3.04-0.468,3.04s-3.96,4.977-3.625,5.146
					c4.547-1.227,9.696-2.534,14.499-3.391c5.16-0.921,10.667-1.514,16.137-1.755c3.806-0.167,7.642-0.407,11.576-0.468
					c7.705-0.117,15.354,0.501,22.567,1.286c7.15,0.78,13.792,2.568,19.527,4.444c0.451-0.103-0.085-0.539-0.116-0.585
					c-0.513-0.736-1.078-1.182-1.638-1.871c-0.584-0.721-1.691-1.856-1.987-2.689c-0.294-0.826-0.294-1.977-0.468-3.04
					c-0.341-2.084-0.703-3.821-1.053-5.964c-0.181-1.108-0.587-2.425-0.468-3.156c0.145-0.886,1.283-1.966,1.754-2.689
					c0.309-0.476,0.528-0.969,0.818-1.403c0.267-0.399,1.009-1.011,0.585-1.287C90.115,56.546,81.633,56.564,72.977,56.564z"/>
			</g>
		</g>
		<g>
			<polygon fill="#FFFFFF" points="50.898,76.169 50.46,76.169 50.46,78.744 51.552,78.744 51.552,78.308 50.898,78.308 			"/>
			<polygon fill="#FFFFFF" points="53.517,78.744 54.655,78.744 54.655,78.304 53.955,78.304 53.955,77.675 54.466,77.675 
				54.466,77.236 53.955,77.236 53.955,76.607 54.655,76.607 54.655,76.167 53.517,76.167 			"/>
			<path fill="#FFFFFF" d="M57.623,76.169h-0.571l-0.438,2.574h0.455l0.092-0.578h0.346l0.089,0.578h0.458l-0.428-2.55
				L57.623,76.169z M57.442,77.738h-0.214l0.107-0.755L57.442,77.738z"/>
			<path fill="#FFFFFF" d="M60.645,76.141c-0.174,0-0.323,0.063-0.446,0.185s-0.186,0.272-0.186,0.447v1.373
				c0,0.172,0.063,0.322,0.185,0.444c0.122,0.123,0.272,0.186,0.447,0.186c0.172,0,0.321-0.062,0.444-0.183
				c0.123-0.122,0.185-0.272,0.185-0.447v-0.908h-0.662v0.439h0.211v0.466c0,0.053-0.019,0.096-0.056,0.132
				c-0.038,0.037-0.081,0.055-0.134,0.055c-0.054,0-0.097-0.018-0.134-0.055c-0.036-0.036-0.055-0.08-0.055-0.133v-1.377
				c0-0.053,0.019-0.097,0.055-0.135c0.037-0.037,0.08-0.055,0.134-0.055c0.052,0,0.096,0.018,0.134,0.055
				c0.037,0.038,0.056,0.082,0.056,0.135v0.324h0.451v-0.316c0-0.174-0.061-0.323-0.183-0.446
				C60.97,76.204,60.819,76.141,60.645,76.141z"/>
			<path fill="#FFFFFF" d="M64.109,78.14c0,0.053-0.018,0.097-0.055,0.133c-0.037,0.037-0.08,0.055-0.133,0.055
				s-0.097-0.018-0.135-0.055c-0.037-0.037-0.055-0.08-0.055-0.133v-1.971h-0.431v1.975c0,0.174,0.062,0.323,0.184,0.444
				c0.121,0.122,0.271,0.184,0.446,0.184c0.173,0,0.323-0.061,0.446-0.182c0.123-0.119,0.186-0.27,0.186-0.446v-1.975h-0.454V78.14z
				"/>
			<polygon fill="#FFFFFF" points="67.742,76.607 67.742,76.167 66.604,76.167 66.604,78.744 67.742,78.744 67.742,78.304 
				67.041,78.304 67.041,77.675 67.554,77.675 67.554,77.236 67.041,77.236 67.041,76.607 			"/>
		</g>
		<linearGradient id="SVGID_13_" gradientUnits="userSpaceOnUse" x1="47.5288" y1="26.0386" x2="69.0379" y2="56.7568">
			<stop  offset="0.1879" style="stop-color:#D4D4D4"/>
			<stop  offset="0.5152" style="stop-color:#FBFCFC"/>
			<stop  offset="0.6258" style="stop-color:#ECEBEB"/>
			<stop  offset="0.8336" style="stop-color:#CACAC9"/>
			<stop  offset="0.8424" style="stop-color:#C8C8C8"/>
		</linearGradient>
		<path fill-rule="evenodd" clip-rule="evenodd" fill="url(#SVGID_13_)" d="M81.108,43.494v4.81H66.01v-3.193h1.283L67.279,33.34
			h-1.256v-3.38h6.013v3.354h-1.243v11.771h6.868v-1.59H81.108z M66.242,37.494h-7.468v-0.815h-3.356v4.772h3.443v-0.747h4.353
			v4.374c0,0-9.056,0.011-9.331,0c-0.275-0.011-1.903-0.334-2.419-1.653v-8.598c0,0,0.413-1.387,1.875-1.596h9.88v1.945h3.026
			v-1.029h-1.169l-0.018-4.221c0,0-13.462,0-14.331,0c-0.963-0.032-1.829,0.515-2.05,1.36c0,0.41,0,3.347,0,3.347h-1.055v9.861
			h1.127c0,0,0.015,1.973,0,2.345c0.202,1.18,1.806,1.557,2.121,1.51s14.207,0,14.207,0v-4.338h1.164V37.494z M41.45,33.674h1.398
			v11.783H41.45v2.979h6.13v-3.008h-1.235V33.655h1.274v-3.353H41.44L41.45,33.674z"/>
		<g>
			<linearGradient id="SVGID_14_" gradientUnits="userSpaceOnUse" x1="25.7666" y1="58.0786" x2="88.5293" y2="58.0786">
				<stop  offset="0" style="stop-color:#1D582C"/>
				<stop  offset="0.0909" style="stop-color:#215D2E"/>
				<stop  offset="0.2052" style="stop-color:#2D6A32"/>
				<stop  offset="0.3319" style="stop-color:#408239"/>
				<stop  offset="0.4668" style="stop-color:#5CA641"/>
				<stop  offset="0.5212" style="stop-color:#6ABD45"/>
				<stop  offset="0.5232" style="stop-color:#69BB45"/>
				<stop  offset="0.6163" style="stop-color:#4D923D"/>
				<stop  offset="0.7107" style="stop-color:#377736"/>
				<stop  offset="0.8056" style="stop-color:#296531"/>
				<stop  offset="0.9016" style="stop-color:#205B2D"/>
				<stop  offset="1" style="stop-color:#1D582C"/>
			</linearGradient>
			<path fill-rule="evenodd" clip-rule="evenodd" fill="url(#SVGID_14_)" d="M88.529,58.017
				c-16.136,0.686-34.041,0.233-50.981,0.233c-3.281,0-7.949-0.116-11.342-0.116c-0.973,0-0.107-0.09,0.467-0.117
				C37.136,57.521,49.136,57.9,59.998,57.9C69.614,57.9,79.124,57.857,88.529,58.017z"/>
			<linearGradient id="SVGID_15_" gradientUnits="userSpaceOnUse" x1="26.1294" y1="73.1587" x2="94.2588" y2="73.1587">
				<stop  offset="0" style="stop-color:#1D582C"/>
				<stop  offset="0.0909" style="stop-color:#215D2E"/>
				<stop  offset="0.2052" style="stop-color:#2D6A32"/>
				<stop  offset="0.3319" style="stop-color:#408239"/>
				<stop  offset="0.4668" style="stop-color:#5CA641"/>
				<stop  offset="0.5212" style="stop-color:#6ABD45"/>
				<stop  offset="0.5232" style="stop-color:#69BB45"/>
				<stop  offset="0.6163" style="stop-color:#4D923D"/>
				<stop  offset="0.7107" style="stop-color:#377736"/>
				<stop  offset="0.8056" style="stop-color:#296531"/>
				<stop  offset="0.9016" style="stop-color:#205B2D"/>
				<stop  offset="1" style="stop-color:#1D582C"/>
			</linearGradient>
			<path fill-rule="evenodd" clip-rule="evenodd" fill="url(#SVGID_15_)" d="M94.259,75.206c-2.512-0.31-5.124-0.763-7.834-1.17
				c-18.297-2.742-42.353-2.466-60.219,0.702c-0.431-0.188,1.085-0.349,1.52-0.468c1.68-0.458,3.62-1.082,5.729-1.403
				c7.936-1.207,17.5-1.754,26.777-1.754C72.595,71.113,84.928,72.463,94.259,75.206z"/>
		</g>
		<g>
			<linearGradient id="SVGID_16_" gradientUnits="userSpaceOnUse" x1="88.1211" y1="71.564" x2="88.1211" y2="58.9126">
				<stop  offset="0" style="stop-color:#D4D4D4"/>
				<stop  offset="0.0894" style="stop-color:#DCDCDC"/>
				<stop  offset="0.3479" style="stop-color:#F2F1F1"/>
				<stop  offset="0.5152" style="stop-color:#FBFCFC"/>
				<stop  offset="0.6477" style="stop-color:#F6F6F6"/>
				<stop  offset="0.7851" style="stop-color:#E9E8E8"/>
				<stop  offset="0.9242" style="stop-color:#D5D5D5"/>
				<stop  offset="1" style="stop-color:#C8C8C8"/>
			</linearGradient>
			<path fill-rule="evenodd" clip-rule="evenodd" fill="url(#SVGID_16_)" d="M91.584,59.829c-0.464,0.63-1.17,1.755-1.17,1.755
				s0.149,1.176,0.234,1.754c-0.368-0.001-0.859-0.08-0.859-0.08s0.021-1.928,0.001-2.171c-0.146-0.312-2.17-0.264-2.299,0.146
				c-0.128,0.409-0.089,2.08,0,3.507c0.095,1.531,0.106,3.68,0.351,4.21c0.308,0.668,1.188,0.872,1.988,0.585
				c0.595-0.71,0.233-3.04,0.233-3.04l-1.286-0.234v-1.754c0,0,1.556-0.188,1.988,0c0.112,2.383,0.555,4.435,0.701,6.782
				c-2.395,0.76-5.957-0.052-6.431-2.456c-0.265-1.342-0.145-3.217-0.234-5.028c-0.045-0.903-0.203-1.757-0.117-2.688
				C85.26,58.813,89.813,58.199,91.584,59.829z"/>
			<linearGradient id="SVGID_17_" gradientUnits="userSpaceOnUse" x1="80.0078" y1="70.5864" x2="80.0078" y2="59.478">
				<stop  offset="0" style="stop-color:#D4D4D4"/>
				<stop  offset="0.0894" style="stop-color:#DCDCDC"/>
				<stop  offset="0.3479" style="stop-color:#F2F1F1"/>
				<stop  offset="0.5152" style="stop-color:#FBFCFC"/>
				<stop  offset="0.6477" style="stop-color:#F6F6F6"/>
				<stop  offset="0.7851" style="stop-color:#E9E8E8"/>
				<stop  offset="0.9242" style="stop-color:#D5D5D5"/>
				<stop  offset="1" style="stop-color:#C8C8C8"/>
			</linearGradient>
			<polygon fill-rule="evenodd" clip-rule="evenodd" fill="url(#SVGID_17_)" points="83.048,59.478 83.633,70.586 81.061,70.236 
				78.722,63.804 78.955,69.885 76.851,69.651 76.383,59.946 78.955,59.712 81.061,65.208 80.943,59.595 			"/>
			<linearGradient id="SVGID_18_" gradientUnits="userSpaceOnUse" x1="74.5117" y1="69.5347" x2="74.5117" y2="59.9458">
				<stop  offset="0" style="stop-color:#D4D4D4"/>
				<stop  offset="0.0894" style="stop-color:#DCDCDC"/>
				<stop  offset="0.3479" style="stop-color:#F2F1F1"/>
				<stop  offset="0.5152" style="stop-color:#FBFCFC"/>
				<stop  offset="0.6477" style="stop-color:#F6F6F6"/>
				<stop  offset="0.7851" style="stop-color:#E9E8E8"/>
				<stop  offset="0.9242" style="stop-color:#D5D5D5"/>
				<stop  offset="1" style="stop-color:#C8C8C8"/>
			</linearGradient>
			<polygon fill-rule="evenodd" clip-rule="evenodd" fill="url(#SVGID_18_)" points="75.214,59.946 75.798,69.535 73.811,69.417 
				73.226,60.18 			"/>
			<linearGradient id="SVGID_19_" gradientUnits="userSpaceOnUse" x1="26.9214" y1="71.7563" x2="26.9214" y2="60.1802">
				<stop  offset="0" style="stop-color:#D4D4D4"/>
				<stop  offset="0.0894" style="stop-color:#DCDCDC"/>
				<stop  offset="0.3479" style="stop-color:#F2F1F1"/>
				<stop  offset="0.5152" style="stop-color:#FBFCFC"/>
				<stop  offset="0.6477" style="stop-color:#F6F6F6"/>
				<stop  offset="0.7851" style="stop-color:#E9E8E8"/>
				<stop  offset="0.9242" style="stop-color:#D5D5D5"/>
				<stop  offset="1" style="stop-color:#C8C8C8"/>
			</linearGradient>
			<polygon fill-rule="evenodd" clip-rule="evenodd" fill="url(#SVGID_19_)" points="28.675,60.297 27.974,71.405 25.167,71.756 
				26.454,61.7 25.869,60.18 			"/>
			<linearGradient id="SVGID_20_" gradientUnits="userSpaceOnUse" x1="33.1772" y1="71.2886" x2="33.1772" y2="60.2974">
				<stop  offset="0" style="stop-color:#D4D4D4"/>
				<stop  offset="0.0894" style="stop-color:#DCDCDC"/>
				<stop  offset="0.3479" style="stop-color:#F2F1F1"/>
				<stop  offset="0.5152" style="stop-color:#FBFCFC"/>
				<stop  offset="0.6477" style="stop-color:#F6F6F6"/>
				<stop  offset="0.7851" style="stop-color:#E9E8E8"/>
				<stop  offset="0.9242" style="stop-color:#D5D5D5"/>
				<stop  offset="1" style="stop-color:#C8C8C8"/>
			</linearGradient>
			<polygon fill-rule="evenodd" clip-rule="evenodd" fill="url(#SVGID_20_)" points="32.884,60.297 34.521,65.442 34.873,60.531 
				36.86,60.648 36.509,70.236 34.054,70.469 32.3,64.389 32.066,66.495 31.833,70.938 29.494,71.289 30.078,60.297 			"/>
			<linearGradient id="SVGID_21_" gradientUnits="userSpaceOnUse" x1="69.1328" y1="69.3003" x2="69.1328" y2="60.2974">
				<stop  offset="0" style="stop-color:#D4D4D4"/>
				<stop  offset="0.0894" style="stop-color:#DCDCDC"/>
				<stop  offset="0.3479" style="stop-color:#F2F1F1"/>
				<stop  offset="0.5152" style="stop-color:#FBFCFC"/>
				<stop  offset="0.6477" style="stop-color:#F6F6F6"/>
				<stop  offset="0.7851" style="stop-color:#E9E8E8"/>
				<stop  offset="0.9242" style="stop-color:#D5D5D5"/>
				<stop  offset="1" style="stop-color:#C8C8C8"/>
			</linearGradient>
			<polygon fill-rule="evenodd" clip-rule="evenodd" fill="url(#SVGID_21_)" points="72.057,60.297 72.642,69.3 70.887,69.184 
				70.653,64.623 70.068,69.184 68.314,69.067 67.379,64.974 67.496,68.95 65.976,68.833 65.625,60.648 67.729,60.531 
				69.017,66.143 69.718,60.414 			"/>
			<linearGradient id="SVGID_22_" gradientUnits="userSpaceOnUse" x1="40.6743" y1="70.0015" x2="40.6743" y2="60.4937">
				<stop  offset="0" style="stop-color:#D4D4D4"/>
				<stop  offset="0.0894" style="stop-color:#DCDCDC"/>
				<stop  offset="0.3479" style="stop-color:#F2F1F1"/>
				<stop  offset="0.5152" style="stop-color:#FBFCFC"/>
				<stop  offset="0.6477" style="stop-color:#F6F6F6"/>
				<stop  offset="0.7851" style="stop-color:#E9E8E8"/>
				<stop  offset="0.9242" style="stop-color:#D5D5D5"/>
				<stop  offset="1" style="stop-color:#C8C8C8"/>
			</linearGradient>
			<path fill-rule="evenodd" clip-rule="evenodd" fill="url(#SVGID_22_)" d="M43.058,69.417c-0.592,0.41-5.262,0.584-5.262,0.584
				l0.467-9.471c0,0,3.939-0.343,4.911,1.053C43.737,62.39,43.649,69.006,43.058,69.417z M40.017,68.716
				c0,0,1.167-0.002,1.403-0.234s0.349-5.847,0.117-6.08s-1.403-0.234-1.403-0.234L40.017,68.716z"/>
			<linearGradient id="SVGID_23_" gradientUnits="userSpaceOnUse" x1="63.2285" y1="68.9497" x2="63.2285" y2="60.8813">
				<stop  offset="0" style="stop-color:#D4D4D4"/>
				<stop  offset="0.0894" style="stop-color:#DCDCDC"/>
				<stop  offset="0.3479" style="stop-color:#F2F1F1"/>
				<stop  offset="0.5152" style="stop-color:#FBFCFC"/>
				<stop  offset="0.6477" style="stop-color:#F6F6F6"/>
				<stop  offset="0.7851" style="stop-color:#E9E8E8"/>
				<stop  offset="0.9242" style="stop-color:#D5D5D5"/>
				<stop  offset="1" style="stop-color:#C8C8C8"/>
			</linearGradient>
			<path fill-rule="evenodd" clip-rule="evenodd" fill="url(#SVGID_23_)" d="M65.392,68.95l-1.521-0.117l-0.117-0.818h-1.286
				l-0.116,0.818h-1.287l0.702-7.834l1.987-0.117L65.392,68.95z M62.468,66.611l0.936,0.117l-0.701-3.157L62.468,66.611z"/>
			<linearGradient id="SVGID_24_" gradientUnits="userSpaceOnUse" x1="45.2793" y1="69.4175" x2="45.2793" y2="60.8813">
				<stop  offset="0" style="stop-color:#D4D4D4"/>
				<stop  offset="0.0894" style="stop-color:#DCDCDC"/>
				<stop  offset="0.3479" style="stop-color:#F2F1F1"/>
				<stop  offset="0.5152" style="stop-color:#FBFCFC"/>
				<stop  offset="0.6477" style="stop-color:#F6F6F6"/>
				<stop  offset="0.7851" style="stop-color:#E9E8E8"/>
				<stop  offset="0.9242" style="stop-color:#D5D5D5"/>
				<stop  offset="1" style="stop-color:#C8C8C8"/>
			</linearGradient>
			<polygon fill-rule="evenodd" clip-rule="evenodd" fill="url(#SVGID_24_)" points="46.098,60.999 46.215,69.184 44.578,69.417 
				44.344,60.881 			"/>
			<linearGradient id="SVGID_25_" gradientUnits="userSpaceOnUse" x1="49.1963" y1="69.1841" x2="49.1963" y2="60.9985">
				<stop  offset="0" style="stop-color:#D4D4D4"/>
				<stop  offset="0.0894" style="stop-color:#DCDCDC"/>
				<stop  offset="0.3479" style="stop-color:#F2F1F1"/>
				<stop  offset="0.5152" style="stop-color:#FBFCFC"/>
				<stop  offset="0.6477" style="stop-color:#F6F6F6"/>
				<stop  offset="0.7851" style="stop-color:#E9E8E8"/>
				<stop  offset="0.9242" style="stop-color:#D5D5D5"/>
				<stop  offset="1" style="stop-color:#C8C8C8"/>
			</linearGradient>
			<path fill-rule="evenodd" clip-rule="evenodd" fill="url(#SVGID_25_)" d="M50.074,61.116l1.52,7.834h-1.52l-0.117-0.936
				l-1.403,0.117l-0.234,0.936l-1.52,0.117l1.169-8.186L50.074,61.116z M48.553,66.728l1.052-0.117l-0.701-3.157L48.553,66.728z"/>
			<linearGradient id="SVGID_26_" gradientUnits="userSpaceOnUse" x1="53.8735" y1="68.8325" x2="53.8735" y2="61.2329">
				<stop  offset="0" style="stop-color:#D4D4D4"/>
				<stop  offset="0.0894" style="stop-color:#DCDCDC"/>
				<stop  offset="0.3479" style="stop-color:#F2F1F1"/>
				<stop  offset="0.5152" style="stop-color:#FBFCFC"/>
				<stop  offset="0.6477" style="stop-color:#F6F6F6"/>
				<stop  offset="0.7851" style="stop-color:#E9E8E8"/>
				<stop  offset="0.9242" style="stop-color:#D5D5D5"/>
				<stop  offset="1" style="stop-color:#C8C8C8"/>
			</linearGradient>
			<path fill-rule="evenodd" clip-rule="evenodd" fill="url(#SVGID_26_)" d="M51.71,61.233c0.546,0,1.637,0,1.637,0l1.052,3.273
				l-0.117-3.157h1.169l0.584,7.483h-1.52l-1.169-4.093l0.117,4.093h-1.403C52.062,68.833,51.8,63.74,51.71,61.233z"/>
			<linearGradient id="SVGID_27_" gradientUnits="userSpaceOnUse" x1="58.7744" y1="68.8081" x2="58.7744" y2="60.9985">
				<stop  offset="0" style="stop-color:#D4D4D4"/>
				<stop  offset="0.0894" style="stop-color:#DCDCDC"/>
				<stop  offset="0.3479" style="stop-color:#F2F1F1"/>
				<stop  offset="0.5152" style="stop-color:#FBFCFC"/>
				<stop  offset="0.6477" style="stop-color:#F6F6F6"/>
				<stop  offset="0.7851" style="stop-color:#E9E8E8"/>
				<stop  offset="0.9242" style="stop-color:#D5D5D5"/>
				<stop  offset="1" style="stop-color:#C8C8C8"/>
			</linearGradient>
			<path fill="url(#SVGID_27_)" d="M57.515,68.808h2.522c0.034-0.03,0.069-0.06,0.103-0.093c0.378-0.375,0.567-0.83,0.567-1.368
				v-2.826h-1.942v1.227h0.678v1.589c0,0.193-0.069,0.357-0.206,0.492c-0.138,0.135-0.304,0.203-0.497,0.203
				c-0.194,0-0.358-0.068-0.494-0.203c-0.135-0.136-0.203-0.301-0.203-0.494v-4.426c0-0.194,0.067-0.359,0.203-0.497
				c0.136-0.138,0.3-0.206,0.494-0.206c0.193,0,0.359,0.068,0.497,0.206c0.137,0.138,0.206,0.303,0.206,0.497v0.948h1.265v-0.923
				c0-0.533-0.188-0.989-0.562-1.368c-0.374-0.378-0.83-0.567-1.368-0.567c-0.533,0-0.989,0.188-1.368,0.564
				s-0.568,0.833-0.568,1.371v4.413c0,0.529,0.188,0.983,0.565,1.361C57.442,68.744,57.478,68.776,57.515,68.808z"/>
		</g>
	</g>
</g>
</svg>
