<?xml version="1.0"?>
<svg version="1.1" xmlns="http://www.w3.org/2000/svg" xmlns:xlink="http://www.w3.org/1999/xlink" width="960" height="600">
    <desc iVinci="yes" version="4.6" gridStep="20" showGrid="yes" snapToGrid="no" codePlatform="0"/>
    <g id="Layer1" name="Layer 1" opacity="1">
        <g id="Shape1">
            <desc shapeID="1" type="0" basicInfo-basicType="0" basicInfo-roundedRectRadius="12" basicInfo-polygonSides="6" basicInfo-starPoints="5" bounding="rect(-35.8903,-19.5561,71.7805,39.112)" text="" font-familyName="" font-pixelSize="20" font-bold="0" font-underline="0" font-alignment="1" strokeStyle="0" markerStart="0" markerEnd="0" shadowEnabled="0" shadowOffsetX="0" shadowOffsetY="2" shadowBlur="4" shadowOpacity="160" blurEnabled="0" blurRadius="4" transform="matrix(1.59698,0,0,1.70144,710.913,83.6502)" pers-center="0,0" pers-size="0,0" pers-start="0,0" pers-end="0,0" locked="0" mesh="" flag=""/>
            <path id="shapePath1" d="M757.037,86.3437 C757.037,90.0297 757.085,93.7167 757.026,97.3977 C756.935,102.986 755.624,109.3 764.55,107.638 C767.724,107.044 768.279,109.885 768.226,112.745 C768.173,115.544 767.031,116.88 764.366,116.868 C756.119,116.832 747.872,116.836 739.626,116.873 C737.436,116.883 736.076,116.218 736.171,113.518 C736.266,110.864 736.278,108.01 739.466,107.723 C745.191,107.204 745.213,103.125 745.049,98.6237 C744.749,90.4257 744.747,82.2112 744.262,74.0238 C743.878,67.5499 741.722,62.318 734.343,62.3826 C726.581,62.4507 718.561,68.9076 718.485,75.356 C718.383,84.1406 718.659,92.9357 718.376,101.712 C718.232,106.127 719.472,108.104 723.737,107.491 C727.273,106.983 729.255,108.252 729.148,112.531 C729.028,117.315 726.066,116.9 723.076,116.882 C716.16,116.837 709.241,116.878 702.325,116.861 C699.992,116.856 697.181,117.477 697.232,113.497 C697.266,110.959 697.216,107.85 700.48,107.697 C706.469,107.415 706.092,103.195 705.961,98.7917 C705.709,90.3017 706.001,81.7637 705.263,73.3245 C704.711,67.0258 702.144,61.7888 694.674,62.3656 C686.676,62.9815 679.165,69.333 679.086,75.9498 C678.985,84.1661 679.29,92.3997 678.977,100.604 C678.789,105.502 679.728,108.22 685.007,107.548 C687.879,107.183 691.136,106.954 690.989,111.883 C690.844,116.706 687.995,116.984 684.461,116.916 C676.482,116.761 668.499,116.846 660.519,116.88 C658.037,116.89 655.61,117.115 655.624,113.229 C655.635,110.003 656.37,107.338 659.922,107.57 C666.477,107.995 667.044,103.983 666.873,98.4227 C666.572,88.5137 666.505,78.5735 666.902,68.6694 C667.116,63.3524 665.519,61.4281 660.628,62.1121 C657.308,62.5766 653.927,62.3469 653.617,57.605 C653.31,52.9193 656.651,52.2013 659.971,51.8133 C664.187,51.3216 668.408,50.8673 672.64,50.5662 C673.918,50.476 676.27,50.7006 676.376,51.1991 C678.675,62.1529 684.212,54.5492 687.912,53.171 C697.021,49.7716 705.685,48.4377 712.897,56.8785 C715.401,59.8083 717.035,58.1188 718.985,56.9857 C723.684,54.2565 728.656,52.2438 733.846,51.0528 C746.898,48.0583 755.9,55.1634 756.894,69.3466 C757.288,74.9834 756.958,80.6782 756.958,86.3437 C756.982,86.3437 757.01,86.3437 757.037,86.3437 Z" style="stroke:none;fill-rule:evenodd;fill:#333333;fill-opacity:1;"/>
        </g>
        <g id="Shape2">
            <desc shapeID="2" type="0" basicInfo-basicType="0" basicInfo-roundedRectRadius="12" basicInfo-polygonSides="6" basicInfo-starPoints="5" bounding="rect(-23.6145,-30.197,47.2291,60.3939)" text="" font-familyName="" font-pixelSize="20" font-bold="0" font-underline="0" font-alignment="1" strokeStyle="0" markerStart="0" markerEnd="0" shadowEnabled="0" shadowOffsetX="0" shadowOffsetY="2" shadowBlur="4" shadowOpacity="160" blurEnabled="0" blurRadius="4" transform="matrix(1.59698,0,0,1.70144,379.505,65.5356)" pers-center="0,0" pers-size="0,0" pers-start="0,0" pers-end="0,0" locked="0" mesh="" flag=""/>
            <path id="shapePath2" d="M367.17,56.5331 C374.259,54.2787 380.326,50.4539 387.43,50.4794 C399.536,50.5219 405.232,55.7759 405.773,68.6677 C406.211,79.1281 406.149,89.6247 405.933,100.095 C405.829,105.128 406.473,108.439 412.276,107.536 C415.307,107.063 417.39,108.146 417.206,112.143 C417.039,115.828 415.374,116.972 412.123,116.912 C404.681,116.773 397.236,116.897 389.792,116.849 C387.759,116.836 385.254,117.375 385.086,113.933 C384.958,111.318 384.976,108.182 388.041,107.896 C394.387,107.301 393.887,102.756 393.75,98.1227 C393.499,89.6427 393.585,81.1393 393.028,72.6814 C392.576,65.8076 388.504,62.9016 382.135,63.3303 C373.993,63.8782 367.296,68.9383 367.205,75.0141 C367.072,83.7918 367.404,92.5847 367.077,101.351 C366.896,106.178 368.364,108.007 372.898,107.546 C375.718,107.257 378.895,106.819 378.906,111.81 C378.915,116.911 375.966,116.933 372.534,116.895 C364.559,116.814 356.583,116.917 348.608,116.839 C346.394,116.815 343.541,117.681 343.475,113.54 C343.426,110.382 343.985,107.422 347.522,107.651 C355.064,108.143 355.052,103.333 354.991,97.3947 C354.771,76.1557 354.759,54.9082 355.005,33.6692 C355.068,28.2808 354.504,24.8881 348.346,25.8137 C345.447,26.2493 342.389,26.1982 341.861,21.6741 C341.303,16.9101 344.286,16.0032 347.538,15.2256 C348.055,15.1031 348.587,15.0147 349.116,14.984 C370.522,13.7675 366.912,11.1048 367.155,31.454 C367.251,39.6429 367.17,47.8336 367.17,56.5331 Z" style="stroke:none;fill-rule:evenodd;fill:#343434;fill-opacity:1;"/>
        </g>
        <g id="Shape3">
            <desc shapeID="3" type="0" basicInfo-basicType="0" basicInfo-roundedRectRadius="12" basicInfo-polygonSides="6" basicInfo-starPoints="5" bounding="rect(-27.8954,-29.1103,55.7908,58.2206)" text="" font-familyName="" font-pixelSize="20" font-bold="0" font-underline="0" font-alignment="1" strokeStyle="0" markerStart="0" markerEnd="0" shadowEnabled="0" shadowOffsetX="0" shadowOffsetY="2" shadowBlur="4" shadowOpacity="160" blurEnabled="0" blurRadius="4" transform="matrix(1.59698,0,0,1.70144,238.26,67.414)" pers-center="0,0" pers-size="0,0" pers-start="0,0" pers-end="0,0" locked="0" mesh="" flag=""/>
            <path id="shapePath3" d="M258.407,106.436 C258.407,105.586 258.58,104.963 258.382,104.539 C255.344,98.0667 255.657,87.4827 249.867,85.4524 C241.704,82.5923 232.028,84.6731 223.001,84.5574 C220.436,84.5217 220.151,86.7197 219.458,88.4007 C218.184,91.5007 217.072,94.6807 215.98,97.8627 C214.263,102.857 210.223,109.086 220.675,107.578 C224.01,107.097 224.615,109.841 224.39,112.608 C224.157,115.459 222.921,117.043 219.77,116.939 C212.604,116.701 205.426,116.865 198.252,116.868 C196.066,116.868 193.774,116.945 193.715,113.654 C193.667,110.973 194.146,108.143 197.101,107.787 C202.858,107.098 203.923,102.28 205.544,97.8317 C214.457,73.3671 223.326,48.8851 232.312,24.4525 C233.395,21.5091 233.743,17.5634 238.328,17.9054 C242.329,18.2032 242.519,21.7013 243.525,24.4304 C252.923,49.8958 262.286,75.3765 271.577,100.886 C272.967,104.699 274.061,108.327 279.085,107.592 C281.64,107.217 282.921,108.859 282.801,111.733 C282.683,114.581 282.028,116.817 278.829,116.827 C270.062,116.854 261.296,116.824 252.529,116.877 C250.333,116.89 248.881,116.221 249.052,113.555 C249.191,111.369 248.686,108.773 251.483,107.99 C253.758,107.348 256.093,106.945 258.407,106.436 Z" style="stroke:none;fill-rule:evenodd;fill:#333333;fill-opacity:1;"/>
        </g>
        <g id="Shape4">
            <desc shapeID="4" type="0" basicInfo-basicType="0" basicInfo-roundedRectRadius="12" basicInfo-polygonSides="6" basicInfo-starPoints="5" bounding="rect(-23.6599,-19.5682,47.3199,39.1366)" text="" font-familyName="" font-pixelSize="20" font-bold="0" font-underline="0" font-alignment="1" strokeStyle="0" markerStart="0" markerEnd="0" shadowEnabled="0" shadowOffsetX="0" shadowOffsetY="2" shadowBlur="4" shadowOpacity="160" blurEnabled="0" blurRadius="4" transform="matrix(1.59698,0,0,1.70144,872.291,83.6068)" pers-center="0,0" pers-size="0,0" pers-start="0,0" pers-end="0,0" locked="0" mesh="" flag=""/>
            <path id="shapePath4" d="M898.897,86.6707 C898.897,90.6387 899.095,94.6197 898.851,98.5687 C898.503,104.185 898.591,108.909 906.021,107.576 C909.054,107.034 910.303,109.162 910.041,112.296 C909.794,115.26 908.508,116.912 905.488,116.885 C897.776,116.814 890.061,116.856 882.349,116.87 C880.17,116.873 877.945,117.11 878.132,113.572 C878.266,111.039 877.766,107.905 881.145,107.721 C887.108,107.396 886.765,103.187 886.655,98.7747 C886.45,90.5657 886.751,82.3166 886.142,74.1447 C885.647,67.5158 883.325,61.8484 875.428,62.3622 C867.368,62.8846 860.169,69.185 860.089,76.069 C859.99,84.2852 860.316,92.5167 859.976,100.718 C859.763,105.812 861.177,108.14 866.185,107.514 C869.427,107.109 872.074,107.81 871.753,112.386 C871.492,116.114 869.468,116.941 866.378,116.9 C857.868,116.791 849.356,116.839 840.844,116.88 C838.634,116.892 836.323,117.059 836.305,113.775 C836.291,110.949 836.326,107.396 840.052,107.65 C848.211,108.204 848,102.792 847.85,96.6987 C847.618,87.3547 847.494,77.9848 847.902,68.6524 C848.136,63.3201 846.513,61.5064 841.62,62.0713 C838.61,62.4184 834.903,63.1874 834.533,57.9538 C834.157,52.6317 837.779,52.1519 841.304,51.7146 C845.253,51.2229 849.214,50.8094 853.18,50.561 C854.664,50.4675 857.109,49.872 857.428,51.7197 C858.974,60.6301 863.321,55.3063 866.868,54.0558 C869.383,53.1694 871.828,52.0158 874.387,51.3148 C887.768,47.6414 897.064,54.197 898.616,68.8345 C899.241,74.7078 898.718,80.719 898.718,86.6657 C898.776,86.6707 898.837,86.6707 898.897,86.6707 Z" style="stroke:none;fill-rule:evenodd;fill:#343434;fill-opacity:1;"/>
        </g>
        <g id="Shape5">
            <desc shapeID="5" type="0" basicInfo-basicType="0" basicInfo-roundedRectRadius="12" basicInfo-polygonSides="6" basicInfo-starPoints="5" bounding="rect(-21.3047,-27.6162,42.6092,55.2324)" text="" font-familyName="" font-pixelSize="20" font-bold="0" font-underline="0" font-alignment="1" strokeStyle="0" markerStart="0" markerEnd="0" shadowEnabled="0" shadowOffsetX="0" shadowOffsetY="2" shadowBlur="4" shadowOpacity="160" blurEnabled="0" blurRadius="4" transform="matrix(1.59698,0,0,1.70144,170.093,98.8554)" pers-center="0,0" pers-size="0,0" pers-start="0,0" pers-end="0,0" locked="0" mesh="" flag=""/>
            <path id="shapePath5" d="M139.161,52.4973 C147.107,52.3101 155.054,52.0617 163,51.9783 C164.936,51.9579 167.649,51.0936 167.933,54.5561 C168.16,57.3277 168.545,60.574 164.837,61.2035 C160.958,61.8637 160.175,63.8306 161.462,67.6401 C164.997,78.1141 168.328,88.6667 172.437,101.332 C177.439,87.0907 181.738,74.8507 185.927,62.9305 C184.312,60.1197 182.236,61.0521 180.596,61.0725 C177.578,61.1082 177.057,59.3337 177.17,56.7577 C177.276,54.3281 177.74,52.0566 180.564,52.0107 C187.203,51.9052 193.843,51.9733 200.483,51.9511 C202.703,51.9443 204.1,53.0571 204.115,55.4272 C204.132,57.6747 203.977,60.5298 201.478,60.9398 C196.083,61.8263 195.255,66.4848 193.741,70.5802 C186.179,91.0517 178.735,111.575 171.162,132.041 C167.296,142.492 159.489,147.385 149.942,145.415 C144.205,144.232 139.996,141.129 139.962,134.25 C139.94,129.585 141.778,125.889 146.591,125.176 C152.738,124.266 156.116,127.567 156.973,134.087 C164.233,127.791 166.68,118.716 163.617,110.311 C158.827,97.1667 153.723,84.1423 149.375,70.8371 C147.284,64.438 144.863,59.6688 137.674,60.2031 C135.174,56.9823 135.542,54.3842 139.161,52.4973 Z" style="stroke:none;fill-rule:evenodd;fill:#cb0101;fill-opacity:1;"/>
        </g>
        <g id="Shape6">
            <desc shapeID="6" type="0" basicInfo-basicType="0" basicInfo-roundedRectRadius="12" basicInfo-polygonSides="6" basicInfo-starPoints="5" bounding="rect(-16.9626,-20.0365,33.9252,40.073)" text="" font-familyName="" font-pixelSize="20" font-bold="0" font-underline="0" font-alignment="1" strokeStyle="0" markerStart="0" markerEnd="0" shadowEnabled="0" shadowOffsetX="0" shadowOffsetY="2" shadowBlur="4" shadowOpacity="160" blurEnabled="0" blurRadius="4" transform="matrix(1.59698,0,0,1.70144,620.107,84.3659)" pers-center="0,0" pers-size="0,0" pers-start="0,0" pers-end="0,0" locked="0" mesh="" flag=""/>
            <path id="shapePath6" d="M623.942,87.6677 C619.954,87.6747 615.941,87.9777 611.987,87.5977 C607.111,87.1297 606.029,89.1747 607.046,93.9137 C609.339,104.579 617.477,109.86 627.412,107.022 C631.334,105.901 634.789,103.82 638.086,101.465 C640.8,99.5267 643.043,99.4247 644.742,102.579 C646.062,105.033 647.47,107.757 644.481,110.074 C635.218,117.261 624.994,120.106 613.657,117.516 C603.451,115.187 597.764,107.895 594.963,97.6687 C588.973,75.8035 597.156,56.9755 614.861,51.6755 C633.128,46.2071 646.772,57.1678 647.191,77.2974 C647.336,84.2206 644.212,87.2547 638.294,87.6047 C633.524,87.8867 628.726,87.6607 623.942,87.6677 Z" style="stroke:none;fill-rule:evenodd;fill:#333333;fill-opacity:1;"/>
        </g>
        <g id="Shape7">
            <desc shapeID="7" type="0" basicInfo-basicType="0" basicInfo-roundedRectRadius="12" basicInfo-polygonSides="6" basicInfo-starPoints="5" bounding="rect(-16.9481,-20.1443,33.8962,40.2885)" text="" font-familyName="" font-pixelSize="20" font-bold="0" font-underline="0" font-alignment="1" strokeStyle="0" markerStart="0" markerEnd="0" shadowEnabled="0" shadowOffsetX="0" shadowOffsetY="2" shadowBlur="4" shadowOpacity="160" blurEnabled="0" blurRadius="4" transform="matrix(1.59698,0,0,1.70144,490.277,84.5681)" pers-center="0,0" pers-size="0,0" pers-start="0,0" pers-end="0,0" locked="0" mesh="" flag=""/>
            <path id="shapePath7" d="M494.224,87.6747 C490.774,87.6747 487.325,87.6587 483.875,87.6757 C475.518,87.7157 475.065,88.3957 477.907,96.5597 C481.13,105.814 488.555,109.816 497.617,106.864 C500.615,105.885 503.448,104.254 506.251,102.705 C509.212,101.065 511.987,97.8817 514.906,102.819 C517.69,107.527 515.421,110.018 511.709,112.182 C499.885,119.078 487.445,122.17 475.585,113.768 C463.206,104.995 462.081,90.7997 463.896,76.5641 C465.611,63.1091 474.054,54.1936 486.407,51.2008 C503.985,46.9421 517.038,58.0304 517.34,77.1306 C517.447,83.9075 514.533,87.2097 508.552,87.5847 C503.793,87.8817 499.004,87.6457 494.225,87.6457 C494.224,87.6527 494.224,87.6627 494.224,87.6747 Z" style="stroke:none;fill-rule:evenodd;fill:#333333;fill-opacity:1;"/>
        </g>
        <g id="Shape8">
            <desc shapeID="8" type="0" basicInfo-basicType="0" basicInfo-roundedRectRadius="12" basicInfo-polygonSides="6" basicInfo-starPoints="5" bounding="rect(-17.0579,-19.9871,34.1157,39.9743)" text="" font-familyName="" font-pixelSize="20" font-bold="0" font-underline="0" font-alignment="1" strokeStyle="0" markerStart="0" markerEnd="0" shadowEnabled="0" shadowOffsetX="0" shadowOffsetY="2" shadowBlur="4" shadowOpacity="160" blurEnabled="0" blurRadius="4" transform="matrix(1.59698,0,0,1.70144,801.128,84.4865)" pers-center="0,0" pers-size="0,0" pers-start="0,0" pers-end="0,0" locked="0" mesh="" flag=""/>
            <path id="shapePath8" d="M804.669,87.6697 C800.678,87.6747 796.659,87.9927 792.703,87.5977 C786.933,87.0227 786.679,89.8387 788.021,94.6297 C791.045,105.41 798.719,110.146 808.84,106.69 C812.568,105.417 816.086,103.245 819.454,101.053 C822.226,99.2457 824.076,100.245 825.497,102.598 C826.95,105.002 828.239,107.738 825.246,110.074 C815.979,117.305 805.696,120.157 794.4,117.538 C783.934,115.11 778.186,107.551 775.523,96.8467 C768.959,70.461 782.757,49.387 805.902,50.5236 C820.288,51.2297 830.832,65.7821 827.867,80.77 C826.843,85.9337 823.237,87.3937 819.035,87.6097 C814.257,87.8527 809.458,87.6647 804.669,87.6697 Z" style="stroke:none;fill-rule:evenodd;fill:#333333;fill-opacity:1;"/>
        </g>
        <g id="Shape9">
            <desc shapeID="9" type="0" basicInfo-basicType="0" basicInfo-roundedRectRadius="12" basicInfo-polygonSides="6" basicInfo-starPoints="5" bounding="rect(-12.3378,-28.7943,24.6757,57.5885)" text="" font-familyName="" font-pixelSize="20" font-bold="0" font-underline="0" font-alignment="1" strokeStyle="0" markerStart="0" markerEnd="0" shadowEnabled="0" shadowOffsetX="0" shadowOffsetY="2" shadowBlur="4" shadowOpacity="160" blurEnabled="0" blurRadius="4" transform="matrix(1.59698,0,0,1.70144,46.6756,67.958)" pers-center="0,0" pers-size="0,0" pers-start="0,0" pers-end="0,0" locked="0" mesh="" flag=""/>
            <path id="shapePath9" d="M46.9221,19.0147 C51.7019,19.0164 56.4864,19.1389 61.2614,18.9739 C64.4682,18.8633 66.4261,19.9369 66.3781,23.6409 C66.335,26.9026 65.2171,29.368 61.6766,28.6397 C53.5336,26.969 52.9028,31.7228 53.013,38.6425 C53.3388,59.0053 53.2877,79.3817 53.0242,99.7457 C52.9523,105.271 53.8402,108.453 59.8241,107.525 C62.7099,107.078 65.2235,107.753 65.1149,111.811 C65.0111,115.742 63.1522,117.042 59.4951,116.945 C50.7373,116.711 41.9715,116.904 33.2088,116.842 C31.2621,116.829 28.7101,117.64 28.6718,113.97 C28.6399,111.005 28.7101,107.609 32.3113,107.742 C40.1669,108.032 40.2467,103.051 40.1717,96.7907 C39.9289,76.707 39.9401,56.6181 40.1749,36.5344 C40.2372,31.1477 39.5888,27.7261 33.4548,28.6278 C30.1666,29.111 27.1211,28.9477 26.9774,23.7703 C26.8225,18.1759 30.2927,19.0624 33.3781,19.025 C37.8928,18.9739 42.409,19.0113 46.9221,19.0147 Z" style="stroke:none;fill-rule:evenodd;fill:#cb0101;fill-opacity:1;"/>
        </g>
        <g id="Shape10">
            <desc shapeID="10" type="0" basicInfo-basicType="0" basicInfo-roundedRectRadius="12" basicInfo-polygonSides="6" basicInfo-starPoints="5" bounding="rect(-20.7874,-19.558,41.5749,39.116)" text="" font-familyName="" font-pixelSize="20" font-bold="0" font-underline="0" font-alignment="1" strokeStyle="0" markerStart="0" markerEnd="0" shadowEnabled="0" shadowOffsetX="0" shadowOffsetY="2" shadowBlur="4" shadowOpacity="160" blurEnabled="0" blurRadius="4" transform="matrix(1.59698,0,0,1.70144,555.24,85.2039)" pers-center="0,0" pers-size="0,0" pers-start="0,0" pers-end="0,0" locked="0" mesh="" flag=""/>
            <path id="shapePath10" d="M556.661,98.6457 C561.675,85.5068 566.139,73.8112 570.828,61.5234 C568.45,61.2954 566.915,60.9875 565.392,61.0402 C562.701,61.1372 561.343,59.9173 561.623,57.0452 C561.87,54.5016 562.088,51.8865 565.535,51.9324 C571.647,52.0141 577.76,51.9613 583.874,51.9307 C586.066,51.9205 588.436,51.7793 588.431,55.0546 C588.428,57.4961 588.722,60.5655 585.512,61.1372 C580.948,61.9522 579.947,65.908 578.554,69.5032 C573.198,83.3341 567.854,97.1717 562.643,111.066 C561.225,114.85 560.214,118.5 555.299,118.481 C550.137,118.459 549.618,114.105 548.31,110.595 C542.938,96.1677 537.641,81.7058 532.46,67.1977 C531.176,63.606 530.197,60.1878 525.529,60.9653 C522.585,61.4536 521.936,59.5021 522.056,56.8411 C522.165,54.3978 522.577,52.0668 525.381,52.0311 C533.615,51.9307 541.854,52.0005 550.091,52.0668 C552.162,52.0839 552.598,53.61 552.643,55.5207 C552.707,58.3043 552.257,60.7731 549.206,61.2274 C544.321,61.9539 545.049,64.8939 546.303,68.4499 C549.65,77.9508 552.852,87.5077 556.661,98.6457 Z" style="stroke:none;fill-rule:evenodd;fill:#333333;fill-opacity:1;"/>
        </g>
        <g id="Shape11">
            <desc shapeID="11" type="0" basicInfo-basicType="0" basicInfo-roundedRectRadius="12" basicInfo-polygonSides="6" basicInfo-starPoints="5" bounding="rect(-20.7109,-19.5623,41.4217,39.1246)" text="" font-familyName="" font-pixelSize="20" font-bold="0" font-underline="0" font-alignment="1" strokeStyle="0" markerStart="0" markerEnd="0" shadowEnabled="0" shadowOffsetX="0" shadowOffsetY="2" shadowBlur="4" shadowOpacity="160" blurEnabled="0" blurRadius="4" transform="matrix(1.59698,0,0,1.70144,103.741,85.2073)" pers-center="0,0" pers-size="0,0" pers-start="0,0" pers-end="0,0" locked="0" mesh="" flag=""/>
            <path id="shapePath11" d="M135.753,60.3749 C131.249,61.5727 128.994,64.7851 127.337,69.3619 C122.189,83.5672 116.574,97.5807 111.199,111.696 C109.869,115.185 108.732,118.384 104.22,118.489 C99.4772,118.6 98.6978,115.019 97.457,111.624 C91.9825,96.6447 86.4809,81.6786 81.0688,66.6753 C79.879,63.378 78.8553,60.2779 74.5643,60.9653 C72.0219,61.3737 70.5734,60.1758 70.6708,57.1541 C70.7618,54.2906 71.4166,52.0345 74.5866,52.009 C82.2857,51.946 89.9879,51.9886 97.687,51.9341 C99.9515,51.9188 101.143,52.7968 101.028,55.4016 C100.916,57.9419 101.347,60.7237 97.9808,61.2631 C93.1835,62.0304 93.8063,64.9143 95.1142,68.5809 C98.4072,77.7977 101.451,87.1147 105.316,98.5147 C110.38,85.4473 114.831,73.9626 119.157,62.8046 C117.862,60.1486 116.057,61.0776 114.698,61.0776 C111.911,61.0793 110.204,60.5127 110.281,56.8955 C110.359,53.2051 111.897,51.8371 115.161,51.9273 C122.05,52.1161 128.941,52.2217 135.832,52.3595 C137.124,55.046 137.19,57.719 135.753,60.3749 Z" style="stroke:none;fill-rule:evenodd;fill:#cb0101;fill-opacity:1;"/>
        </g>
        <g id="Shape12">
            <desc shapeID="12" type="0" basicInfo-basicType="0" basicInfo-roundedRectRadius="12" basicInfo-polygonSides="6" basicInfo-starPoints="5" bounding="rect(-16.5932,-20.0662,33.1865,40.1324)" text="" font-familyName="" font-pixelSize="20" font-bold="0" font-underline="0" font-alignment="1" strokeStyle="0" markerStart="0" markerEnd="0" shadowEnabled="0" shadowOffsetX="0" shadowOffsetY="2" shadowBlur="4" shadowOpacity="160" blurEnabled="0" blurRadius="4" transform="matrix(1.59698,0,0,1.70144,312.468,84.3605)" pers-center="0,0" pers-size="0,0" pers-start="0,0" pers-end="0,0" locked="0" mesh="" flag=""/>
            <path id="shapePath12" d="M299.031,84.7412 C299.135,105.846 311.007,113.394 328.25,103.377 C331.448,101.519 334.882,97.2327 338.028,103.442 C340.936,109.184 336.466,110.884 333.104,112.907 C319.124,121.324 302.393,120.108 294.002,110.18 C284.666,99.1367 283.208,76.6917 290.997,63.9888 C298.697,51.4288 318.059,46.367 330.95,53.4297 C335.775,56.0754 338.394,59.9445 337.02,65.7515 C336.009,70.0255 333.026,72.5198 328.805,72.2765 C323.575,71.977 320.448,69.1118 320.614,63.1091 C320.734,58.7194 317.614,59.9496 315.533,60.067 C305.061,60.6591 298.958,69.8809 299.031,84.7412 Z" style="stroke:none;fill-rule:evenodd;fill:#343434;fill-opacity:1;"/>
        </g>
        <g id="Shape13">
            <desc shapeID="13" type="0" basicInfo-basicType="0" basicInfo-roundedRectRadius="12" basicInfo-polygonSides="6" basicInfo-starPoints="5" bounding="rect(-12.9909,-25.5813,25.9818,51.1627)" text="" font-familyName="" font-pixelSize="20" font-bold="0" font-underline="0" font-alignment="1" strokeStyle="0" markerStart="0" markerEnd="0" shadowEnabled="0" shadowOffsetX="0" shadowOffsetY="2" shadowBlur="4" shadowOpacity="160" blurEnabled="0" blurRadius="4" transform="matrix(1.59698,0,0,1.70144,927.139,75.0936)" pers-center="0,0" pers-size="0,0" pers-start="0,0" pers-end="0,0" locked="0" mesh="" flag=""/>
            <path id="shapePath13" d="M936.885,107.257 C942.062,106.134 945.189,105.162 946.283,109.502 C947.506,114.362 943.654,115.11 940.871,116.259 C926.171,122.326 918.154,116.613 918.056,100.082 C917.994,89.6227 917.783,79.1503 918.157,68.7035 C918.342,63.5005 916.956,61.4366 911.967,62.073 C909.53,62.386 906.152,63.0836 906.406,58.4642 C906.587,55.1362 906.459,51.507 911.407,51.8644 C917.255,52.2863 920.153,49.1114 920.257,42.7838 C920.294,40.5668 921.113,38.3737 921.511,36.155 C922.122,32.7453 924.305,31.442 927.25,31.5782 C931.342,31.767 929.248,35.277 929.716,37.3613 C929.955,38.4332 929.757,39.6123 929.757,40.7438 C929.769,51.8609 929.772,51.7181 940.326,52.0294 C943.209,52.1162 947.781,49.7035 947.883,56.1928 C947.987,62.6787 943.852,62.7808 939.782,62.0764 C931.281,60.6046 928.844,64.3563 929.606,73.0387 C930.318,81.1665 929.724,89.4217 929.778,97.6197 C929.82,104.204 931.412,109.099 936.885,107.257 Z" style="stroke:none;fill-rule:evenodd;fill:#333333;fill-opacity:1;"/>
        </g>
        <g id="Shape14">
            <desc shapeID="14" type="0" basicInfo-basicType="0" basicInfo-roundedRectRadius="12" basicInfo-polygonSides="6" basicInfo-starPoints="5" bounding="rect(-11.6342,-19.7671,23.2685,39.5341)" text="" font-familyName="" font-pixelSize="20" font-bold="0" font-underline="0" font-alignment="1" strokeStyle="0" markerStart="0" markerEnd="0" shadowEnabled="0" shadowOffsetX="0" shadowOffsetY="2" shadowBlur="4" shadowOpacity="160" blurEnabled="0" blurRadius="4" transform="matrix(1.59698,0,0,1.70144,438.681,83.3444)" pers-center="0,0" pers-size="0,0" pers-start="0,0" pers-end="0,0" locked="0" mesh="" flag=""/>
            <path id="shapePath14" d="M445.668,80.2903 C445.668,87.0737 445.885,93.8677 445.593,100.638 C445.391,105.307 445.938,108.332 451.393,107.556 C454.243,107.153 457.284,107.013 457.26,111.966 C457.235,117.184 454.208,116.919 450.88,116.892 C443.188,116.825 435.492,116.96 427.799,116.815 C425.466,116.773 422.154,118.175 421.959,113.431 C421.801,109.611 423.134,107.35 426.89,107.517 C432.224,107.753 433.406,104.859 433.238,99.6847 C432.908,89.5207 432.893,79.3272 433.241,69.1662 C433.424,63.8782 432.307,61.2392 426.818,62.0832 C423.938,62.5273 420.704,62.6106 420.17,58.1818 C419.621,53.6168 422.417,52.6623 425.873,51.8201 C444.093,47.3879 445.664,48.6435 445.664,68.4176 C445.668,72.3769 445.668,76.3327 445.668,80.2903 Z" style="stroke:none;fill-rule:evenodd;fill:#343434;fill-opacity:1;"/>
        </g>
        <g id="Shape15">
            <desc shapeID="15" type="0" basicInfo-basicType="0" basicInfo-roundedRectRadius="12" basicInfo-polygonSides="6" basicInfo-starPoints="5" bounding="rect(-5.34391,-5.39662,10.6878,10.7932)" text="" font-familyName="" font-pixelSize="20" font-bold="0" font-underline="0" font-alignment="1" strokeStyle="0" markerStart="0" markerEnd="0" shadowEnabled="0" shadowOffsetX="0" shadowOffsetY="2" shadowBlur="4" shadowOpacity="160" blurEnabled="0" blurRadius="4" transform="matrix(1.59698,0,0,1.70144,438.273,25.5816)" pers-center="0,0" pers-size="0,0" pers-start="0,0" pers-end="0,0" locked="0" mesh="" flag=""/>
            <path id="shapePath15" d="M438.422,16.3996 C443.86,16.728 446.726,20.2755 446.806,25.5806 C446.889,31.0882 443.491,34.6679 438.376,34.7615 C432.775,34.8636 429.634,31.2106 429.742,25.1246 C429.846,19.27 433.208,16.7399 438.422,16.3996 Z" style="stroke:none;fill-rule:evenodd;fill:#383838;fill-opacity:1;"/>
        </g>
        <g id="Shape16">
            <desc shapeID="16" type="0" basicInfo-basicType="0" basicInfo-roundedRectRadius="12" basicInfo-polygonSides="6" basicInfo-starPoints="5" bounding="rect(-1.06702,-2.35548,2.13403,4.71095)" text="" font-familyName="" font-pixelSize="20" font-bold="0" font-underline="0" font-alignment="1" strokeStyle="0" markerStart="0" markerEnd="0" shadowEnabled="0" shadowOffsetX="0" shadowOffsetY="2" shadowBlur="4" shadowOpacity="160" blurEnabled="0" blurRadius="4" transform="matrix(1.59698,0,0,1.70144,137.457,56.3672)" pers-center="0,0" pers-size="0,0" pers-start="0,0" pers-end="0,0" locked="0" mesh="" flag=""/>
            <path id="shapePath16" d="M135.753,60.3749 C135.778,57.7037 135.805,55.0325 135.831,52.3595 C136.941,52.4054 138.051,52.453 139.161,52.4973 C137.607,54.8367 137.196,57.4246 137.675,60.2065 C137.033,60.2643 136.393,60.3188 135.753,60.3749 Z" style="stroke:none;fill-rule:evenodd;fill:#da4b4b;fill-opacity:1;"/>
        </g>
        <g id="Shape17">
            <desc shapeID="17" type="0" basicInfo-basicType="0" basicInfo-roundedRectRadius="12" basicInfo-polygonSides="6" basicInfo-starPoints="5" bounding="rect(-7.08747,-9.15449,14.1749,18.309)" text="" font-familyName="" font-pixelSize="20" font-bold="0" font-underline="0" font-alignment="1" strokeStyle="0" markerStart="0" markerEnd="0" shadowEnabled="0" shadowOffsetX="0" shadowOffsetY="2" shadowBlur="4" shadowOpacity="160" blurEnabled="0" blurRadius="4" transform="matrix(1.59698,0,0,1.70144,236.051,58.431)" pers-center="0,0" pers-size="0,0" pers-start="0,0" pers-end="0,0" locked="0" mesh="" flag=""/>
            <path id="shapePath17" d="M247.369,74.0068 C239.561,74.0068 232.59,74.0068 224.732,74.0068 C228.427,63.834 231.912,54.2396 236.046,42.8552 C240.096,53.9945 243.622,63.6995 247.369,74.0068 Z" style="stroke:none;fill-rule:evenodd;fill:#fcfcfc;fill-opacity:1;"/>
        </g>
        <g id="Shape18">
            <desc shapeID="18" type="0" basicInfo-basicType="0" basicInfo-roundedRectRadius="12" basicInfo-polygonSides="6" basicInfo-starPoints="5" bounding="rect(-8.65293,-4.97533,17.3058,9.95065)" text="" font-familyName="" font-pixelSize="20" font-bold="0" font-underline="0" font-alignment="1" strokeStyle="0" markerStart="0" markerEnd="0" shadowEnabled="0" shadowOffsetX="0" shadowOffsetY="2" shadowBlur="4" shadowOpacity="160" blurEnabled="0" blurRadius="4" transform="matrix(1.59698,0,0,1.70144,620.468,69.3122)" pers-center="0,0" pers-size="0,0" pers-start="0,0" pers-end="0,0" locked="0" mesh="" flag=""/>
            <path id="shapePath18" d="M620.488,77.4778 C618.375,77.4778 616.236,77.7058 614.159,77.4199 C611.723,77.083 608.28,79.152 607.043,75.9941 C605.717,72.6185 607.986,69.3994 610.171,67.0037 C614.197,62.5919 619.14,59.9802 625.111,61.11 C629.752,61.9879 632.34,65.4588 633.639,70.0748 C635.02,74.992 634.583,78.4238 628.401,77.5407 C625.807,77.1681 623.127,77.4778 620.488,77.4778 Z" style="stroke:none;fill-rule:evenodd;fill:#fafafa;fill-opacity:1;"/>
        </g>
        <g id="Shape19">
            <desc shapeID="19" type="0" basicInfo-basicType="0" basicInfo-roundedRectRadius="12" basicInfo-polygonSides="6" basicInfo-starPoints="5" bounding="rect(-8.70306,-4.98773,17.4061,9.97545)" text="" font-familyName="" font-pixelSize="20" font-bold="0" font-underline="0" font-alignment="1" strokeStyle="0" markerStart="0" markerEnd="0" shadowEnabled="0" shadowOffsetX="0" shadowOffsetY="2" shadowBlur="4" shadowOpacity="160" blurEnabled="0" blurRadius="4" transform="matrix(1.59698,0,0,1.70144,490.499,69.2965)" pers-center="0,0" pers-size="0,0" pers-start="0,0" pers-end="0,0" locked="0" mesh="" flag=""/>
            <path id="shapePath19" d="M490.211,77.4896 C488.353,77.4896 486.455,77.7415 484.645,77.4301 C481.946,76.9656 477.848,79.3187 476.828,75.8461 C475.83,72.4483 478.273,68.9127 480.934,66.3317 C485.285,62.107 490.262,59.6603 496.193,61.3498 C500.778,62.6566 502.64,66.5988 503.916,71.242 C505.348,76.4535 503.55,77.9048 498.972,77.5322 C496.067,77.2957 493.133,77.488 490.211,77.4896 Z" style="stroke:none;fill-rule:evenodd;fill:#f8f8f8;fill-opacity:1;"/>
        </g>
        <g id="Shape20">
            <desc shapeID="20" type="0" basicInfo-basicType="0" basicInfo-roundedRectRadius="12" basicInfo-polygonSides="6" basicInfo-starPoints="5" bounding="rect(-8.61603,-4.98136,17.2321,9.96273)" text="" font-familyName="" font-pixelSize="20" font-bold="0" font-underline="0" font-alignment="1" strokeStyle="0" markerStart="0" markerEnd="0" shadowEnabled="0" shadowOffsetX="0" shadowOffsetY="2" shadowBlur="4" shadowOpacity="160" blurEnabled="0" blurRadius="4" transform="matrix(1.59698,0,0,1.70144,801.107,69.301)" pers-center="0,0" pers-size="0,0" pers-start="0,0" pers-end="0,0" locked="0" mesh="" flag=""/>
            <path id="shapePath20" d="M800.721,77.4812 C798.878,77.4812 796.978,77.7823 795.204,77.4114 C792.599,76.8669 788.765,79.4701 787.589,75.6453 C786.58,72.3649 788.921,69.2411 791.122,66.7366 C799.014,57.77 811.459,59.2486 814.221,69.5168 C815.573,74.5496 815.279,78.519 808.614,77.5441 C806.028,77.1647 803.355,77.4812 800.721,77.4812 Z" style="stroke:none;fill-rule:evenodd;fill:#f9f9f9;fill-opacity:1;"/>
        </g>
    </g>
</svg>
