<?xml version="1.0"?>
<svg version="1.1" xmlns="http://www.w3.org/2000/svg" xmlns:xlink="http://www.w3.org/1999/xlink" width="800" height="1080">
    <desc iVinci="yes" version="4.6" gridStep="20" showGrid="no" snapToGrid="no" codePlatform="0"/>
    <g id="Layer1" name="Layer 1" opacity="1">
        <g id="Shape1">
            <desc shapeID="1" type="0" basicInfo-basicType="0" basicInfo-roundedRectRadius="12" basicInfo-polygonSides="6" basicInfo-starPoints="5" bounding="rect(-86.0941,-117.872,172.189,235.743)" text="" font-familyName="" font-pixelSize="20" font-bold="0" font-underline="0" font-alignment="1" strokeStyle="0" markerStart="0" markerEnd="0" shadowEnabled="0" shadowOffsetX="0" shadowOffsetY="2" shadowBlur="4" shadowOpacity="160" blurEnabled="0" blurRadius="4" transform="matrix(4.32953,0,0,4.58126,399.999,540.003)" pers-center="0,0" pers-size="0,0" pers-start="0,0" pers-end="0,0" locked="0" mesh="" flag=""/>
            <path id="shapePath1" d="M569.929,471.514 C597.651,458.485 623.338,445.213 649.874,434.227 C690.87,417.249 715.722,429.555 731.018,473.351 C734.719,483.957 737.343,495.383 738.248,506.634 C741.461,546.473 732.507,560.285 696.949,572.256 C683.207,576.883 669.292,580.956 655.377,584.978 C641.583,588.969 627.698,592.578 610.795,597.187 C658.706,656.285 642.115,719.612 624.836,785.459 C641.401,776.195 654.654,767.198 669.023,761.187 C683.627,755.085 699.105,749.849 714.609,747.92 C746.098,743.989 769.075,762.058 772.092,795.46 C774.175,818.586 770.867,842.445 768.126,865.736 C767.455,871.49 760.541,879.077 754.96,881.12 C695.758,902.821 635.149,915.319 572.189,906.418 C543.632,902.382 541.61,898.204 542.363,868.1 C543.151,836.87 545.221,805.346 542.311,774.413 C537.548,723.777 511.97,694.104 468.752,685.207 C473.705,721.949 479.039,758.741 456.305,790.787 C433.038,823.575 398.614,824.239 360.523,824.06 C367.827,859.533 373.914,892.894 381.673,925.815 C390.57,963.564 400.666,1001.02 410.828,1038.42 C414.776,1052.97 409.996,1059.87 396.562,1062.51 C319.617,1077.64 242.236,1085.48 164.162,1075.63 C156.303,1074.64 146.454,1065.73 142.895,1057.79 C136.847,1044.29 133.418,1028.85 131.794,1013.86 C126.439,964.476 152.29,935.399 199.079,940.539 C224.528,943.329 249.401,952.038 275.725,958.36 C273.283,954.448 270.811,949.665 267.62,945.491 C238.144,906.99 219.848,863.757 219.043,813.638 C218.839,800.875 214.479,796.39 202.79,795.533 C155.411,792.042 108.055,784.226 61.8853,804.837 C48.1087,810.985 35.7522,804.402 29.834,789.793 C23.8505,775.009 28.3965,760.225 42.1339,755.328 C65.1023,747.146 89.1483,739.779 113.13,738.015 C143.155,735.812 173.682,738.345 203.777,741.291 C221.073,742.986 232.1,741.08 237.564,720.849 C241.431,706.537 250.103,693.682 258.558,676.2 C244.479,678.949 233.101,681.372 221.658,683.361 C188.234,689.165 154.926,696.262 121.295,700.041 C92.8587,703.23 75.4238,689.678 69.4966,660.125 C65.9942,642.652 65.4312,623.525 68.0202,605.878 C73.7785,566.626 88.5596,553.954 126.356,553.638 C171.076,553.267 215.804,554.33 260.528,554.742 C268.17,554.815 275.807,554.751 281.124,554.751 C258.623,527.932 236.27,500.894 213.28,474.478 C210.812,471.642 204.426,471.065 200.196,471.753 C148.017,480.264 97.8507,439.203 103.847,383.788 C109.904,327.791 120.646,269.957 142.206,219.032 C158.503,180.545 176.029,145.214 175.54,102.315 C175.466,95.6311 177.544,88.7226 179.557,82.2447 C185.956,61.6656 197.092,57.1486 213.856,69.7698 C223.714,77.196 232.564,86.6197 240.357,96.474 C248.172,106.36 254.558,110.199 267.55,104.702 C312.837,85.5432 360.003,75.863 409.161,76.8846 C415.815,77.0174 424.743,69.2614 428.96,62.5728 C438.9,46.8223 445.074,28.2958 455.66,13.1454 C468.692,-5.50482 482.958,-4.34576 491.989,16.8517 C503.181,43.1298 509.918,71.497 520.04,98.3387 C524.876,111.171 532.344,123.146 540.003,134.462 C546.675,144.312 555.832,152.237 562.954,161.798 C584.1,190.193 600.448,221.68 623.888,249.172 C664.131,296.359 650.999,359.622 600.535,394.531 C596.556,397.289 591.793,400.917 590.334,405.246 C583.216,426.384 577.086,447.907 569.929,471.514 M310.543,524.858 C358.185,517.07 333.775,480.69 341.529,456.891 C353.353,470.19 361.57,487.013 373.364,490.577 C385.253,494.164 400.688,484.575 414.573,480.791 C415.963,480.411 417.409,479.898 418.816,479.948 C455.816,481.369 475.848,463.886 475.45,423.352 C475.441,422.866 477.606,422.348 480.005,421.308 C485.677,435.148 490.132,449.822 497.604,462.507 C500.834,467.996 510.13,471.368 516.962,471.963 C521.564,472.371 529.859,467.245 531.072,462.897 C542.536,421.808 546.944,379.765 544.571,334.15 C525.655,335.318 508.372,334.878 491.595,337.773 C465.748,342.236 487.062,370.621 472.259,382.697 C468.839,376.82 464.423,371.515 462.388,365.325 C455.937,345.74 444.421,340.522 425.764,346.533 C406.503,352.74 386.379,355.924 367.004,361.793 C325.241,374.446 325.363,374.804 330.233,421.07 C330.415,422.783 329.203,424.662 326.839,432.221 C314.768,417.662 306.148,398.022 294.796,396.056 C282.349,393.903 267.386,408.059 249.54,417.135 C271.616,456.121 291.731,491.649 310.543,524.858 M269.495,131.814 C289.679,171.456 289.384,170.438 320.496,160.438 C339.603,154.299 359.627,150.579 379.495,148.068 C404.342,144.925 408.866,140.156 407.186,104.051 C361.874,113.186 317.448,122.147 269.495,131.814 M363.402,771.793 C380.798,767.317 402.645,768.581 412.516,757.687 C431.553,736.668 419.725,709.565 412.975,684.864 C379.828,694.525 360.7,725.98 363.402,771.793 M145.822,293.706 C159.434,290.724 167.006,289.061 174.734,287.371 C173.829,267.236 173.063,250.313 172.301,233.39 C170.21,232.991 168.119,232.592 166.023,232.194 C159.91,250.812 153.797,269.43 145.822,293.706 Z" style="stroke:none;fill-rule:evenodd;fill:#000000;fill-opacity:1;"/>
        </g>
        <g id="Shape2">
            <desc shapeID="2" type="0" basicInfo-basicType="0" basicInfo-roundedRectRadius="12" basicInfo-polygonSides="6" basicInfo-starPoints="5" bounding="rect(-34.1437,-20.8135,68.2874,41.627)" text="" font-familyName="" font-pixelSize="20" font-bold="0" font-underline="0" font-alignment="1" strokeStyle="0" markerStart="0" markerEnd="0" shadowEnabled="0" shadowOffsetX="0" shadowOffsetY="2" shadowBlur="4" shadowOpacity="160" blurEnabled="0" blurRadius="4" transform="matrix(4.32953,0,0,4.58126,397.366,429.506)" pers-center="0,0" pers-size="0,0" pers-start="0,0" pers-end="0,0" locked="0" mesh="" flag=""/>
            <path id="shapePath2" d="M310.543,524.858 C291.735,491.649 271.616,456.121 249.54,417.139 C267.386,408.068 282.353,393.912 294.796,396.061 C306.153,398.026 314.773,417.666 326.839,432.225 C329.203,424.671 330.415,422.788 330.233,421.075 C325.363,374.804 325.241,374.446 367.004,361.798 C386.379,355.929 406.503,352.745 425.765,346.538 C444.421,340.522 455.937,345.74 462.388,365.33 C464.427,371.519 468.839,376.824 472.259,382.702 C487.062,370.626 465.748,342.24 491.595,337.778 C508.372,334.883 525.655,335.323 544.571,334.154 C546.944,379.77 542.536,421.812 531.072,462.901 C529.859,467.249 521.564,472.375 516.962,471.968 C510.13,471.368 500.834,468 497.604,462.512 C490.127,449.822 485.672,435.148 480.005,421.313 C477.606,422.357 475.441,422.87 475.45,423.356 C475.848,463.891 455.816,481.369 418.816,479.953 C417.409,479.898 415.963,480.416 414.573,480.796 C400.683,484.58 385.253,494.168 373.364,490.581 C361.57,487.022 353.353,470.199 341.529,456.895 C333.771,480.695 358.185,517.07 310.543,524.858 Z" style="stroke:none;fill-rule:evenodd;fill:#ffffff;fill-opacity:1;"/>
        </g>
        <g id="Shape3">
            <desc shapeID="3" type="0" basicInfo-basicType="0" basicInfo-roundedRectRadius="12" basicInfo-polygonSides="6" basicInfo-starPoints="5" bounding="rect(-15.9375,-6.79208,31.875,13.5841)" text="" font-familyName="" font-pixelSize="20" font-bold="0" font-underline="0" font-alignment="1" strokeStyle="0" markerStart="0" markerEnd="0" shadowEnabled="0" shadowOffsetX="0" shadowOffsetY="2" shadowBlur="4" shadowOpacity="160" blurEnabled="0" blurRadius="4" transform="matrix(4.32953,0,0,4.58126,338.497,135.163)" pers-center="0,0" pers-size="0,0" pers-start="0,0" pers-end="0,0" locked="0" mesh="" flag=""/>
            <path id="shapePath3" d="M269.495,131.814 C317.448,122.147 361.874,113.187 407.186,104.047 C408.866,140.156 404.346,144.925 379.495,148.064 C359.627,150.574 339.603,154.294 320.496,160.433 C289.384,170.438 289.679,171.46 269.495,131.814 Z" style="stroke:none;fill-rule:evenodd;fill:#ffffff;fill-opacity:1;"/>
        </g>
        <g id="Shape4">
            <desc shapeID="4" type="0" basicInfo-basicType="0" basicInfo-roundedRectRadius="12" basicInfo-polygonSides="6" basicInfo-starPoints="5" bounding="rect(-6.89414,-9.48756,13.7883,18.9751)" text="" font-familyName="" font-pixelSize="20" font-bold="0" font-underline="0" font-alignment="1" strokeStyle="0" markerStart="0" markerEnd="0" shadowEnabled="0" shadowOffsetX="0" shadowOffsetY="2" shadowBlur="4" shadowOpacity="160" blurEnabled="0" blurRadius="4" transform="matrix(4.32953,0,0,4.58126,392.998,728.328)" pers-center="0,0" pers-size="0,0" pers-start="0,0" pers-end="0,0" locked="0" mesh="" flag=""/>
            <path id="shapePath4" d="M363.402,771.793 C360.7,725.98 379.828,694.525 412.975,684.863 C419.725,709.565 431.553,736.668 412.516,757.687 C402.649,768.581 380.798,767.317 363.402,771.793 Z" style="stroke:none;fill-rule:evenodd;fill:#ffffff;fill-opacity:1;"/>
        </g>
        <g id="Shape5">
            <desc shapeID="5" type="0" basicInfo-basicType="0" basicInfo-roundedRectRadius="12" basicInfo-polygonSides="6" basicInfo-starPoints="5" bounding="rect(-3.33893,-6.71344,6.67786,13.4269)" text="" font-familyName="" font-pixelSize="20" font-bold="0" font-underline="0" font-alignment="1" strokeStyle="0" markerStart="0" markerEnd="0" shadowEnabled="0" shadowOffsetX="0" shadowOffsetY="2" shadowBlur="4" shadowOpacity="160" blurEnabled="0" blurRadius="4" transform="matrix(4.32953,0,0,4.58126,160.278,262.95)" pers-center="0,0" pers-size="0,0" pers-start="0,0" pers-end="0,0" locked="0" mesh="" flag=""/>
            <path id="shapePath5" d="M145.822,293.706 C153.797,269.426 159.91,250.812 166.023,232.194 C168.114,232.592 170.21,232.991 172.301,233.39 C173.063,250.313 173.829,267.24 174.734,287.371 C167.006,289.066 159.434,290.724 145.822,293.706 Z" style="stroke:none;fill-rule:evenodd;fill:#ffffff;fill-opacity:1;"/>
        </g>
    </g>
</svg>
