<?xml version="1.0" encoding="UTF-8" standalone="no"?>
<!-- Created with Inkscape (http://www.inkscape.org/) -->

<svg
   xmlns:dc="http://purl.org/dc/elements/1.1/"
   xmlns:cc="http://creativecommons.org/ns#"
   xmlns:rdf="http://www.w3.org/1999/02/22-rdf-syntax-ns#"
   xmlns:svg="http://www.w3.org/2000/svg"
   xmlns="http://www.w3.org/2000/svg"
   xmlns:xlink="http://www.w3.org/1999/xlink"
   xmlns:sodipodi="http://sodipodi.sourceforge.net/DTD/sodipodi-0.dtd"
   xmlns:inkscape="http://www.inkscape.org/namespaces/inkscape"
   id="svg2"
   version="1.1"
   inkscape:version="0.91 r13725"
   width="347.96954"
   height="209.39085"
   viewBox="0 0 347.96954 209.39085"
   sodipodi:docname="navayuga.svg">
  <metadata
     id="metadata8">
    <rdf:RDF>
      <cc:Work
         rdf:about="">
        <dc:format>image/svg+xml</dc:format>
        <dc:type
           rdf:resource="http://purl.org/dc/dcmitype/StillImage" />
        <dc:title></dc:title>
      </cc:Work>
    </rdf:RDF>
  </metadata>
  <defs
     id="defs6" />
  <sodipodi:namedview
     pagecolor="#ffffff"
     bordercolor="#666666"
     borderopacity="1"
     objecttolerance="10"
     gridtolerance="10"
     guidetolerance="10"
     inkscape:pageopacity="0"
     inkscape:pageshadow="2"
     inkscape:window-width="1366"
     inkscape:window-height="705"
     id="namedview4"
     showgrid="false"
     inkscape:zoom="0.82765864"
     inkscape:cx="173.98477"
     inkscape:cy="104.69543"
     inkscape:window-x="-8"
     inkscape:window-y="-8"
     inkscape:window-maximized="1"
     inkscape:current-layer="svg2" />
  <image
     width="347.96954"
     height="209.39085"
     preserveAspectRatio="none"
     style="image-rendering:optimizeQuality"
     xlink:href="file:///C:/Users/MIHIR/Desktop/navayuga.png"
     id="image10"
     x="0"
     y="0"
     sodipodi:absref="C:\Users\MIHIR\Desktop\navayuga.png" />
  <g
     id="g3344">
    <path
       style="fill:#fcfcfc"
       d="M 0,104.69543 0,0 l 173.98477,0 173.98477,0 0,104.69543 0,104.69542 -173.98477,0 -173.98477,0 0,-104.69542 z"
       id="path3360"
       inkscape:connector-curvature="0" />
    <path
       style="fill:#9e9e9e"
       d="m 143.36851,206.82105 c -0.37102,-1.76641 -12.02333,-95.18448 -12.02333,-96.39259 0,-0.93385 0.28371,-1.29404 1.61802,-2.05417 1.70392,-0.97071 42.66491,-22.249252 67.85322,-35.248613 8.1616,-4.212091 15.06629,-7.571234 15.34376,-7.464757 0.52563,0.2017 0.74887,-0.246038 -33.12988,66.44567 -32.43181,63.84335 -38.55781,75.74345 -38.99624,75.75236 -0.2451,0.005 -0.5446,-0.46207 -0.66555,-1.0379 z m 48.12895,-21.98886 c 0,-0.31996 9.43449,-19.09771 18.64839,-37.11646 4.76471,-9.3179 10.66713,-20.88198 13.11649,-25.69797 2.44936,-4.81599 4.6919,-9.00017 4.98343,-9.29817 0.45678,-0.46693 0.57704,-0.41431 0.87005,0.38071 0.4499,1.22073 5.4362,41.44633 5.68419,45.85563 0.22561,4.01146 0.42528,3.72214 -4.20246,6.08947 -5.25689,2.68918 -16.50042,8.61865 -22.91989,12.08718 -3.35025,1.8102 -6.85743,3.56146 -7.79373,3.8917 -0.93629,0.33024 -2.04987,0.90312 -2.47462,1.27307 -1.71526,1.494 -5.91185,3.29339 -5.91185,2.53484 z m 67.7665,-41.12705 c 0,-0.53167 9.87059,-19.66438 24.93718,-48.337126 3.19081,-6.072334 7.98627,-15.237943 10.65658,-20.368019 2.67031,-5.130075 6.43784,-12.325506 8.3723,-15.989846 1.93445,-3.66434 4.63259,-8.803934 5.99584,-11.421319 7.67554,-14.736622 16.43518,-31.505352 19.58924,-37.499998 1.98307,-3.7690354 3.89183,-7.4221185 4.24168,-8.1179624 1.01086,-2.01051698 1.50882,-2.22606979 1.75922,-0.7615075 0.30095,1.7602036 4.74989,37.5599669 6.87555,55.3261679 0.50106,4.187817 1.88651,15.263644 3.07878,24.612954 1.19226,9.349305 2.06855,17.257262 1.9473,17.573237 -0.23865,0.62191 -1.16166,1.117401 -26.73032,14.349409 -9.42259,4.87627 -19.0165,9.8482 -21.3198,11.04873 -2.3033,1.20054 -10.26967,5.30848 -17.70305,9.12877 -7.43337,3.82029 -15.26526,7.86729 -17.40419,8.99334 -2.13892,1.12605 -3.98061,2.04736 -4.09264,2.04736 -0.11202,0 -0.20367,-0.26288 -0.20367,-0.58419 z m -9.78765,-47.845103 c -0.21444,-0.270613 -1.70372,-11.088993 -3.30952,-24.040845 -2.22424,-17.940132 -2.81583,-23.673874 -2.48387,-24.073868 0.23967,-0.288776 1.31647,-1.015016 2.39291,-1.61387 1.07644,-0.598854 10.68564,-6.083821 21.35378,-12.18882 10.66815,-6.104998 19.6196,-11.099996 19.89214,-11.099996 0.27253,0 0.49551,0.289497 0.49551,0.643328 0,0.582801 -6.50207,13.296602 -14.66307,28.671391 -1.72275,3.245558 -7.54507,14.381344 -12.93848,24.746192 -5.39342,10.364847 -9.92845,18.980926 -10.07786,19.146844 -0.1494,0.165917 -0.4471,0.08026 -0.66154,-0.190356 z M 32.769627,46.160575 c -2.177859,-1.111752 -2.251753,-1.625277 -0.596274,-4.143807 0.807109,-1.22788 2.079751,-2.937152 2.828093,-3.798385 0.748342,-0.861233 2.387596,-3.136606 3.642787,-5.056383 2.883225,-4.409813 9.866566,-12.86953 11.570695,-14.016911 1.038533,-0.699235 1.813775,-0.870978 3.931573,-0.870978 2.389861,0 2.739552,0.101594 3.718195,1.080237 1.508098,1.508099 1.715246,3.484074 1.263678,12.05428 -0.209627,3.978426 -0.414255,8.423219 -0.454736,9.877316 -0.126267,4.535794 -1.38064,5.809808 -5.24488,5.327006 -2.526373,-0.315651 -3.350497,-1.014651 -3.688515,-3.128493 -0.309259,-1.933991 -0.896943,-2.158333 -4.716358,-1.800423 -2.821423,0.264389 -2.874407,0.289538 -4.807663,2.282227 -2.667541,2.749542 -5.007939,3.439195 -7.446595,2.194314 z M 50.240413,34.288986 c 0.554932,-1.036904 0.48959,-2.517524 -0.133938,-3.035008 -0.417514,-0.346504 -0.736279,-0.190764 -1.522842,0.744015 -1.057809,1.257131 -1.127281,1.477744 -0.763713,2.425182 0.323687,0.843515 1.945355,0.753611 2.420493,-0.134189 z m 34.325832,11.825481 c -0.906068,-0.906069 -1.086072,-2.996776 -0.375076,-4.356503 0.239151,-0.457362 1.668963,-2.202129 3.177358,-3.877256 1.508395,-1.675126 3.215836,-3.816624 3.794315,-4.758883 0.578478,-0.942258 1.316551,-1.922696 1.640155,-2.17875 0.74285,-0.587781 3.924719,-5.021466 5.40817,-7.535864 0.619793,-1.050525 2.021453,-2.592403 3.114793,-3.426395 1.89664,-1.446743 2.13448,-1.522565 5.18114,-1.651738 2.92692,-0.124097 3.2734,-0.06059 4.1543,0.761421 l 0.96105,0.896809 -0.27226,12.182741 c -0.2595,11.611884 -0.43681,13.290741 -1.47698,13.985287 -0.2304,0.153838 -1.73419,0.282327 -3.34177,0.285533 -2.70752,0.0054 -2.98102,-0.06808 -3.71193,-0.997291 -0.43398,-0.551714 -0.78905,-1.387336 -0.78905,-1.856935 0,-1.221951 -0.80474,-1.729207 -3.114571,-1.963222 -3.055691,-0.309582 -4.504199,0.215924 -5.765448,2.091655 -1.326906,1.973372 -2.783334,2.75673 -5.600243,3.012156 -1.865303,0.169142 -2.289068,0.08212 -2.983953,-0.612765 z M 102.31599,34.328348 c 0.59904,-0.743472 0.61982,-2.59547 0.0332,-2.958022 -0.56566,-0.349602 -2.602998,1.895074 -2.602998,2.867912 0,1.246083 1.593378,1.301955 2.569798,0.09011 z m 44.9614,11.995567 c -0.97395,-0.276027 -2.21382,-0.792122 -2.75525,-1.146887 -1.14616,-0.750994 -2.32092,-2.918726 -2.61302,-4.821701 -0.4815,-3.136903 2.25316,-13.248358 4.59223,-16.979849 2.43687,-3.887505 3.46944,-4.654779 6.71508,-4.989758 2.39386,-0.247068 3.63636,0.298299 3.63636,1.596095 0,1.140708 -1.99207,6.688531 -4.32735,12.051451 -0.97021,2.228069 -1.76402,4.402682 -1.76402,4.832473 0,1.755726 3.39848,2.591355 5.69955,1.401425 1.48176,-0.766246 2.45731,-2.231645 3.43556,-5.160636 0.45177,-1.352627 1.23664,-3.209009 1.74415,-4.125294 0.50753,-0.916284 0.93479,-1.944203 0.94948,-2.284263 0.0544,-1.257937 3.23373,-7.07119 4.2842,-7.833353 1.49893,-1.08753 5.1553,-1.098713 6.34791,-0.01942 0.69047,0.62486 0.80744,1.051869 0.65606,2.394891 -0.10132,0.898943 -0.47692,1.957868 -0.83466,2.353166 -0.35774,0.395299 -0.81195,1.459095 -1.00937,2.363993 -0.19742,0.904898 -0.85604,2.673188 -1.46361,3.929533 -0.60758,1.256345 -1.58199,3.654822 -2.16536,5.329949 -1.84086,5.285912 -5.67447,9.78673 -9.26828,10.881338 -2.15552,0.656532 -9.82582,0.803246 -11.85966,0.226843 z m 31.78749,0.107014 c -2.02661,-0.40095 -4.26261,-1.549626 -5.41024,-2.77934 -0.89344,-0.957351 -1.93674,-4.411009 -1.94819,-6.449134 -0.003,-0.58243 0.34744,-2.107973 0.77936,-3.390094 2.84938,-8.458265 7.00996,-12.742341 14.57369,-15.006267 4.10188,-1.227747 7.11329,-1.212464 9.64462,0.04895 2.1024,1.047671 6.21466,5.072499 6.21466,6.082529 0,0.345738 -0.48481,1.113426 -1.07736,1.705974 -0.82004,0.820036 -1.59181,1.141635 -3.23125,1.34647 -2.99877,0.374671 -4.63729,-0.02742 -6.32497,-1.552136 -2.02336,-1.827982 -3.36241,-1.766959 -6.00758,0.273774 -2.29236,1.768546 -3.5584,3.690676 -4.45575,6.764807 -0.80599,2.761187 -0.77011,3.196162 0.37597,4.558205 1.40855,1.673967 3.58957,2.188558 5.76105,1.359263 2.12348,-0.810959 2.18007,-2.036946 0.1247,-2.701264 -0.72597,-0.234645 -1.47839,-0.677807 -1.67204,-0.984807 -0.56058,-0.888699 0.0841,-3.27657 1.23117,-4.560389 l 1.05367,-1.179266 5.47948,0.07498 c 3.20921,0.04391 5.68232,0.243325 5.96906,0.481297 0.74807,0.62084 0.588,2.047735 -0.46219,4.120193 -0.52348,1.033032 -0.95178,2.073205 -0.95178,2.311496 0,0.23829 -0.4283,1.28598 -0.95177,2.328198 -0.52348,1.042222 -0.95178,2.061342 -0.95178,2.264718 0,0.786784 -2.15691,3.068463 -3.4024,3.599223 -1.65697,0.706104 -8.14701,1.692202 -10.77657,1.637391 -1.10068,-0.02296 -2.71328,-0.182585 -3.58356,-0.354765 z m 41.17623,0.100618 c -1.21393,-0.265904 -1.60201,-0.759568 -1.85862,-2.364286 -0.28325,-1.771378 -0.80664,-2.117227 -3.76116,-2.485332 -2.75277,-0.342975 -3.94232,0.135141 -5.34018,2.146374 -0.58383,0.839996 -1.64907,1.772768 -2.36722,2.072829 -1.51342,0.632349 -5.98809,0.728265 -7.06586,0.151462 -0.99739,-0.533787 -0.9591,-2.333109 0.0693,-3.258819 0.44315,-0.398889 1.33043,-1.496189 1.97173,-2.438448 0.6413,-0.942258 3.06943,-4.282994 5.39584,-7.423857 2.32641,-3.140863 4.90798,-6.652918 5.73682,-7.804568 4.33008,-6.016506 5.53529,-6.845915 9.95468,-6.850668 2.72414,-0.0029 3.75168,0.469847 4.2733,1.966177 0.67411,1.933751 0.14266,23.034966 -0.61044,24.237357 -0.85887,1.371266 -4.36783,2.496517 -6.39823,2.051779 z m -2.21362,-11.953242 c 0.90534,-0.850524 1.20092,-2.736752 0.49702,-3.171783 -0.69776,-0.43124 -1.9415,0.242058 -2.67492,1.448062 -0.6676,1.097788 -0.67555,1.239198 -0.10508,1.869561 0.80187,0.886057 1.2125,0.859826 2.28298,-0.14584 z M 2.6683469,45.955634 C 1.5700675,45.399968 1.2724157,44.404402 1.8611565,43.255794 2.0885364,42.812186 2.8562094,40.821698 3.5670964,38.832485 7.2957372,28.398955 10.623666,20.420154 11.615667,19.535817 c 1.064791,-0.949227 3.741142,-1.465205 5.696872,-1.098307 2.433155,0.456463 3.224533,2.087646 4.953904,10.210965 0.893078,4.195022 2.074845,3.827992 3.596287,-1.116924 0.374709,-1.217861 1.224143,-3.608629 1.887629,-5.312817 1.190604,-3.058105 1.228255,-3.104042 2.886424,-3.521573 2.741675,-0.690362 4.305137,-0.541121 5.357679,0.511421 1.196867,1.196867 1.204499,2.745497 0.02501,5.074377 -1.090689,2.15354 -4.801193,11.799117 -4.801193,12.48086 0,0.264596 -0.661539,1.737718 -1.470086,3.273607 -0.808547,1.535886 -1.675136,3.42498 -1.925752,4.197986 -0.566335,1.746819 -2.145182,2.370149 -5.405968,2.134283 -3.899298,-0.282049 -4.407033,-0.99721 -6.297122,-8.869697 -0.595106,-2.478701 -0.86557,-3.045685 -1.452856,-3.045685 -0.584712,0 -1.059745,0.97511 -2.50379,5.139593 -1.541741,4.446228 -1.95068,5.255155 -3.0312723,5.996193 -1.435468,0.984399 -4.8573666,1.177934 -6.4630808,0.365535 z m 64.4338861,0.06565 c -2.488515,-0.718652 -2.532286,-1.009073 -2.439758,-16.188496 0.07075,-11.607041 -0.05525,-11.270886 4.307121,-11.491175 2.381269,-0.120249 2.952297,-0.02507 3.753243,0.625559 1.035918,0.841506 0.980418,-0.311558 0.630895,13.107592 -0.03682,1.413326 0.0414,2.569735 0.17381,2.569796 0.651594,3.03e-4 3.456,-3.338848 4.262638,-5.075439 0.823725,-1.773375 4.427977,-7.004614 6.862862,-9.960811 0.860832,-1.045135 1.188673,-1.157713 3.923592,-1.347327 3.6566,-0.253515 4.61009,-0.100089 5.103118,0.821141 0.491798,0.918933 0.272833,1.314372 -3.403321,6.146135 -1.630351,2.14286 -3.710688,5.009687 -4.622973,6.370728 -2.062352,3.076838 -7.23316,9.908603 -9.191494,12.143972 -1.137925,1.298901 -1.911883,1.789854 -3.450963,2.189087 -2.24526,0.582415 -4.103821,0.610484 -5.90877,0.08924 z m 52.821627,0.143406 c -2.38083,-0.429392 -2.47605,-1.845951 -0.38071,-5.663771 2.06854,-3.768994 2.03297,-4.976576 -0.34642,-11.758947 -1.02809,-2.930545 -2.09604,-5.891614 -2.37323,-6.580154 -0.42951,-1.06692 -0.41852,-1.404427 0.0744,-2.284264 1.19202,-2.127692 6.39231,-2.605208 8.22832,-0.755563 0.47242,0.475927 1.33684,2.234152 1.92093,3.907168 0.68321,1.95692 1.28615,3.084527 1.69049,3.161511 0.67296,0.128127 2.31378,-1.359955 5.65874,-5.131987 l 2.08839,-2.355025 3.61675,-0.238413 c 4.60847,-0.303786 5.33405,0.0689 4.64056,2.38354 -0.30611,1.021738 -1.00765,1.976133 -2.12646,2.892909 -0.91829,0.752475 -4.01142,3.917961 -6.8736,7.034415 -5.144,5.600964 -5.21833,5.707482 -6.44896,9.240771 -1.37415,3.945338 -1.85128,4.967942 -2.5908,5.552664 -0.55807,0.441248 -5.31563,0.858963 -6.7784,0.595146 z"
       id="path3358"
       inkscape:connector-curvature="0" />
    <path
       style="fill:#7588c6"
       d="m 143.77715,206.4828 c -0.45403,-1.5342 -1.06004,-5.89142 -2.90491,-20.88636 -1.05623,-8.58503 -2.34495,-18.86422 -2.8638,-22.84264 -1.96967,-15.10269 -5.9436,-47.70772 -6.14818,-50.44416 -0.19184,-2.56593 -0.13723,-2.90081 0.53879,-3.30403 0.41374,-0.24678 5.18567,-2.75071 10.60427,-5.56428 5.41861,-2.81357 13.19274,-6.873354 17.27587,-9.021731 6.87519,-3.617455 27.22403,-14.170225 46.8749,-24.309002 4.52802,-2.336212 8.33988,-4.247657 8.47081,-4.247657 0.68451,0 -0.18964,2.018585 -4.66615,10.77501 -2.6973,5.276154 -10.85853,21.328415 -18.13608,35.67169 -7.27754,14.34327 -15.06754,29.67639 -17.31112,34.0736 -2.24358,4.39721 -6.61344,12.9632 -9.7108,19.03553 -3.09735,6.07234 -8.36175,16.35152 -11.69865,22.84264 -3.3369,6.49112 -6.75985,13.17259 -7.60656,14.84771 -1.87275,3.70503 -2.41951,4.3836 -2.71839,3.37368 z m 48.65612,-22.67279 c 0.2194,-0.80442 17.86101,-36.17198 18.47885,-37.04606 0.14801,-0.20939 3.57511,-6.89086 7.61577,-14.84771 7.04489,-13.87277 9.18074,-17.70305 9.8716,-17.70305 0.45264,0 1.01231,2.54426 1.7168,7.80457 1.50466,11.23504 4.03003,32.70659 4.25753,36.19899 l 0.25005,3.83858 -1.17844,0.83912 c -0.64814,0.46152 -1.99974,1.20113 -3.00356,1.64358 -1.00382,0.44245 -2.33908,1.18885 -2.96725,1.65867 -0.62818,0.46981 -3.11231,1.83439 -5.52031,3.03238 -2.40799,1.198 -7.82968,4.05274 -12.04818,6.34387 -4.21851,2.29113 -8.58716,4.51289 -9.70813,4.93723 -1.12096,0.42434 -2.29508,0.99499 -2.60917,1.26812 -0.31409,0.27313 -1.65649,1.03967 -2.98313,1.70342 -2.37947,1.19052 -2.40882,1.19496 -2.17243,0.32829 z m 67.2114,-40.65239 c 0,-0.32657 6.26788,-12.56743 11.99422,-23.42412 1.10443,-2.09391 5.13185,-9.8033 8.94982,-17.13198 3.81798,-7.328683 9.46642,-18.12183 12.55211,-23.984774 3.08568,-5.862943 7.80147,-14.857232 10.47953,-19.987308 2.67806,-5.130076 7.56428,-14.467004 10.85825,-20.74873 3.29398,-6.281725 8.17081,-15.614003 10.8374,-20.738395 6.29438,-12.0959094 8.58851,-16.1401695 8.93306,-15.7478323 0.3787,0.4312306 1.32592,6.6598472 2.48012,16.3085643 0.526,4.397207 1.29414,10.47906 1.70698,13.515227 0.41284,3.036168 1.36582,10.745558 2.11773,17.131979 0.75192,6.386421 2.13752,17.693527 3.0791,25.126902 2.74093,21.638328 2.86687,22.7515 2.74207,24.238689 -0.11619,1.384599 -0.21198,1.464849 -4.49689,3.767408 -7.78487,4.1833 -77.2504,40.09016 -80.05733,41.38177 -1.63563,0.75264 -2.17617,0.82532 -2.17617,0.2926 z M 249.44455,93.749994 c -0.4004,-1.354066 -1.57607,-9.563577 -2.93049,-20.463196 -2.13273,-17.162904 -2.52517,-20.448487 -2.72859,-22.844329 l -0.22641,-2.666665 17.46539,-9.94298 c 25.01528,-14.241105 25.76425,-14.648182 26.18201,-14.230426 0.36124,0.361238 -3.16184,7.568074 -9.58553,19.608259 -1.564,2.931472 -6.00803,11.411802 -9.87561,18.845177 -12.7002,24.409392 -17.38304,33.121825 -17.80263,33.121825 -0.0418,0 -0.26595,-0.642449 -0.49814,-1.427665 z M 33.026649,44.91784 c -0.981664,-0.607835 -0.813202,-1.089293 1.263402,-3.610736 2.107347,-2.558771 4.439077,-5.681313 9.665949,-12.944162 1.959003,-2.722081 4.401921,-5.848667 5.428705,-6.947969 1.642565,-1.758578 2.047085,-1.998475 3.36672,-1.996607 2.077408,0.0029 4.265406,0.666497 4.688067,1.421756 0.335444,0.599403 0.1957,21.029619 -0.155821,22.781154 -0.186796,0.930747 -1.646787,1.68329 -3.265698,1.68329 -1.670566,0 -2.622034,-0.63562 -2.622034,-1.751623 0,-2.50915 -1.610772,-3.261815 -6.276008,-2.932584 -3.294053,0.232466 -5.526023,1.095857 -5.526023,2.137629 0,0.280664 -0.407391,0.893022 -0.905311,1.360794 -1.041873,0.978788 -4.567988,1.476422 -5.661948,0.799058 z m 17.79059,-8.875602 c 0.947129,-1.445503 2.089873,-6.327932 1.713042,-7.319068 -0.434482,-1.142775 -1.710754,-1.5208 -2.776614,-0.822419 -1.004231,0.657995 -4.068388,5.664696 -4.068388,6.647564 0,0.378594 0.266695,1.069112 0.592652,1.534485 0.865744,1.236018 3.71957,1.210517 4.539308,-0.04056 z m 17.210452,8.875309 c -2.235419,-0.671007 -2.164747,-0.261472 -2.164747,-12.544753 0,-11.02294 0.02075,-11.334462 0.80194,-12.040947 1.033146,-0.934342 4.263994,-0.96207 5.181598,-0.04447 0.567201,0.567203 0.580949,1.176361 0.149733,6.63432 -0.261148,3.305375 -0.563806,6.796225 -0.672575,7.757447 -0.20738,1.832666 0.430207,3.011208 1.629054,3.011208 0.654175,0 3.18493,-2.634248 3.187617,-3.317971 0.0011,-0.254452 0.479776,-1.025391 1.063942,-1.713198 0.58417,-0.687806 1.265775,-1.721686 1.514684,-2.297511 0.248905,-0.575825 0.604142,-1.046954 0.789415,-1.046954 0.185273,0 1.568341,-1.862483 3.073485,-4.138852 2.940978,-4.447917 4.172196,-5.40975 7.028539,-5.490716 1.762268,-0.04995 2.412529,0.545779 1.876892,1.719495 -0.551033,1.207446 -4.079726,6.017833 -6.615182,9.017948 -1.166167,1.379882 -2.773302,3.536795 -3.571409,4.79314 -0.79811,1.256345 -2.028301,2.927208 -2.733761,3.713025 -0.705457,0.785821 -1.282653,1.684755 -1.282653,1.997634 0,0.31288 -0.60442,1.237896 -1.343158,2.05559 -1.150527,1.273496 -1.687352,1.546653 -3.743113,1.90465 -2.706746,0.471358 -2.703088,0.471331 -4.170301,0.03091 z m 17.727384,-0.0056 c -0.471129,-0.189373 -0.856599,-0.480609 -0.856599,-0.647193 0,-0.567091 2.756037,-4.474907 4.368214,-6.193735 0.883793,-0.942259 2.002302,-2.398477 2.485576,-3.236041 0.483278,-0.837563 1.427067,-2.122461 2.097316,-2.855329 0.670245,-0.732868 1.859535,-2.317576 2.642863,-3.521574 0.783327,-1.203997 1.584982,-2.189086 1.781451,-2.189086 0.196474,0 0.674041,-0.739105 1.061262,-1.642455 1.071922,-2.500692 4.253772,-4.8332 6.585352,-4.827502 1.96511,0.0048 3.7561,0.793819 4.152,1.829153 0.53077,1.388038 0.009,21.933865 -0.57668,22.723996 -0.28992,0.390891 -1.18753,0.585681 -2.86453,0.621636 -2.63332,0.05646 -3.45871,-0.458445 -3.45871,-2.15767 0,-1.657032 -1.07704,-2.08015 -5.294998,-2.08015 l -3.902555,0 -2.193913,2.284264 c -1.966599,2.047584 -2.348068,2.281762 -3.681682,2.26013 -0.818273,-0.01329 -1.873237,-0.179071 -2.344367,-0.36844 z m 16.922955,-8.555307 c 0.44935,-0.314735 1.02376,-1.214164 1.27646,-1.99873 0.2527,-0.784567 0.61628,-1.624787 0.80795,-1.867157 0.19166,-0.24237 0.29783,-1.698588 0.23591,-3.236041 -0.10524,-2.61338 -0.17132,-2.80368 -1.01514,-2.923049 -0.68147,-0.0964 -1.30683,0.323287 -2.55274,1.713198 -0.92655,1.033644 -1.65764,2.234139 -1.667218,2.737698 -0.0094,0.49325 -0.445359,1.405824 -0.968837,2.027941 -1.104978,1.313194 -1.210873,2.439646 -0.321704,3.422166 0.775786,0.857235 3.062209,0.92464 4.205319,0.123974 z m 17.91207,8.536679 c -0.36643,-0.213426 -0.66375,-0.679348 -0.6607,-1.035377 0.007,-0.850271 0.89597,-3.313987 1.87613,-5.201173 0.43082,-0.829491 0.7833,-2.126124 0.7833,-2.881409 0,-1.610034 -0.92936,-4.926218 -1.93259,-6.896011 -0.86357,-1.695556 -2.25136,-6.745975 -2.01964,-7.349831 0.17249,-0.449501 3.029,-1.351895 4.2794,-1.351895 1.0694,0 1.87215,1.139737 2.87081,4.075907 1.31975,3.880234 1.60176,4.299727 2.89056,4.299727 0.8382,0 1.37464,-0.347923 2.17569,-1.411104 0.58475,-0.776107 2.33496,-2.746284 3.88935,-4.378172 l 2.82618,-2.967069 2.55822,0 c 1.97516,0 2.61058,0.136443 2.78795,0.598645 0.30487,0.794489 -0.34838,1.957703 -1.26235,2.247782 -0.4038,0.128161 -1.09419,0.843201 -1.53421,1.588976 -1.28337,2.175149 -7.69825,8.893771 -9.15373,9.587162 -1.16031,0.552767 -1.44269,0.979162 -2.18528,3.299769 -1.42928,4.466478 -2.03636,5.882783 -3.02539,7.058181 -0.80509,0.956791 -1.21653,1.12535 -2.72292,1.11552 -0.976,-0.0064 -2.07435,-0.186198 -2.44078,-0.399628 z m 26.60207,-0.119981 c -0.81144,-0.304702 -2.04712,-1.108191 -2.74596,-1.785536 -1.88053,-1.822679 -1.99449,-3.472603 -0.55974,-8.104465 0.64036,-2.067314 1.16429,-4.044097 1.16429,-4.392852 0,-0.348755 0.34111,-1.303166 0.75802,-2.120912 0.41691,-0.817747 0.87012,-2.084362 1.00713,-2.8147 0.27993,-1.492138 2.46305,-4.580356 3.70272,-5.237814 1.42466,-0.755573 3.79598,-0.981361 4.5453,-0.432788 0.648,0.474385 0.58177,0.784626 -1.20228,5.632466 -1.03843,2.821736 -2.35927,6.147402 -2.9352,7.390371 -1.44584,3.120388 -1.46216,5.313031 -0.0486,6.529166 1.31722,1.133276 3.57866,1.212578 5.80036,0.203406 1.91514,-0.869932 3.32824,-2.517059 4.19077,-4.884841 0.36532,-1.002875 1.08528,-2.851329 1.5999,-4.107674 0.51461,-1.256345 1.02877,-2.798223 1.14258,-3.426395 0.11381,-0.628173 0.58482,-1.741752 1.04669,-2.47462 0.46187,-0.732868 0.95483,-1.695362 1.09546,-2.138876 0.41567,-1.310894 1.51225,-2.037364 3.79952,-2.517124 1.8763,-0.39356 2.23209,-0.371712 2.77415,0.170358 0.57529,0.575282 0.55873,0.742861 -0.22124,2.239256 -0.76532,1.468304 -2.83301,7.034101 -3.30961,8.908823 -0.10646,0.418781 -1.07755,2.528638 -2.15796,4.68857 -2.26262,4.523363 -5.17664,7.698273 -7.72075,8.411964 -2.59944,0.729217 -10.04068,0.896894 -11.72553,0.264217 z m 32.02259,0.149399 c -1.94819,-0.585975 -4.47878,-1.971617 -4.84273,-2.651665 -0.94217,-1.760456 -1.11091,-4.022832 -0.54513,-7.308864 0.77042,-4.474572 3.58782,-9.315601 6.66676,-11.45523 1.13141,-0.786241 2.39974,-1.671044 2.81852,-1.966231 1.16392,-0.82041 8.51115,-2.22079 10.23399,-1.950594 4.50748,0.706916 8.83407,4.780833 7.0122,6.602698 -0.91037,0.910375 -4.25671,0.541392 -6.64281,-0.732468 -4.60775,-2.459926 -6.37855,-2.135191 -10.01856,1.837242 -1.84493,2.013424 -2.43822,3.006529 -3.24706,5.43523 -1.02594,3.080629 -1.01368,4.063394 0.0777,6.228132 0.76235,1.51208 3.53248,2.692629 5.64028,2.403727 2.3884,-0.327369 3.50003,-0.967538 4.1844,-2.409735 0.75183,-1.584362 0.62249,-2.450805 -0.44533,-2.983166 -3.22407,-1.607375 -2.47221,-3.829059 1.46337,-4.324142 1.98315,-0.249473 6.45092,0.08375 7.18215,0.535673 0.22931,0.14172 0.16613,0.619649 -0.16527,1.250178 -0.52137,0.991991 -2.06029,5.183813 -2.7508,7.49283 -0.26816,0.896726 -0.86281,1.398705 -2.76754,2.336231 -1.33429,0.656757 -3.37587,1.384866 -4.53684,1.61802 -2.4188,0.485764 -7.76207,0.509928 -9.31733,0.04213 z m 23.39666,0.104756 c -0.69253,-0.08535 -1.34488,-0.378609 -1.44967,-0.651689 -0.19889,-0.518296 1.32178,-2.769293 4.70754,-6.968401 1.0993,-1.363386 1.99873,-2.61221 1.99873,-2.775165 0,-0.162954 0.55679,-0.988731 1.23731,-1.835059 0.68052,-0.846327 1.97679,-2.532904 2.8806,-3.747949 6.44039,-8.658219 7.28225,-9.385321 10.87684,-9.394167 1.57841,-0.0039 2.0024,0.160709 2.79869,1.086448 0.87042,1.011921 0.92048,1.286364 0.69041,3.785143 -0.13643,1.481763 -0.38689,6.416838 -0.55657,10.966833 -0.21246,5.697018 -0.45808,8.452929 -0.78888,8.851521 -0.57743,0.695768 -4.19942,0.802047 -4.8589,0.142576 -0.23992,-0.239927 -0.34161,-0.909308 -0.22597,-1.487516 0.30983,-1.549127 -0.90836,-2.128595 -5.09433,-2.423303 -3.32341,-0.233981 -3.58748,-0.196097 -4.95872,0.711342 -0.7966,0.527167 -1.75964,1.485419 -2.14007,2.129448 -0.69728,1.180401 -2.03258,1.938487 -3.21641,1.826041 -0.3528,-0.0335 -1.20808,-0.130755 -1.9006,-0.216103 z m 15.89413,-8.6581 c 1.29206,-0.668152 1.92592,-2.27836 1.92592,-4.892462 0,-3.427322 -1.96637,-4.395918 -3.61675,-1.781542 -0.52873,0.837563 -1.1119,1.522842 -1.29592,1.522842 -0.41218,0 -1.55941,2.790613 -1.55941,3.793223 0,0.894508 1.37546,1.917437 2.57824,1.917437 0.48728,0 1.37285,-0.251774 1.96792,-0.559498 z M 3.680203,44.670047 c -0.5661294,-0.566128 -0.1626309,-2.217621 1.6497462,-6.752303 1.0469543,-2.619546 1.9035533,-5.017447 1.9035533,-5.328669 0,-0.311222 0.3298191,-1.132441 0.7329316,-1.82493 0.4031128,-0.692489 1.3548072,-2.886609 2.1148769,-4.875822 0.760069,-1.989213 1.590074,-4.039431 1.844455,-4.55604 0.579909,-1.177712 2.627662,-1.711418 4.885183,-1.273225 1.631304,0.316642 1.664954,0.355085 2.504757,2.861559 0.468182,1.397333 1.106275,4.117448 1.417985,6.0447 0.597534,3.694457 1.262432,4.91793 2.672657,4.91793 1.403394,0 2.404272,-1.529985 3.211317,-4.908953 0.417527,-1.748121 1.010504,-3.457414 1.317726,-3.79843 0.307222,-0.341015 0.682576,-1.133987 0.83412,-1.76216 0.67221,-2.786408 3.125942,-4.385369 5.473729,-3.566926 1.411068,0.491901 1.688195,1.663429 0.793454,3.354252 -1.926555,3.640679 -4.199206,9.316528 -4.963213,12.395415 -0.467632,1.884517 -1.1605,3.864574 -1.539706,4.400127 -0.379206,0.53555 -0.972067,1.680019 -1.317468,2.543262 -0.456186,1.140121 -0.947619,1.680951 -1.796224,1.976775 -1.330018,0.463648 -4.459359,0.534792 -5.097312,0.115884 -0.834527,-0.547987 -2.42947,-4.275917 -2.435317,-5.692176 -0.0087,-2.101765 -0.942585,-5.734967 -1.685047,-6.555377 -1.582481,-1.748623 -3.089844,-1.096081 -3.578776,1.549262 -0.179335,0.970284 -0.700719,2.290308 -1.158632,2.933387 -0.457912,0.643079 -1.160599,2.419008 -1.561527,3.946506 -0.8795768,3.351114 -1.6496265,4.10976 -4.1715369,4.10976 -0.9888586,0 -1.9121383,-0.114213 -2.0517321,-0.253808 z"
       id="path3356"
       inkscape:connector-curvature="0" />
    <path
       style="fill:#d95d5e"
       d="m 143.77715,206.4828 c -0.45403,-1.5342 -1.06004,-5.89142 -2.90491,-20.88636 -1.05623,-8.58503 -2.34495,-18.86422 -2.8638,-22.84264 -1.96967,-15.10269 -5.9436,-47.70772 -6.14818,-50.44416 -0.19184,-2.56593 -0.13723,-2.90081 0.53879,-3.30403 0.41374,-0.24678 5.18567,-2.75071 10.60427,-5.56428 5.41861,-2.81357 13.19274,-6.873354 17.27587,-9.021731 6.87519,-3.617455 27.22403,-14.170225 46.8749,-24.309002 4.52802,-2.336212 8.33988,-4.247657 8.47081,-4.247657 0.68451,0 -0.18964,2.018585 -4.66615,10.77501 -2.6973,5.276154 -10.85853,21.328415 -18.13608,35.67169 -7.27754,14.34327 -15.06754,29.67639 -17.31112,34.0736 -2.24358,4.39721 -6.61344,12.9632 -9.7108,19.03553 -3.09735,6.07234 -8.36175,16.35152 -11.69865,22.84264 -3.3369,6.49112 -6.75985,13.17259 -7.60656,14.84771 -1.87275,3.70503 -2.41951,4.3836 -2.71839,3.37368 z m 48.65612,-22.67279 c 0.2194,-0.80442 17.86101,-36.17198 18.47885,-37.04606 0.14801,-0.20939 3.57511,-6.89086 7.61577,-14.84771 7.04489,-13.87277 9.18074,-17.70305 9.8716,-17.70305 0.45264,0 1.01231,2.54426 1.7168,7.80457 1.50466,11.23504 4.03003,32.70659 4.25753,36.19899 l 0.25005,3.83858 -1.17844,0.83912 c -0.64814,0.46152 -1.99974,1.20113 -3.00356,1.64358 -1.00382,0.44245 -2.33908,1.18885 -2.96725,1.65867 -0.62818,0.46981 -3.11231,1.83439 -5.52031,3.03238 -2.40799,1.198 -7.82968,4.05274 -12.04818,6.34387 -4.21851,2.29113 -8.58716,4.51289 -9.70813,4.93723 -1.12096,0.42434 -2.29508,0.99499 -2.60917,1.26812 -0.31409,0.27313 -1.65649,1.03967 -2.98313,1.70342 -2.37947,1.19052 -2.40882,1.19496 -2.17243,0.32829 z m 67.59211,-40.78426 c 0,-0.32727 0.15901,-0.69331 0.35335,-0.81342 0.19435,-0.12011 2.48472,-4.37039 5.08973,-9.44506 2.60501,-5.07466 7.55748,-14.62324 11.0055,-21.21905 12.34104,-23.607508 23.67162,-45.225705 27.13731,-51.77665 1.93857,-3.66434 4.68713,-8.889593 6.10792,-11.611674 1.42078,-2.722082 4.29563,-8.204315 6.38855,-12.182741 2.09293,-3.978426 4.60939,-8.77538 5.59215,-10.659898 0.98275,-1.884517 3.39499,-6.510152 5.36052,-10.279187 1.96553,-3.769035 4.32328,-8.3747997 5.23944,-10.2350326 1.79396,-3.6425723 2.32813,-3.7879663 2.33899,-0.6366411 0.003,0.9304774 0.26895,3.7572538 0.59055,6.2817257 0.32159,2.524471 0.83647,6.560126 1.14416,8.96812 0.30769,2.407995 0.71495,5.663071 0.90501,7.233503 0.19007,1.570431 0.70151,5.682106 1.13653,9.137055 1.2665,10.05858 2.62796,21.805373 3.2652,28.172587 0.32483,3.245558 0.84229,7.699873 1.14991,9.898476 2.76584,19.767426 3.19544,24.067708 2.48937,24.918471 -0.55391,0.667416 -4.04763,2.555756 -16.57592,8.959206 -4.6066,2.35452 -10.85977,5.61147 -13.89594,7.23766 -4.52801,2.42525 -33.42417,17.35031 -49.30203,25.46484 -2.09391,1.07011 -4.19257,2.224 -4.6637,2.5642 -0.76673,0.55365 -0.8566,0.55612 -0.8566,0.0235 z m -10.43977,-49.0854 c -0.0963,-0.47113 -0.70118,-5.482234 -1.34418,-11.135787 -0.643,-5.653553 -1.42125,-12.078045 -1.72944,-14.276648 -1.16681,-8.323835 -2.47759,-19.867838 -2.29032,-20.170846 0.27716,-0.44845 8.73362,-5.490152 13.90016,-8.287198 1.15164,-0.623479 4.32106,-2.414669 7.04314,-3.980421 2.72208,-1.565753 7.26206,-4.079632 10.08883,-5.586398 2.82678,-1.506765 5.32346,-2.861674 5.54817,-3.010908 0.22471,-0.149233 1.24334,-0.828123 2.26362,-1.508643 1.91871,-1.279768 3.22955,-1.588983 3.22785,-0.761421 -3.9e-4,0.261738 -0.60864,1.483632 -1.35133,2.715318 -0.7427,1.231687 -2.46171,4.47674 -3.82002,7.211228 -1.35832,2.734489 -2.62661,5.160906 -2.81843,5.392035 -0.19182,0.23113 -1.14791,2.040011 -2.12463,4.019733 -0.97673,1.979726 -2.1316,4.100825 -2.56638,4.713556 -0.43478,0.612727 -2.14531,3.782143 -3.80118,7.043147 -2.91267,5.73611 -5.649,11.009805 -9.00252,17.350411 -0.88596,1.675127 -1.82819,3.302665 -2.09384,3.616751 -0.72454,0.85666 -5.97013,11.430491 -7.79078,15.704314 -0.86464,2.02966 -1.08621,2.187186 -1.33872,0.951777 z M 33.026649,44.91784 c -0.981664,-0.607835 -0.813202,-1.089293 1.263402,-3.610736 2.107347,-2.558771 4.439077,-5.681313 9.665949,-12.944162 1.959003,-2.722081 4.401921,-5.848667 5.428705,-6.947969 1.642565,-1.758578 2.047085,-1.998475 3.36672,-1.996607 2.077408,0.0029 4.265406,0.666497 4.688067,1.421756 0.335444,0.599403 0.1957,21.029619 -0.155821,22.781154 -0.186796,0.930747 -1.646787,1.68329 -3.265698,1.68329 -1.670566,0 -2.622034,-0.63562 -2.622034,-1.751623 0,-2.50915 -1.610772,-3.261815 -6.276008,-2.932584 -3.294053,0.232466 -5.526023,1.095857 -5.526023,2.137629 0,0.280664 -0.407391,0.893022 -0.905311,1.360794 -1.041873,0.978788 -4.567988,1.476422 -5.661948,0.799058 z m 17.79059,-8.875602 c 0.947129,-1.445503 2.089873,-6.327932 1.713042,-7.319068 -0.434482,-1.142775 -1.710754,-1.5208 -2.776614,-0.822419 -1.004231,0.657995 -4.068388,5.664696 -4.068388,6.647564 0,0.378594 0.266695,1.069112 0.592652,1.534485 0.865744,1.236018 3.71957,1.210517 4.539308,-0.04056 z m 17.210452,8.875309 c -2.235419,-0.671007 -2.164747,-0.261472 -2.164747,-12.544753 0,-11.02294 0.02075,-11.334462 0.80194,-12.040947 1.033146,-0.934342 4.263994,-0.96207 5.181598,-0.04447 0.567201,0.567203 0.580949,1.176361 0.149733,6.63432 -0.261148,3.305375 -0.563806,6.796225 -0.672575,7.757447 -0.20738,1.832666 0.430207,3.011208 1.629054,3.011208 0.654175,0 3.18493,-2.634248 3.187617,-3.317971 0.0011,-0.254452 0.479776,-1.025391 1.063942,-1.713198 0.58417,-0.687806 1.265775,-1.721686 1.514684,-2.297511 0.248905,-0.575825 0.604142,-1.046954 0.789415,-1.046954 0.185273,0 1.568341,-1.862483 3.073485,-4.138852 2.940978,-4.447917 4.172196,-5.40975 7.028539,-5.490716 1.762268,-0.04995 2.412529,0.545779 1.876892,1.719495 -0.551033,1.207446 -4.079726,6.017833 -6.615182,9.017948 -1.166167,1.379882 -2.773302,3.536795 -3.571409,4.79314 -0.79811,1.256345 -2.028301,2.927208 -2.733761,3.713025 -0.705457,0.785821 -1.282653,1.684755 -1.282653,1.997634 0,0.31288 -0.60442,1.237896 -1.343158,2.05559 -1.150527,1.273496 -1.687352,1.546653 -3.743113,1.90465 -2.706746,0.471358 -2.703088,0.471331 -4.170301,0.03091 z m 17.727384,-0.0056 c -0.471129,-0.189373 -0.856599,-0.480609 -0.856599,-0.647193 0,-0.567091 2.756037,-4.474907 4.368214,-6.193735 0.883793,-0.942259 2.002302,-2.398477 2.485576,-3.236041 0.483278,-0.837563 1.427067,-2.122461 2.097316,-2.855329 0.670245,-0.732868 1.859535,-2.317576 2.642863,-3.521574 0.783327,-1.203997 1.584982,-2.189086 1.781451,-2.189086 0.196474,0 0.674041,-0.739105 1.061262,-1.642455 1.071922,-2.500692 4.253772,-4.8332 6.585352,-4.827502 1.96511,0.0048 3.7561,0.793819 4.152,1.829153 0.53077,1.388038 0.009,21.933865 -0.57668,22.723996 -0.28992,0.390891 -1.18753,0.585681 -2.86453,0.621636 -2.63332,0.05646 -3.45871,-0.458445 -3.45871,-2.15767 0,-1.657032 -1.07704,-2.08015 -5.294998,-2.08015 l -3.902555,0 -2.193913,2.284264 c -1.966599,2.047584 -2.348068,2.281762 -3.681682,2.26013 -0.818273,-0.01329 -1.873237,-0.179071 -2.344367,-0.36844 z m 16.922955,-8.555307 c 0.44935,-0.314735 1.02376,-1.214164 1.27646,-1.99873 0.2527,-0.784567 0.61628,-1.624787 0.80795,-1.867157 0.19166,-0.24237 0.29783,-1.698588 0.23591,-3.236041 -0.10524,-2.61338 -0.17132,-2.80368 -1.01514,-2.923049 -0.68147,-0.0964 -1.30683,0.323287 -2.55274,1.713198 -0.92655,1.033644 -1.65764,2.234139 -1.667218,2.737698 -0.0094,0.49325 -0.445359,1.405824 -0.968837,2.027941 -1.104978,1.313194 -1.210873,2.439646 -0.321704,3.422166 0.775786,0.857235 3.062209,0.92464 4.205319,0.123974 z m 17.91207,8.536679 c -0.36643,-0.213426 -0.66375,-0.679348 -0.6607,-1.035377 0.007,-0.850271 0.89597,-3.313987 1.87613,-5.201173 0.43082,-0.829491 0.7833,-2.126124 0.7833,-2.881409 0,-1.610034 -0.92936,-4.926218 -1.93259,-6.896011 -0.86357,-1.695556 -2.25136,-6.745975 -2.01964,-7.349831 0.17249,-0.449501 3.029,-1.351895 4.2794,-1.351895 1.0694,0 1.87215,1.139737 2.87081,4.075907 1.31975,3.880234 1.60176,4.299727 2.89056,4.299727 0.8382,0 1.37464,-0.347923 2.17569,-1.411104 0.58475,-0.776107 2.33496,-2.746284 3.88935,-4.378172 l 2.82618,-2.967069 2.55822,0 c 1.97516,0 2.61058,0.136443 2.78795,0.598645 0.30487,0.794489 -0.34838,1.957703 -1.26235,2.247782 -0.4038,0.128161 -1.09419,0.843201 -1.53421,1.588976 -1.28337,2.175149 -7.69825,8.893771 -9.15373,9.587162 -1.16031,0.552767 -1.44269,0.979162 -2.18528,3.299769 -1.42928,4.466478 -2.03636,5.882783 -3.02539,7.058181 -0.80509,0.956791 -1.21653,1.12535 -2.72292,1.11552 -0.976,-0.0064 -2.07435,-0.186198 -2.44078,-0.399628 z m 26.60207,-0.119981 c -0.81144,-0.304702 -2.04712,-1.108191 -2.74596,-1.785536 -1.88053,-1.822679 -1.99449,-3.472603 -0.55974,-8.104465 0.64036,-2.067314 1.16429,-4.044097 1.16429,-4.392852 0,-0.348755 0.34111,-1.303166 0.75802,-2.120912 0.41691,-0.817747 0.87012,-2.084362 1.00713,-2.8147 0.27993,-1.492138 2.46305,-4.580356 3.70272,-5.237814 1.42466,-0.755573 3.79598,-0.981361 4.5453,-0.432788 0.648,0.474385 0.58177,0.784626 -1.20228,5.632466 -1.03843,2.821736 -2.35927,6.147402 -2.9352,7.390371 -1.44584,3.120388 -1.46216,5.313031 -0.0486,6.529166 1.31722,1.133276 3.57866,1.212578 5.80036,0.203406 1.91514,-0.869932 3.32824,-2.517059 4.19077,-4.884841 0.36532,-1.002875 1.08528,-2.851329 1.5999,-4.107674 0.51461,-1.256345 1.02877,-2.798223 1.14258,-3.426395 0.11381,-0.628173 0.58482,-1.741752 1.04669,-2.47462 0.46187,-0.732868 0.95483,-1.695362 1.09546,-2.138876 0.41567,-1.310894 1.51225,-2.037364 3.79952,-2.517124 1.8763,-0.39356 2.23209,-0.371712 2.77415,0.170358 0.57529,0.575282 0.55873,0.742861 -0.22124,2.239256 -0.76532,1.468304 -2.83301,7.034101 -3.30961,8.908823 -0.10646,0.418781 -1.07755,2.528638 -2.15796,4.68857 -2.26262,4.523363 -5.17664,7.698273 -7.72075,8.411964 -2.59944,0.729217 -10.04068,0.896894 -11.72553,0.264217 z m 32.02259,0.149399 c -1.94819,-0.585975 -4.47878,-1.971617 -4.84273,-2.651665 -0.94217,-1.760456 -1.11091,-4.022832 -0.54513,-7.308864 0.77042,-4.474572 3.58782,-9.315601 6.66676,-11.45523 1.13141,-0.786241 2.39974,-1.671044 2.81852,-1.966231 1.16392,-0.82041 8.51115,-2.22079 10.23399,-1.950594 4.50748,0.706916 8.83407,4.780833 7.0122,6.602698 -0.91037,0.910375 -4.25671,0.541392 -6.64281,-0.732468 -4.60775,-2.459926 -6.37855,-2.135191 -10.01856,1.837242 -1.84493,2.013424 -2.43822,3.006529 -3.24706,5.43523 -1.02594,3.080629 -1.01368,4.063394 0.0777,6.228132 0.76235,1.51208 3.53248,2.692629 5.64028,2.403727 2.3884,-0.327369 3.50003,-0.967538 4.1844,-2.409735 0.75183,-1.584362 0.62249,-2.450805 -0.44533,-2.983166 -3.22407,-1.607375 -2.47221,-3.829059 1.46337,-4.324142 1.98315,-0.249473 6.45092,0.08375 7.18215,0.535673 0.22931,0.14172 0.16613,0.619649 -0.16527,1.250178 -0.52137,0.991991 -2.06029,5.183813 -2.7508,7.49283 -0.26816,0.896726 -0.86281,1.398705 -2.76754,2.336231 -1.33429,0.656757 -3.37587,1.384866 -4.53684,1.61802 -2.4188,0.485764 -7.76207,0.509928 -9.31733,0.04213 z m 23.39666,0.104756 c -0.69253,-0.08535 -1.34488,-0.378609 -1.44967,-0.651689 -0.19889,-0.518296 1.32178,-2.769293 4.70754,-6.968401 1.0993,-1.363386 1.99873,-2.61221 1.99873,-2.775165 0,-0.162954 0.55679,-0.988731 1.23731,-1.835059 0.68052,-0.846327 1.97679,-2.532904 2.8806,-3.747949 6.44039,-8.658219 7.28225,-9.385321 10.87684,-9.394167 1.57841,-0.0039 2.0024,0.160709 2.79869,1.086448 0.87042,1.011921 0.92048,1.286364 0.69041,3.785143 -0.13643,1.481763 -0.38689,6.416838 -0.55657,10.966833 -0.21246,5.697018 -0.45808,8.452929 -0.78888,8.851521 -0.57743,0.695768 -4.19942,0.802047 -4.8589,0.142576 -0.23992,-0.239927 -0.34161,-0.909308 -0.22597,-1.487516 0.30983,-1.549127 -0.90836,-2.128595 -5.09433,-2.423303 -3.32341,-0.233981 -3.58748,-0.196097 -4.95872,0.711342 -0.7966,0.527167 -1.75964,1.485419 -2.14007,2.129448 -0.69728,1.180401 -2.03258,1.938487 -3.21641,1.826041 -0.3528,-0.0335 -1.20808,-0.130755 -1.9006,-0.216103 z m 15.89413,-8.6581 c 1.29206,-0.668152 1.92592,-2.27836 1.92592,-4.892462 0,-3.427322 -1.96637,-4.395918 -3.61675,-1.781542 -0.52873,0.837563 -1.1119,1.522842 -1.29592,1.522842 -0.41218,0 -1.55941,2.790613 -1.55941,3.793223 0,0.894508 1.37546,1.917437 2.57824,1.917437 0.48728,0 1.37285,-0.251774 1.96792,-0.559498 z M 3.680203,44.670047 c -0.5661294,-0.566128 -0.1626309,-2.217621 1.6497462,-6.752303 1.0469543,-2.619546 1.9035533,-5.017447 1.9035533,-5.328669 0,-0.311222 0.3298191,-1.132441 0.7329316,-1.82493 0.4031128,-0.692489 1.3548072,-2.886609 2.1148769,-4.875822 0.760069,-1.989213 1.590074,-4.039431 1.844455,-4.55604 0.579909,-1.177712 2.627662,-1.711418 4.885183,-1.273225 1.631304,0.316642 1.664954,0.355085 2.504757,2.861559 0.468182,1.397333 1.106275,4.117448 1.417985,6.0447 0.597534,3.694457 1.262432,4.91793 2.672657,4.91793 1.403394,0 2.404272,-1.529985 3.211317,-4.908953 0.417527,-1.748121 1.010504,-3.457414 1.317726,-3.79843 0.307222,-0.341015 0.682576,-1.133987 0.83412,-1.76216 0.67221,-2.786408 3.125942,-4.385369 5.473729,-3.566926 1.411068,0.491901 1.688195,1.663429 0.793454,3.354252 -1.926555,3.640679 -4.199206,9.316528 -4.963213,12.395415 -0.467632,1.884517 -1.1605,3.864574 -1.539706,4.400127 -0.379206,0.53555 -0.972067,1.680019 -1.317468,2.543262 -0.456186,1.140121 -0.947619,1.680951 -1.796224,1.976775 -1.330018,0.463648 -4.459359,0.534792 -5.097312,0.115884 -0.834527,-0.547987 -2.42947,-4.275917 -2.435317,-5.692176 -0.0087,-2.101765 -0.942585,-5.734967 -1.685047,-6.555377 -1.582481,-1.748623 -3.089844,-1.096081 -3.578776,1.549262 -0.179335,0.970284 -0.700719,2.290308 -1.158632,2.933387 -0.457912,0.643079 -1.160599,2.419008 -1.561527,3.946506 -0.8795768,3.351114 -1.6496265,4.10976 -4.1715369,4.10976 -0.9888586,0 -1.9121383,-0.114213 -2.0517321,-0.253808 z"
       id="path3354"
       inkscape:connector-curvature="0" />
    <path
       style="fill:#676767"
       d="m 143.77216,202.82359 c -0.53936,-3.01685 -4.11106,-30.99006 -6.55023,-51.30076 -0.51551,-4.29251 -1.62811,-13.37246 -2.47247,-20.17766 -2.18171,-17.5839 -2.36344,-19.34156 -2.10587,-20.36781 0.15728,-0.62662 1.217,-1.52371 3.35215,-2.83769 1.7172,-1.05677 3.32501,-1.9214 3.57292,-1.9214 0.24791,0 1.79695,-0.74198 3.44231,-1.64884 14.18987,-7.820944 24.60702,-13.3575 42.39512,-22.53236 6.38642,-3.294027 15.14184,-7.847311 19.4565,-10.118402 4.31465,-2.271091 8.31719,-4.308852 8.89453,-4.528355 0.97867,-0.372091 1.0347,-0.34066 0.82788,0.464429 -0.2014,0.783982 -9.70606,19.651777 -23.44899,46.548808 -2.88866,5.65355 -8.70162,17.04631 -12.91768,25.31725 -4.21607,8.27094 -7.91541,15.46637 -8.22076,15.98985 -0.30535,0.52348 -1.12422,2.15102 -1.81972,3.61675 -1.47544,3.10942 -9.22234,18.18749 -11.35813,22.10671 -0.8064,1.47976 -1.81412,3.00536 -2.2394,3.39023 -0.42526,0.38486 -0.77574,1.05867 -0.77883,1.49735 -0.003,0.43867 -0.25237,1.22589 -0.55396,1.74936 -0.30159,0.52348 -0.96522,1.82928 -1.47473,2.90177 -0.5095,1.0725 -1.10478,2.06026 -1.32284,2.19503 -0.45974,0.28413 -2.56744,4.37327 -3.25991,6.32452 -0.58679,1.65345 -2.41368,4.56853 -2.86312,4.56853 -0.18346,0 -0.43311,-0.55679 -0.55477,-1.23731 z m 50.39027,-21.22686 c 0,-0.4817 10.56103,-21.49612 18.74923,-37.3074 4.82294,-9.313 6.35678,-11.96739 6.86516,-11.88052 0.73405,0.12544 0.90696,-0.53537 0.20161,-0.77049 -0.29504,-0.0983 0.18302,-1.40401 1.37071,-3.74366 3.71413,-7.31654 5.58212,-10.63578 5.98558,-10.63578 0.65869,0 1.31565,3.34615 2.42923,12.37309 0.3358,2.72208 0.76315,5.63452 0.94966,6.47208 0.18652,0.83757 0.52954,3.49302 0.76228,5.90102 0.23275,2.40799 0.75091,6.30185 1.15148,8.65302 0.52881,3.1039 0.63816,4.75738 0.3992,6.03646 -0.181,0.96889 -0.24303,2.40332 -0.13783,3.18763 0.18959,1.41353 0.16908,1.43901 -2.34263,2.91024 -1.39365,0.81632 -4.45372,2.5228 -6.80016,3.79218 -5.52823,2.99067 -12.434,6.77064 -13.40331,7.33649 -0.41878,0.24447 -1.53236,0.78981 -2.47462,1.21187 -0.94226,0.42205 -2.74112,1.35221 -3.99746,2.067 -2.84392,1.61805 -9.09176,4.77972 -9.44531,4.77972 -0.14455,0 -0.26282,-0.17232 -0.26282,-0.38295 z m 65.86295,-38.57098 c 0,-0.32727 0.15901,-0.69331 0.35335,-0.81342 0.19435,-0.12011 2.48472,-4.37039 5.08973,-9.44506 2.60501,-5.07466 7.55748,-14.62324 11.0055,-21.21905 12.34104,-23.607508 23.67162,-45.225705 27.13731,-51.77665 1.93857,-3.66434 4.68713,-8.889593 6.10792,-11.611674 1.42078,-2.722082 4.29563,-8.204315 6.38855,-12.182741 2.09293,-3.978426 4.60939,-8.77538 5.59215,-10.659898 0.98275,-1.884517 3.39499,-6.510152 5.36052,-10.279187 1.96553,-3.769035 4.32328,-8.3747997 5.23944,-10.2350326 1.79396,-3.6425723 2.32813,-3.7879663 2.33899,-0.6366411 0.003,0.9304774 0.26895,3.7572538 0.59055,6.2817257 0.32159,2.524471 0.83647,6.560126 1.14416,8.96812 0.30769,2.407995 0.71495,5.663071 0.90501,7.233503 0.19007,1.570431 0.70151,5.682106 1.13653,9.137055 1.2665,10.05858 2.62796,21.805373 3.2652,28.172587 0.32483,3.245558 0.84229,7.699873 1.14991,9.898476 2.76584,19.767426 3.19544,24.067708 2.48937,24.918471 -0.55391,0.667416 -4.04763,2.555756 -16.57592,8.959206 -4.6066,2.35452 -10.85977,5.61147 -13.89594,7.23766 -4.52801,2.42525 -33.42417,17.35031 -49.30203,25.46484 -2.09391,1.07011 -4.19257,2.224 -4.6637,2.5642 -0.76673,0.55365 -0.8566,0.55612 -0.8566,0.0235 z m -32.24345,-26.57342 c -0.28369,-0.34452 -0.32718,-0.75686 -0.11588,-1.09875 0.45157,-0.73066 0.8527,-0.27341 0.69593,0.7933 -0.1062,0.72261 -0.19712,0.77049 -0.58005,0.30545 z m 21.80368,-22.51198 c -0.0963,-0.47113 -0.70118,-5.482234 -1.34418,-11.135787 -0.643,-5.653553 -1.42125,-12.078045 -1.72944,-14.276648 -1.16681,-8.323835 -2.47759,-19.867838 -2.29032,-20.170846 0.27716,-0.44845 8.73362,-5.490152 13.90016,-8.287198 1.15164,-0.623479 4.32106,-2.414669 7.04314,-3.980421 2.72208,-1.565753 7.26206,-4.079632 10.08883,-5.586398 2.82678,-1.506765 5.32346,-2.861674 5.54817,-3.010908 0.22471,-0.149233 1.24334,-0.828123 2.26362,-1.508643 1.91871,-1.279768 3.22955,-1.588983 3.22785,-0.761421 -3.9e-4,0.261738 -0.60864,1.483632 -1.35133,2.715318 -0.7427,1.231687 -2.46171,4.47674 -3.82002,7.211228 -1.35832,2.734489 -2.62661,5.160906 -2.81843,5.392035 -0.19182,0.23113 -1.14791,2.040011 -2.12463,4.019733 -0.97673,1.979726 -2.1316,4.100825 -2.56638,4.713556 -0.43478,0.612727 -2.14531,3.782143 -3.80118,7.043147 -2.91267,5.73611 -5.649,11.009805 -9.00252,17.350411 -0.88596,1.675127 -1.82819,3.302665 -2.09384,3.616751 -0.72454,0.85666 -5.97013,11.430491 -7.79078,15.704314 -0.86464,2.02966 -1.08621,2.187186 -1.33872,0.951777 z M 33.026649,44.91784 c -0.981664,-0.607835 -0.813202,-1.089293 1.263402,-3.610736 2.107347,-2.558771 4.439077,-5.681313 9.665949,-12.944162 1.959003,-2.722081 4.401921,-5.848667 5.428705,-6.947969 1.642565,-1.758578 2.047085,-1.998475 3.36672,-1.996607 2.077408,0.0029 4.265406,0.666497 4.688067,1.421756 0.335444,0.599403 0.1957,21.029619 -0.155821,22.781154 -0.186796,0.930747 -1.646787,1.68329 -3.265698,1.68329 -1.670566,0 -2.622034,-0.63562 -2.622034,-1.751623 0,-2.50915 -1.610772,-3.261815 -6.276008,-2.932584 -3.294053,0.232466 -5.526023,1.095857 -5.526023,2.137629 0,0.280664 -0.407391,0.893022 -0.905311,1.360794 -1.041873,0.978788 -4.567988,1.476422 -5.661948,0.799058 z m 17.79059,-8.875602 c 0.947129,-1.445503 2.089873,-6.327932 1.713042,-7.319068 -0.434482,-1.142775 -1.710754,-1.5208 -2.776614,-0.822419 -1.004231,0.657995 -4.068388,5.664696 -4.068388,6.647564 0,0.378594 0.266695,1.069112 0.592652,1.534485 0.865744,1.236018 3.71957,1.210517 4.539308,-0.04056 z m 17.210452,8.875309 c -2.235419,-0.671007 -2.164747,-0.261472 -2.164747,-12.544753 0,-11.02294 0.02075,-11.334462 0.80194,-12.040947 1.033146,-0.934342 4.263994,-0.96207 5.181598,-0.04447 0.567201,0.567203 0.580949,1.176361 0.149733,6.63432 -0.261148,3.305375 -0.563806,6.796225 -0.672575,7.757447 -0.20738,1.832666 0.430207,3.011208 1.629054,3.011208 0.654175,0 3.18493,-2.634248 3.187617,-3.317971 0.0011,-0.254452 0.479776,-1.025391 1.063942,-1.713198 0.58417,-0.687806 1.265775,-1.721686 1.514684,-2.297511 0.248905,-0.575825 0.604142,-1.046954 0.789415,-1.046954 0.185273,0 1.568341,-1.862483 3.073485,-4.138852 2.940978,-4.447917 4.172196,-5.40975 7.028539,-5.490716 1.762268,-0.04995 2.412529,0.545779 1.876892,1.719495 -0.551033,1.207446 -4.079726,6.017833 -6.615182,9.017948 -1.166167,1.379882 -2.773302,3.536795 -3.571409,4.79314 -0.79811,1.256345 -2.028301,2.927208 -2.733761,3.713025 -0.705457,0.785821 -1.282653,1.684755 -1.282653,1.997634 0,0.31288 -0.60442,1.237896 -1.343158,2.05559 -1.150527,1.273496 -1.687352,1.546653 -3.743113,1.90465 -2.706746,0.471358 -2.703088,0.471331 -4.170301,0.03091 z m 17.727384,-0.0056 c -0.471129,-0.189373 -0.856599,-0.480609 -0.856599,-0.647193 0,-0.567091 2.756037,-4.474907 4.368214,-6.193735 0.883793,-0.942259 2.002302,-2.398477 2.485576,-3.236041 0.483278,-0.837563 1.427067,-2.122461 2.097316,-2.855329 0.670245,-0.732868 1.859535,-2.317576 2.642863,-3.521574 0.783327,-1.203997 1.584982,-2.189086 1.781451,-2.189086 0.196474,0 0.674041,-0.739105 1.061262,-1.642455 1.071922,-2.500692 4.253772,-4.8332 6.585352,-4.827502 1.96511,0.0048 3.7561,0.793819 4.152,1.829153 0.53077,1.388038 0.009,21.933865 -0.57668,22.723996 -0.28992,0.390891 -1.18753,0.585681 -2.86453,0.621636 -2.63332,0.05646 -3.45871,-0.458445 -3.45871,-2.15767 0,-1.657032 -1.07704,-2.08015 -5.294998,-2.08015 l -3.902555,0 -2.193913,2.284264 c -1.966599,2.047584 -2.348068,2.281762 -3.681682,2.26013 -0.818273,-0.01329 -1.873237,-0.179071 -2.344367,-0.36844 z m 16.922955,-8.555307 c 0.44935,-0.314735 1.02376,-1.214164 1.27646,-1.99873 0.2527,-0.784567 0.61628,-1.624787 0.80795,-1.867157 0.19166,-0.24237 0.29783,-1.698588 0.23591,-3.236041 -0.10524,-2.61338 -0.17132,-2.80368 -1.01514,-2.923049 -0.68147,-0.0964 -1.30683,0.323287 -2.55274,1.713198 -0.92655,1.033644 -1.65764,2.234139 -1.667218,2.737698 -0.0094,0.49325 -0.445359,1.405824 -0.968837,2.027941 -1.104978,1.313194 -1.210873,2.439646 -0.321704,3.422166 0.775786,0.857235 3.062209,0.92464 4.205319,0.123974 z m 17.91207,8.536679 c -0.36643,-0.213426 -0.66375,-0.679348 -0.6607,-1.035377 0.007,-0.850271 0.89597,-3.313987 1.87613,-5.201173 0.43082,-0.829491 0.7833,-2.126124 0.7833,-2.881409 0,-1.610034 -0.92936,-4.926218 -1.93259,-6.896011 -0.86357,-1.695556 -2.25136,-6.745975 -2.01964,-7.349831 0.17249,-0.449501 3.029,-1.351895 4.2794,-1.351895 1.0694,0 1.87215,1.139737 2.87081,4.075907 1.31975,3.880234 1.60176,4.299727 2.89056,4.299727 0.8382,0 1.37464,-0.347923 2.17569,-1.411104 0.58475,-0.776107 2.33496,-2.746284 3.88935,-4.378172 l 2.82618,-2.967069 2.55822,0 c 1.97516,0 2.61058,0.136443 2.78795,0.598645 0.30487,0.794489 -0.34838,1.957703 -1.26235,2.247782 -0.4038,0.128161 -1.09419,0.843201 -1.53421,1.588976 -1.28337,2.175149 -7.69825,8.893771 -9.15373,9.587162 -1.16031,0.552767 -1.44269,0.979162 -2.18528,3.299769 -1.42928,4.466478 -2.03636,5.882783 -3.02539,7.058181 -0.80509,0.956791 -1.21653,1.12535 -2.72292,1.11552 -0.976,-0.0064 -2.07435,-0.186198 -2.44078,-0.399628 z m 26.60207,-0.119981 c -0.81144,-0.304702 -2.04712,-1.108191 -2.74596,-1.785536 -1.88053,-1.822679 -1.99449,-3.472603 -0.55974,-8.104465 0.64036,-2.067314 1.16429,-4.044097 1.16429,-4.392852 0,-0.348755 0.34111,-1.303166 0.75802,-2.120912 0.41691,-0.817747 0.87012,-2.084362 1.00713,-2.8147 0.27993,-1.492138 2.46305,-4.580356 3.70272,-5.237814 1.42466,-0.755573 3.79598,-0.981361 4.5453,-0.432788 0.648,0.474385 0.58177,0.784626 -1.20228,5.632466 -1.03843,2.821736 -2.35927,6.147402 -2.9352,7.390371 -1.44584,3.120388 -1.46216,5.313031 -0.0486,6.529166 1.31722,1.133276 3.57866,1.212578 5.80036,0.203406 1.91514,-0.869932 3.32824,-2.517059 4.19077,-4.884841 0.36532,-1.002875 1.08528,-2.851329 1.5999,-4.107674 0.51461,-1.256345 1.02877,-2.798223 1.14258,-3.426395 0.11381,-0.628173 0.58482,-1.741752 1.04669,-2.47462 0.46187,-0.732868 0.95483,-1.695362 1.09546,-2.138876 0.41567,-1.310894 1.51225,-2.037364 3.79952,-2.517124 1.8763,-0.39356 2.23209,-0.371712 2.77415,0.170358 0.57529,0.575282 0.55873,0.742861 -0.22124,2.239256 -0.76532,1.468304 -2.83301,7.034101 -3.30961,8.908823 -0.10646,0.418781 -1.07755,2.528638 -2.15796,4.68857 -2.26262,4.523363 -5.17664,7.698273 -7.72075,8.411964 -2.59944,0.729217 -10.04068,0.896894 -11.72553,0.264217 z m 32.02259,0.149399 c -1.94819,-0.585975 -4.47878,-1.971617 -4.84273,-2.651665 -0.94217,-1.760456 -1.11091,-4.022832 -0.54513,-7.308864 0.77042,-4.474572 3.58782,-9.315601 6.66676,-11.45523 1.13141,-0.786241 2.39974,-1.671044 2.81852,-1.966231 1.16392,-0.82041 8.51115,-2.22079 10.23399,-1.950594 4.50748,0.706916 8.83407,4.780833 7.0122,6.602698 -0.91037,0.910375 -4.25671,0.541392 -6.64281,-0.732468 -4.60775,-2.459926 -6.37855,-2.135191 -10.01856,1.837242 -1.84493,2.013424 -2.43822,3.006529 -3.24706,5.43523 -1.02594,3.080629 -1.01368,4.063394 0.0777,6.228132 0.76235,1.51208 3.53248,2.692629 5.64028,2.403727 2.3884,-0.327369 3.50003,-0.967538 4.1844,-2.409735 0.75183,-1.584362 0.62249,-2.450805 -0.44533,-2.983166 -3.22407,-1.607375 -2.47221,-3.829059 1.46337,-4.324142 1.98315,-0.249473 6.45092,0.08375 7.18215,0.535673 0.22931,0.14172 0.16613,0.619649 -0.16527,1.250178 -0.52137,0.991991 -2.06029,5.183813 -2.7508,7.49283 -0.26816,0.896726 -0.86281,1.398705 -2.76754,2.336231 -1.33429,0.656757 -3.37587,1.384866 -4.53684,1.61802 -2.4188,0.485764 -7.76207,0.509928 -9.31733,0.04213 z m 23.39666,0.104756 c -0.69253,-0.08535 -1.34488,-0.378609 -1.44967,-0.651689 -0.19889,-0.518296 1.32178,-2.769293 4.70754,-6.968401 1.0993,-1.363386 1.99873,-2.61221 1.99873,-2.775165 0,-0.162954 0.55679,-0.988731 1.23731,-1.835059 0.68052,-0.846327 1.97679,-2.532904 2.8806,-3.747949 6.44039,-8.658219 7.28225,-9.385321 10.87684,-9.394167 1.57841,-0.0039 2.0024,0.160709 2.79869,1.086448 0.87042,1.011921 0.92048,1.286364 0.69041,3.785143 -0.13643,1.481763 -0.38689,6.416838 -0.55657,10.966833 -0.21246,5.697018 -0.45808,8.452929 -0.78888,8.851521 -0.57743,0.695768 -4.19942,0.802047 -4.8589,0.142576 -0.23992,-0.239927 -0.34161,-0.909308 -0.22597,-1.487516 0.30983,-1.549127 -0.90836,-2.128595 -5.09433,-2.423303 -3.32341,-0.233981 -3.58748,-0.196097 -4.95872,0.711342 -0.7966,0.527167 -1.75964,1.485419 -2.14007,2.129448 -0.69728,1.180401 -2.03258,1.938487 -3.21641,1.826041 -0.3528,-0.0335 -1.20808,-0.130755 -1.9006,-0.216103 z m 15.89413,-8.6581 c 1.29206,-0.668152 1.92592,-2.27836 1.92592,-4.892462 0,-3.427322 -1.96637,-4.395918 -3.61675,-1.781542 -0.52873,0.837563 -1.1119,1.522842 -1.29592,1.522842 -0.41218,0 -1.55941,2.790613 -1.55941,3.793223 0,0.894508 1.37546,1.917437 2.57824,1.917437 0.48728,0 1.37285,-0.251774 1.96792,-0.559498 z M 3.680203,44.670047 c -0.5661294,-0.566128 -0.1626309,-2.217621 1.6497462,-6.752303 1.0469543,-2.619546 1.9035533,-5.017447 1.9035533,-5.328669 0,-0.311222 0.3298191,-1.132441 0.7329316,-1.82493 0.4031128,-0.692489 1.3548072,-2.886609 2.1148769,-4.875822 0.760069,-1.989213 1.590074,-4.039431 1.844455,-4.55604 0.579909,-1.177712 2.627662,-1.711418 4.885183,-1.273225 1.631304,0.316642 1.664954,0.355085 2.504757,2.861559 0.468182,1.397333 1.106275,4.117448 1.417985,6.0447 0.597534,3.694457 1.262432,4.91793 2.672657,4.91793 1.403394,0 2.404272,-1.529985 3.211317,-4.908953 0.417527,-1.748121 1.010504,-3.457414 1.317726,-3.79843 0.307222,-0.341015 0.682576,-1.133987 0.83412,-1.76216 0.67221,-2.786408 3.125942,-4.385369 5.473729,-3.566926 1.411068,0.491901 1.688195,1.663429 0.793454,3.354252 -1.926555,3.640679 -4.199206,9.316528 -4.963213,12.395415 -0.467632,1.884517 -1.1605,3.864574 -1.539706,4.400127 -0.379206,0.53555 -0.972067,1.680019 -1.317468,2.543262 -0.456186,1.140121 -0.947619,1.680951 -1.796224,1.976775 -1.330018,0.463648 -4.459359,0.534792 -5.097312,0.115884 -0.834527,-0.547987 -2.42947,-4.275917 -2.435317,-5.692176 -0.0087,-2.101765 -0.942585,-5.734967 -1.685047,-6.555377 -1.582481,-1.748623 -3.089844,-1.096081 -3.578776,1.549262 -0.179335,0.970284 -0.700719,2.290308 -1.158632,2.933387 -0.457912,0.643079 -1.160599,2.419008 -1.561527,3.946506 -0.8795768,3.351114 -1.6496265,4.10976 -4.1715369,4.10976 -0.9888586,0 -1.9121383,-0.114213 -2.0517321,-0.253808 z"
       id="path3352"
       inkscape:connector-curvature="0" />
    <path
       style="fill:#0132c8"
       d="m 143.77216,202.82359 c -0.53936,-3.01685 -4.11106,-30.99006 -6.55023,-51.30076 -0.51551,-4.29251 -1.62811,-13.37246 -2.47247,-20.17766 -2.18171,-17.5839 -2.36344,-19.34156 -2.10587,-20.36781 0.15728,-0.62662 1.217,-1.52371 3.35215,-2.83769 1.7172,-1.05677 3.32501,-1.9214 3.57292,-1.9214 0.24791,0 1.79695,-0.74198 3.44231,-1.64884 14.18987,-7.820944 24.60702,-13.3575 42.39512,-22.53236 6.38642,-3.294027 15.14184,-7.847311 19.4565,-10.118402 4.31465,-2.271091 8.31719,-4.308852 8.89453,-4.528355 0.97867,-0.372091 1.0347,-0.34066 0.82788,0.464429 -0.2014,0.783982 -9.70606,19.651777 -23.44899,46.548808 -2.88866,5.65355 -8.70162,17.04631 -12.91768,25.31725 -4.21607,8.27094 -7.91541,15.46637 -8.22076,15.98985 -0.30535,0.52348 -1.12422,2.15102 -1.81972,3.61675 -1.47544,3.10942 -9.22234,18.18749 -11.35813,22.10671 -0.8064,1.47976 -1.81412,3.00536 -2.2394,3.39023 -0.42526,0.38486 -0.77574,1.05867 -0.77883,1.49735 -0.003,0.43867 -0.25237,1.22589 -0.55396,1.74936 -0.30159,0.52348 -0.96522,1.82928 -1.47473,2.90177 -0.5095,1.0725 -1.10478,2.06026 -1.32284,2.19503 -0.45974,0.28413 -2.56744,4.37327 -3.25991,6.32452 -0.58679,1.65345 -2.41368,4.56853 -2.86312,4.56853 -0.18346,0 -0.43311,-0.55679 -0.55477,-1.23731 z m 50.39027,-21.22686 c 0,-0.4817 10.56103,-21.49612 18.74923,-37.3074 4.82294,-9.313 6.35678,-11.96739 6.86516,-11.88052 0.73405,0.12544 0.90696,-0.53537 0.20161,-0.77049 -0.29504,-0.0983 0.18302,-1.40401 1.37071,-3.74366 3.71413,-7.31654 5.58212,-10.63578 5.98558,-10.63578 0.65869,0 1.31565,3.34615 2.42923,12.37309 0.3358,2.72208 0.76315,5.63452 0.94966,6.47208 0.18652,0.83757 0.52954,3.49302 0.76228,5.90102 0.23275,2.40799 0.75091,6.30185 1.15148,8.65302 0.52881,3.1039 0.63816,4.75738 0.3992,6.03646 -0.181,0.96889 -0.24303,2.40332 -0.13783,3.18763 0.18959,1.41353 0.16908,1.43901 -2.34263,2.91024 -1.39365,0.81632 -4.45372,2.5228 -6.80016,3.79218 -5.52823,2.99067 -12.434,6.77064 -13.40331,7.33649 -0.41878,0.24447 -1.53236,0.78981 -2.47462,1.21187 -0.94226,0.42205 -2.74112,1.35221 -3.99746,2.067 -2.84392,1.61805 -9.09176,4.77972 -9.44531,4.77972 -0.14455,0 -0.26282,-0.17232 -0.26282,-0.38295 z m 66.24654,-38.92542 c 0.005,-0.1508 8.53356,-16.70547 13.8771,-26.93528 7.67748,-14.69795 25.02644,-47.803577 29.32809,-55.96446 2.15224,-4.083122 4.98802,-9.479695 6.30174,-11.992385 1.31371,-2.51269 4.1005,-7.823604 6.19286,-11.80203 4.95732,-9.425863 6.7415,-12.847182 10.42314,-19.987308 4.24635,-8.2352963 6.59757,-12.5232379 7.00498,-12.7750333 0.5699,-0.3522195 0.9638,1.2578719 1.6351,6.6836628 0.34974,2.8267765 0.88904,7.1097715 1.19845,9.5177655 0.30941,2.407995 0.71807,5.663071 0.90813,7.233503 0.19007,1.570431 0.70151,5.682106 1.13653,9.137055 1.2665,10.05858 2.62796,21.805373 3.2652,28.172587 0.32483,3.245558 0.84229,7.699873 1.14991,9.898476 2.76584,19.767426 3.19544,24.067708 2.48937,24.918471 -0.55391,0.667416 -4.04763,2.555756 -16.57592,8.959206 -4.6066,2.35452 -10.85977,5.61147 -13.89594,7.23766 -4.81297,2.57788 -37.73817,19.56539 -49.71425,25.64971 -3.82135,1.94139 -4.73321,2.33676 -4.72449,2.0484 z M 249.74619,92.784634 c 0,-0.09472 -0.24629,-1.608042 -0.54731,-3.362943 -0.30102,-1.754901 -0.90357,-6.274488 -1.339,-10.043523 -0.43543,-3.769036 -1.04291,-8.65165 -1.34997,-10.850253 -1.17596,-8.420265 -2.47474,-19.869068 -2.28824,-20.170846 0.27716,-0.44845 8.73362,-5.490152 13.90016,-8.287198 1.15164,-0.623479 4.32106,-2.414669 7.04314,-3.980421 9.16256,-5.270345 20.32362,-11.133851 20.62306,-10.834408 0.19002,0.190015 -6.80941,14.472334 -7.50084,15.305458 -0.18276,0.220218 -1.13144,2.020172 -2.10816,3.999894 -0.97673,1.979726 -2.1316,4.100825 -2.56638,4.713556 -0.43478,0.612727 -2.14531,3.782143 -3.80118,7.043147 -2.91267,5.73611 -5.649,11.009805 -9.00252,17.350411 -0.88596,1.675127 -1.82819,3.302665 -2.09384,3.616751 -0.43225,0.511074 -3.28034,6.021384 -4.9194,9.517766 -1.35857,2.898057 -3.12214,5.861021 -3.57363,6.004058 -0.26174,0.08292 -0.47589,0.07327 -0.47589,-0.02143 z"
       id="path3350"
       inkscape:connector-curvature="0" />
    <path
       style="fill:#ee0606"
       d="m 143.77216,202.82359 c -0.53936,-3.01685 -4.11106,-30.99006 -6.55023,-51.30076 -0.51551,-4.29251 -1.62811,-13.37246 -2.47247,-20.17766 -2.18171,-17.5839 -2.36344,-19.34156 -2.10587,-20.36781 0.15728,-0.62662 1.217,-1.52371 3.35215,-2.83769 1.7172,-1.05677 3.32501,-1.9214 3.57292,-1.9214 0.24791,0 1.79695,-0.74198 3.44231,-1.64884 14.18987,-7.820944 24.60702,-13.3575 42.39512,-22.53236 6.38642,-3.294027 15.14184,-7.847311 19.4565,-10.118402 4.31465,-2.271091 8.31719,-4.308852 8.89453,-4.528355 0.97867,-0.372091 1.0347,-0.34066 0.82788,0.464429 -0.2014,0.783982 -9.70606,19.651777 -23.44899,46.548808 -2.88866,5.65355 -8.70162,17.04631 -12.91768,25.31725 -4.21607,8.27094 -7.91541,15.46637 -8.22076,15.98985 -0.30535,0.52348 -1.12422,2.15102 -1.81972,3.61675 -1.47544,3.10942 -9.22234,18.18749 -11.35813,22.10671 -0.8064,1.47976 -1.81412,3.00536 -2.2394,3.39023 -0.42526,0.38486 -0.77574,1.05867 -0.77883,1.49735 -0.003,0.43867 -0.25237,1.22589 -0.55396,1.74936 -0.30159,0.52348 -0.96522,1.82928 -1.47473,2.90177 -0.5095,1.0725 -1.10478,2.06026 -1.32284,2.19503 -0.45974,0.28413 -2.56744,4.37327 -3.25991,6.32452 -0.58679,1.65345 -2.41368,4.56853 -2.86312,4.56853 -0.18346,0 -0.43311,-0.55679 -0.55477,-1.23731 z m 50.39027,-21.22686 c 0,-0.4817 10.56103,-21.49612 18.74923,-37.3074 4.82294,-9.313 6.35678,-11.96739 6.86516,-11.88052 0.73405,0.12544 0.90696,-0.53537 0.20161,-0.77049 -0.29504,-0.0983 0.18302,-1.40401 1.37071,-3.74366 3.71413,-7.31654 5.58212,-10.63578 5.98558,-10.63578 0.65869,0 1.31565,3.34615 2.42923,12.37309 0.3358,2.72208 0.76315,5.63452 0.94966,6.47208 0.18652,0.83757 0.52954,3.49302 0.76228,5.90102 0.23275,2.40799 0.75091,6.30185 1.15148,8.65302 0.52881,3.1039 0.63816,4.75738 0.3992,6.03646 -0.181,0.96889 -0.24303,2.40332 -0.13783,3.18763 0.18959,1.41353 0.16908,1.43901 -2.34263,2.91024 -1.39365,0.81632 -4.45372,2.5228 -6.80016,3.79218 -5.52823,2.99067 -12.434,6.77064 -13.40331,7.33649 -0.41878,0.24447 -1.53236,0.78981 -2.47462,1.21187 -0.94226,0.42205 -2.74112,1.35221 -3.99746,2.067 -2.84392,1.61805 -9.09176,4.77972 -9.44531,4.77972 -0.14455,0 -0.26282,-0.17232 -0.26282,-0.38295 z m 66.24654,-38.92542 c 0.005,-0.1508 8.53356,-16.70547 13.8771,-26.93528 7.67748,-14.69795 25.02644,-47.803577 29.32809,-55.96446 2.15224,-4.083122 4.98802,-9.479695 6.30174,-11.992385 1.31371,-2.51269 4.1005,-7.823604 6.19286,-11.80203 4.95732,-9.425863 6.7415,-12.847182 10.42314,-19.987308 4.24635,-8.2352963 6.59757,-12.5232379 7.00498,-12.7750333 0.5699,-0.3522195 0.9638,1.2578719 1.6351,6.6836628 0.34974,2.8267765 0.88904,7.1097715 1.19845,9.5177655 0.30941,2.407995 0.71807,5.663071 0.90813,7.233503 0.19007,1.570431 0.70151,5.682106 1.13653,9.137055 1.2665,10.05858 2.62796,21.805373 3.2652,28.172587 0.32483,3.245558 0.84229,7.699873 1.14991,9.898476 2.76584,19.767426 3.19544,24.067708 2.48937,24.918471 -0.55391,0.667416 -4.04763,2.555756 -16.57592,8.959206 -4.6066,2.35452 -10.85977,5.61147 -13.89594,7.23766 -4.81297,2.57788 -37.73817,19.56539 -49.71425,25.64971 -3.82135,1.94139 -4.73321,2.33676 -4.72449,2.0484 z m 11.60879,-6.95803 c 1.04696,-0.52726 2.61728,-1.55097 3.48962,-2.2749 2.0445,-1.69671 5.85598,-3.99453 6.62796,-3.99579 0.3299,-3.8e-4 1.87178,-0.96871 3.4264,-2.15149 3.41005,-2.59442 5.38671,-3.52286 8.05077,-3.78144 1.69182,-0.16421 2.24994,-0.43025 3.53216,-1.68375 1.1137,-1.08875 2.80141,-2.01498 6.28172,-3.44745 4.36405,-1.79621 6.70167,-3.20954 9.67216,-5.84779 0.6084,-0.54035 1.27714,-0.98245 1.48611,-0.98245 0.36166,0 1.06598,-0.31396 7.32038,-3.26306 2.38267,-1.12349 4.8456,-2.67804 11.92256,-7.52532 1.12104,-0.76784 2.95611,-1.662902 4.07793,-1.989026 2.0395,-0.592896 3.65038,-1.978047 4.15709,-3.574561 0.13039,-0.410813 -0.13027,-1.910787 -0.57924,-3.333274 -0.66923,-2.12033 -0.83627,-3.718176 -0.9271,-8.86806 -0.0875,-4.96176 -0.27431,-6.841709 -0.88903,-8.9467 -0.42803,-1.465736 -0.87781,-4.292513 -0.99951,-6.281726 -0.2441,-3.989862 -1.14957,-14.229269 -1.74026,-19.679534 -0.20859,-1.924633 -0.37926,-5.437816 -0.37926,-7.807073 0,-3.784549 -0.18793,-5.047262 -1.54737,-10.396607 -1.35931,-5.348832 -1.5745,-6.794498 -1.77055,-11.894701 -0.12275,-3.193211 -0.34539,-5.805838 -0.49476,-5.805838 -0.35025,0 -1.61735,1.924657 -4.38624,6.662436 -1.22373,2.093909 -2.58632,4.235406 -3.02798,4.758883 -0.44166,0.523478 -1.96193,3.289378 -3.37838,6.146445 -1.41645,2.857068 -3.16403,5.882398 -3.88352,6.722956 -0.71948,0.840558 -1.30815,1.768725 -1.30815,2.062596 0,1.43507 -2.38979,7.414846 -3.38364,8.466601 -1.49128,1.578167 -1.77612,2.200606 -3.87727,8.472536 -1.09875,3.279788 -2.22976,5.939185 -2.82844,6.650676 -1.34697,1.600786 -2.99579,4.959004 -3.79339,7.726123 -0.73722,2.557675 -1.06603,3.079134 -5.22111,8.280129 -1.62716,2.036752 -3.07319,4.160215 -3.21338,4.718805 -0.1402,0.55859 -0.89246,1.653175 -1.6717,2.432414 -0.77924,0.779238 -1.72088,2.253491 -2.09253,3.276118 -1.06647,2.934449 -4.99863,10.972046 -6.9005,14.105062 -2.5859,4.25985 -3.14113,5.73188 -3.08257,8.17256 0.0513,2.13841 0.0446,2.15152 -2.46297,4.85999 -1.8852,2.03618 -3.10304,3.88137 -4.86662,7.37357 -1.29371,2.56178 -3.04498,5.73024 -3.89172,7.04102 -1.00262,1.55211 -1.60648,2.97735 -1.73154,4.08683 -0.172,1.52599 -0.0976,1.74137 0.71344,2.06598 1.31683,0.52702 1.47926,0.50195 3.57043,-0.55119 z M 249.74619,92.784634 c 0,-0.09472 -0.24629,-1.608042 -0.54731,-3.362943 -0.30102,-1.754901 -0.90357,-6.274488 -1.339,-10.043523 -0.43543,-3.769036 -1.04291,-8.65165 -1.34997,-10.850253 -1.17596,-8.420265 -2.47474,-19.869068 -2.28824,-20.170846 0.27716,-0.44845 8.73362,-5.490152 13.90016,-8.287198 1.15164,-0.623479 4.32106,-2.414669 7.04314,-3.980421 9.16256,-5.270345 20.32362,-11.133851 20.62306,-10.834408 0.19002,0.190015 -6.80941,14.472334 -7.50084,15.305458 -0.18276,0.220218 -1.13144,2.020172 -2.10816,3.999894 -0.97673,1.979726 -2.1316,4.100825 -2.56638,4.713556 -0.43478,0.612727 -2.14531,3.782143 -3.80118,7.043147 -2.91267,5.73611 -5.649,11.009805 -9.00252,17.350411 -0.88596,1.675127 -1.82819,3.302665 -2.09384,3.616751 -0.43225,0.511074 -3.28034,6.021384 -4.9194,9.517766 -1.35857,2.898057 -3.12214,5.861021 -3.57363,6.004058 -0.26174,0.08292 -0.47589,0.07327 -0.47589,-0.02143 z m 3.18062,-11.532993 c 0.7342,-0.883424 1.11163,-1.795435 1.16351,-2.811483 0.0776,-1.518975 0.38303,-2.014005 2.94518,-4.77265 1.13755,-1.224788 4.13201,-7.001181 4.13201,-7.970752 0,-0.128254 0.68528,-1.318252 1.52284,-2.644439 0.83757,-1.32619 1.52285,-2.532011 1.52285,-2.679609 0,-1.263312 5.78679,-11.876219 10.29192,-18.875249 1.98432,-3.082774 2.59872,-5.14935 1.91227,-6.431993 -0.57504,-1.07447 -2.11794,-1.034277 -3.60227,0.09384 -0.64793,0.492442 -1.77769,1.202455 -2.51055,1.577807 -0.73287,0.375351 -3.02818,1.802074 -5.10069,3.170501 -2.126,1.403748 -6.12622,3.510213 -9.17897,4.833532 -9.18313,3.980749 -10.27133,5.501128 -8.59478,12.008211 0.4013,1.557522 1.0133,5.572972 1.36,8.923226 1.10735,10.700641 2.08,16.950482 2.6323,16.914136 0.22972,-0.01511 0.90669,-0.615902 1.50438,-1.33508 z"
       id="path3348"
       inkscape:connector-curvature="0" />
    <path
       style="fill:#0b31ae"
       d="m 260.40897,142.67131 c 0.005,-0.1508 8.53356,-16.70547 13.8771,-26.93528 7.67748,-14.69795 25.02644,-47.803577 29.32809,-55.96446 2.15224,-4.083122 4.98802,-9.479695 6.30174,-11.992385 1.31371,-2.51269 4.1005,-7.823604 6.19286,-11.80203 4.95732,-9.425863 6.7415,-12.847182 10.42314,-19.987308 4.24635,-8.2352963 6.59757,-12.5232379 7.00498,-12.7750333 0.5699,-0.3522195 0.9638,1.2578719 1.6351,6.6836628 0.34974,2.8267765 0.88904,7.1097715 1.19845,9.5177655 0.30941,2.407995 0.71807,5.663071 0.90813,7.233503 0.19007,1.570431 0.70151,5.682106 1.13653,9.137055 1.2665,10.05858 2.62796,21.805373 3.2652,28.172587 0.32483,3.245558 0.84229,7.699873 1.14991,9.898476 2.76584,19.767426 3.19544,24.067708 2.48937,24.918471 -0.55391,0.667416 -4.04763,2.555756 -16.57592,8.959206 -4.6066,2.35452 -10.85977,5.61147 -13.89594,7.23766 -4.81297,2.57788 -37.73817,19.56539 -49.71425,25.64971 -3.82135,1.94139 -4.73321,2.33676 -4.72449,2.0484 z m 11.60879,-6.95803 c 1.04696,-0.52726 2.61728,-1.55097 3.48962,-2.2749 2.0445,-1.69671 5.85598,-3.99453 6.62796,-3.99579 0.3299,-3.8e-4 1.87178,-0.96871 3.4264,-2.15149 3.41005,-2.59442 5.38671,-3.52286 8.05077,-3.78144 1.69182,-0.16421 2.24994,-0.43025 3.53216,-1.68375 1.1137,-1.08875 2.80141,-2.01498 6.28172,-3.44745 4.36405,-1.79621 6.70167,-3.20954 9.67216,-5.84779 0.6084,-0.54035 1.27714,-0.98245 1.48611,-0.98245 0.36166,0 1.06598,-0.31396 7.32038,-3.26306 2.38267,-1.12349 4.8456,-2.67804 11.92256,-7.52532 1.12104,-0.76784 2.95611,-1.662902 4.07793,-1.989026 2.0395,-0.592896 3.65038,-1.978047 4.15709,-3.574561 0.13039,-0.410813 -0.13027,-1.910787 -0.57924,-3.333274 -0.66923,-2.12033 -0.83627,-3.718176 -0.9271,-8.86806 -0.0875,-4.96176 -0.27431,-6.841709 -0.88903,-8.9467 -0.42803,-1.465736 -0.87781,-4.292513 -0.99951,-6.281726 -0.2441,-3.989862 -1.14957,-14.229269 -1.74026,-19.679534 -0.20859,-1.924633 -0.37926,-5.437816 -0.37926,-7.807073 0,-3.784549 -0.18793,-5.047262 -1.54737,-10.396607 -1.35931,-5.348832 -1.5745,-6.794498 -1.77055,-11.894701 -0.12275,-3.193211 -0.34539,-5.805838 -0.49476,-5.805838 -0.35025,0 -1.61735,1.924657 -4.38624,6.662436 -1.22373,2.093909 -2.58632,4.235406 -3.02798,4.758883 -0.44166,0.523478 -1.96193,3.289378 -3.37838,6.146445 -1.41645,2.857068 -3.16403,5.882398 -3.88352,6.722956 -0.71948,0.840558 -1.30815,1.768725 -1.30815,2.062596 0,1.43507 -2.38979,7.414846 -3.38364,8.466601 -1.49128,1.578167 -1.77612,2.200606 -3.87727,8.472536 -1.09875,3.279788 -2.22976,5.939185 -2.82844,6.650676 -1.34697,1.600786 -2.99579,4.959004 -3.79339,7.726123 -0.73722,2.557675 -1.06603,3.079134 -5.22111,8.280129 -1.62716,2.036752 -3.07319,4.160215 -3.21338,4.718805 -0.1402,0.55859 -0.89246,1.653175 -1.6717,2.432414 -0.77924,0.779238 -1.72088,2.253491 -2.09253,3.276118 -1.06647,2.934449 -4.99863,10.972046 -6.9005,14.105062 -2.5859,4.25985 -3.14113,5.73188 -3.08257,8.17256 0.0513,2.13841 0.0446,2.15152 -2.46297,4.85999 -1.8852,2.03618 -3.10304,3.88137 -4.86662,7.37357 -1.29371,2.56178 -3.04498,5.73024 -3.89172,7.04102 -1.00262,1.55211 -1.60648,2.97735 -1.73154,4.08683 -0.172,1.52599 -0.0976,1.74137 0.71344,2.06598 1.31683,0.52702 1.47926,0.50195 3.57043,-0.55119 z M 249.74619,92.784634 c 0,-0.09472 -0.24629,-1.608042 -0.54731,-3.362943 -0.30102,-1.754901 -0.90357,-6.274488 -1.339,-10.043523 -0.43543,-3.769036 -1.04291,-8.65165 -1.34997,-10.850253 -1.17596,-8.420265 -2.47474,-19.869068 -2.28824,-20.170846 0.27716,-0.44845 8.73362,-5.490152 13.90016,-8.287198 1.15164,-0.623479 4.32106,-2.414669 7.04314,-3.980421 9.16256,-5.270345 20.32362,-11.133851 20.62306,-10.834408 0.19002,0.190015 -6.80941,14.472334 -7.50084,15.305458 -0.18276,0.220218 -1.13144,2.020172 -2.10816,3.999894 -0.97673,1.979726 -2.1316,4.100825 -2.56638,4.713556 -0.43478,0.612727 -2.14531,3.782143 -3.80118,7.043147 -2.91267,5.73611 -5.649,11.009805 -9.00252,17.350411 -0.88596,1.675127 -1.82819,3.302665 -2.09384,3.616751 -0.43225,0.511074 -3.28034,6.021384 -4.9194,9.517766 -1.35857,2.898057 -3.12214,5.861021 -3.57363,6.004058 -0.26174,0.08292 -0.47589,0.07327 -0.47589,-0.02143 z m 3.18062,-11.532993 c 0.7342,-0.883424 1.11163,-1.795435 1.16351,-2.811483 0.0776,-1.518975 0.38303,-2.014005 2.94518,-4.77265 1.13755,-1.224788 4.13201,-7.001181 4.13201,-7.970752 0,-0.128254 0.68528,-1.318252 1.52284,-2.644439 0.83757,-1.32619 1.52285,-2.532011 1.52285,-2.679609 0,-1.263312 5.78679,-11.876219 10.29192,-18.875249 1.98432,-3.082774 2.59872,-5.14935 1.91227,-6.431993 -0.57504,-1.07447 -2.11794,-1.034277 -3.60227,0.09384 -0.64793,0.492442 -1.77769,1.202455 -2.51055,1.577807 -0.73287,0.375351 -3.02818,1.802074 -5.10069,3.170501 -2.126,1.403748 -6.12622,3.510213 -9.17897,4.833532 -9.18313,3.980749 -10.27133,5.501128 -8.59478,12.008211 0.4013,1.557522 1.0133,5.572972 1.36,8.923226 1.10735,10.700641 2.08,16.950482 2.6323,16.914136 0.22972,-0.01511 0.90669,-0.615902 1.50438,-1.33508 z"
       id="path3346"
       inkscape:connector-curvature="0" />
  </g>
</svg>
